<svg width="2300" height="2300" viewBox="0 0 2300 2300" fill="none" xmlns="http://www.w3.org/2000/svg">
<mask id="path-1-inside-1_29_279" fill="white">
<path fill-rule="evenodd" clip-rule="evenodd" d="M1153 57C1153 51.4772 1148.52 47 1143 47H977C971.477 47 967 51.4772 967 57V200.963C967 206.754 962.097 211.327 956.314 211.021C943.483 210.34 930.5 210 917.364 210C824.087 210 738.623 227.282 660.972 261.847C623.977 278.314 589.346 298.22 557.08 321.566C554.506 323.428 553 326.42 553 329.597V536.493C553 546.383 566.18 550.509 572.212 542.673C603.845 501.583 640.533 467.87 682.278 441.534C752.828 397.027 831.189 374.773 917.364 374.773C934.299 374.773 950.793 375.51 966.843 376.985C966.932 376.993 967 377.068 967 377.157V377.275C967 377.282 967.005 377.288 967.011 377.29C967.021 377.293 967.024 377.301 967.023 377.309C967.021 377.315 967.017 377.321 967.009 377.322C966.807 377.35 966.654 377.396 966.552 377.461C966.531 377.475 966.518 377.496 966.513 377.52C966.511 377.534 966.511 377.549 966.514 377.563L966.524 377.606C966.557 377.754 966.745 377.8 966.843 377.685L966.904 377.613C966.962 377.544 967.058 377.517 967.145 377.542C1064.82 405.85 1115.57 427.523 1199.64 475.014C1199.66 475.024 1199.68 475.029 1199.7 475.027C1199.8 475.018 1199.83 474.891 1199.74 474.839L1199.45 474.655C1199.26 474.538 1199.35 474.25 1199.57 474.25H1199.9C1199.97 474.25 1200.05 474.278 1200.1 474.328C1226.74 497.833 1250.15 525.017 1270.35 555.881C1294.68 591.933 1314.51 632.489 1329.84 677.549C1331.23 681.645 1335.06 684.432 1339.39 684.432H1501.9C1508.16 684.432 1512.89 678.737 1511.62 672.605C1497.95 606.696 1474.58 546.481 1441.51 491.96C1441.32 491.645 1441.13 491.331 1440.94 491.016C1440.71 490.633 1440.48 490.25 1440.25 489.867C1436.13 483.081 1440.93 474.25 1448.87 474.25H1475.52C1558.6 474.25 1622.42 490.889 1666.96 524.166C1674.05 529.462 1685 524.684 1685 515.833V358.647C1685 354.512 1682.46 350.794 1678.58 349.372C1621.49 328.457 1553.81 318 1475.52 318H1281.15C1279.11 318 1277.12 317.373 1275.43 316.217C1239.82 291.746 1201.15 271.309 1159.43 254.906C1155.57 253.387 1153 249.674 1153 245.523V57ZM553 1583.8C553 1586.99 554.515 1589.99 557.101 1591.85C567.54 1599.36 578.253 1606.55 589.239 1613.41C686.776 1674.02 799.939 1704.32 928.727 1704.32C938.078 1704.32 947.341 1704.16 956.518 1703.84C962.225 1703.65 967 1708.19 967 1713.9V1772.55V1864C967 1869.52 971.477 1874 977 1874H1143C1148.52 1874 1153 1869.52 1153 1864V1782.55C1153 1777.02 1157.48 1772.55 1163 1772.55H1492.57C1562.12 1772.55 1623.73 1766.27 1677.4 1753.71C1681.88 1752.66 1685 1748.65 1685 1744.06V1599.18C1685 1591.9 1677.46 1587.03 1670.67 1589.65C1624.63 1607.41 1565.26 1616.3 1492.57 1616.3H1297.59C1287.52 1616.3 1283.51 1602.68 1291.73 1596.84C1354.89 1551.97 1406.24 1494.99 1445.77 1425.91C1496.91 1337.37 1522.48 1233.2 1522.48 1113.41C1522.48 1112.16 1523.53 1111.16 1524.78 1111.23C1578.31 1114.06 1625.34 1126.63 1665.86 1148.97C1667.04 1149.6 1668.21 1150.24 1669.37 1150.89C1676.26 1154.72 1685 1149.88 1685 1141.99V899.7C1685 890.777 1673.97 886.098 1667.08 891.772C1651.06 904.972 1633.14 916.366 1613.31 925.955C1572.32 945.993 1526.51 956.395 1475.89 957.159H1200.08C1200.04 957.159 1200 957.123 1200 957.08C1200 957.062 1199.99 957.045 1199.98 957.031C1199.97 957.012 1199.95 957 1199.92 957H977C971.477 957 967 961.477 967 967V1104C967 1109.52 971.477 1114 977 1114H1199.7C1199.87 1114 1200 1113.87 1200 1113.7C1200 1113.54 1200.13 1113.41 1200.3 1113.41H1341.75C1347.34 1113.41 1351.85 1118 1351.66 1123.59C1348.97 1203.61 1331.1 1273.84 1298.05 1334.29C1262.53 1399.63 1212.82 1450.29 1148.9 1486.28C1147.28 1487.19 1145.65 1488.08 1144.01 1488.97C1144 1488.97 1144 1488.98 1144 1488.99C1144 1488.99 1144 1489 1143.99 1489.01L1143.76 1489.1C1143.56 1489.21 1143.37 1489.32 1143.17 1489.42C1143.16 1489.43 1143.16 1489.43 1143.15 1489.42C1143.14 1489.42 1143.14 1489.41 1143.14 1489.4C1143.14 1489.4 1143.13 1489.39 1143.13 1489.39C1143.12 1489.38 1143.11 1489.38 1143.11 1489.38C1079.36 1516.78 1040.17 1527.32 967.12 1537.98C967.052 1537.99 967 1538.05 967 1538.12C967 1538.19 966.944 1538.25 966.871 1538.26C954.397 1539.12 941.682 1539.55 928.727 1539.55C838.765 1539.55 757.799 1517.29 685.83 1472.78C642.559 1446.02 604.68 1411.65 572.192 1369.66C566.148 1361.84 553 1365.98 553 1375.86V1583.8ZM535.344 1367.49C537.043 1369.35 538 1371.78 538 1374.3V1579.55C538 1579.94 537.576 1580.18 537.239 1579.99C440.174 1522.79 364.417 1441.47 309.966 1336.02C255.989 1230.57 229 1105.45 229 960.681C229 852.102 244.388 754.47 275.165 667.785C306.415 580.654 350.449 506.48 407.267 445.265C441.98 407.865 480.582 375.802 523.071 349.077C529.616 344.96 538 349.741 538 357.472V545.123C538 547.638 537.049 550.057 535.359 551.92C507.274 582.881 482.806 618.822 461.955 659.742C420.288 741.512 399.455 841.825 399.455 960.681C399.455 1079.54 420.525 1179.85 462.665 1261.62C483.311 1301.68 507.537 1336.97 535.344 1367.49ZM1712.37 1746.78C1706.1 1748.49 1700 1743.72 1700 1737.22V1588.7C1700 1584.77 1702.3 1581.23 1705.83 1579.51C1723.88 1570.73 1739.47 1560.31 1752.6 1548.25C1801.37 1503.4 1825.75 1449.11 1825.75 1385.38C1825.75 1336.28 1813.2 1290.96 1788.11 1249.41C1767.48 1214.87 1739.65 1186.08 1704.63 1163.02C1701.77 1161.14 1700 1157.96 1700 1154.53V880.281C1700 877.634 1701.06 875.101 1702.89 873.195C1713.1 862.61 1722.32 851.106 1730.58 838.682C1756.15 800.914 1768.93 756.536 1768.93 705.549C1768.93 641.815 1746.68 587.759 1702.17 543.382C1700.79 541.996 1700 540.131 1700 538.178V368.558C1700 361.541 1707.04 356.714 1713.49 359.473C1723.06 363.566 1732.31 367.981 1741.23 372.717C1807.05 407.18 1856.05 453.682 1888.25 512.223C1920.45 570.292 1936.55 634.733 1936.55 705.549C1936.55 767.866 1925.42 819.326 1903.16 859.926C1881.38 900.527 1852.5 932.63 1816.52 956.235C1782.75 978.68 1746.2 995.576 1706.87 1006.92C1703.27 1007.96 1700.75 1011.24 1700.75 1015C1700.75 1019.39 1704.16 1023 1708.53 1023.43C1750.47 1027.49 1792.62 1042.86 1834.98 1069.54C1879.96 1097.87 1917.61 1138.47 1947.91 1191.34C1978.21 1244.22 1993.36 1308.9 1993.36 1385.38C1993.36 1458.08 1976.79 1523.47 1943.65 1581.53C1910.5 1639.6 1858.18 1685.63 1786.69 1719.62C1764.07 1730.38 1739.3 1739.43 1712.37 1746.78Z"/>
</mask>
<path fill-rule="evenodd" clip-rule="evenodd" d="M1153 57C1153 51.4772 1148.52 47 1143 47H977C971.477 47 967 51.4772 967 57V200.963C967 206.754 962.097 211.327 956.314 211.021C943.483 210.34 930.5 210 917.364 210C824.087 210 738.623 227.282 660.972 261.847C623.977 278.314 589.346 298.22 557.08 321.566C554.506 323.428 553 326.42 553 329.597V536.493C553 546.383 566.18 550.509 572.212 542.673C603.845 501.583 640.533 467.87 682.278 441.534C752.828 397.027 831.189 374.773 917.364 374.773C934.299 374.773 950.793 375.51 966.843 376.985C966.932 376.993 967 377.068 967 377.157V377.275C967 377.282 967.005 377.288 967.011 377.29C967.021 377.293 967.024 377.301 967.023 377.309C967.021 377.315 967.017 377.321 967.009 377.322C966.807 377.35 966.654 377.396 966.552 377.461C966.531 377.475 966.518 377.496 966.513 377.52C966.511 377.534 966.511 377.549 966.514 377.563L966.524 377.606C966.557 377.754 966.745 377.8 966.843 377.685L966.904 377.613C966.962 377.544 967.058 377.517 967.145 377.542C1064.82 405.85 1115.57 427.523 1199.64 475.014C1199.66 475.024 1199.68 475.029 1199.7 475.027C1199.8 475.018 1199.83 474.891 1199.74 474.839L1199.45 474.655C1199.26 474.538 1199.35 474.25 1199.57 474.25H1199.9C1199.97 474.25 1200.05 474.278 1200.1 474.328C1226.74 497.833 1250.15 525.017 1270.35 555.881C1294.68 591.933 1314.51 632.489 1329.84 677.549C1331.23 681.645 1335.06 684.432 1339.39 684.432H1501.9C1508.16 684.432 1512.89 678.737 1511.62 672.605C1497.95 606.696 1474.58 546.481 1441.51 491.96C1441.32 491.645 1441.13 491.331 1440.94 491.016C1440.71 490.633 1440.48 490.25 1440.25 489.867C1436.13 483.081 1440.93 474.25 1448.87 474.25H1475.52C1558.6 474.25 1622.42 490.889 1666.96 524.166C1674.05 529.462 1685 524.684 1685 515.833V358.647C1685 354.512 1682.46 350.794 1678.58 349.372C1621.49 328.457 1553.81 318 1475.52 318H1281.15C1279.11 318 1277.12 317.373 1275.43 316.217C1239.82 291.746 1201.15 271.309 1159.43 254.906C1155.57 253.387 1153 249.674 1153 245.523V57ZM553 1583.8C553 1586.99 554.515 1589.99 557.101 1591.85C567.54 1599.36 578.253 1606.55 589.239 1613.41C686.776 1674.02 799.939 1704.32 928.727 1704.32C938.078 1704.32 947.341 1704.16 956.518 1703.84C962.225 1703.65 967 1708.19 967 1713.9V1772.55V1864C967 1869.52 971.477 1874 977 1874H1143C1148.52 1874 1153 1869.52 1153 1864V1782.55C1153 1777.02 1157.48 1772.55 1163 1772.55H1492.57C1562.12 1772.55 1623.73 1766.27 1677.4 1753.71C1681.88 1752.66 1685 1748.65 1685 1744.06V1599.18C1685 1591.9 1677.46 1587.03 1670.67 1589.65C1624.63 1607.41 1565.26 1616.3 1492.57 1616.3H1297.59C1287.52 1616.3 1283.51 1602.68 1291.73 1596.84C1354.89 1551.97 1406.24 1494.99 1445.77 1425.91C1496.91 1337.37 1522.48 1233.2 1522.48 1113.41C1522.48 1112.16 1523.53 1111.16 1524.78 1111.23C1578.31 1114.06 1625.34 1126.63 1665.86 1148.97C1667.04 1149.6 1668.21 1150.24 1669.37 1150.89C1676.26 1154.72 1685 1149.88 1685 1141.99V899.7C1685 890.777 1673.97 886.098 1667.08 891.772C1651.06 904.972 1633.14 916.366 1613.31 925.955C1572.32 945.993 1526.51 956.395 1475.89 957.159H1200.08C1200.04 957.159 1200 957.123 1200 957.08C1200 957.062 1199.99 957.045 1199.98 957.031C1199.97 957.012 1199.95 957 1199.92 957H977C971.477 957 967 961.477 967 967V1104C967 1109.52 971.477 1114 977 1114H1199.7C1199.87 1114 1200 1113.87 1200 1113.7C1200 1113.54 1200.13 1113.41 1200.3 1113.41H1341.75C1347.34 1113.41 1351.85 1118 1351.66 1123.59C1348.97 1203.61 1331.1 1273.84 1298.05 1334.29C1262.53 1399.63 1212.82 1450.29 1148.9 1486.28C1147.28 1487.19 1145.65 1488.08 1144.01 1488.97C1144 1488.97 1144 1488.98 1144 1488.99C1144 1488.99 1144 1489 1143.99 1489.01L1143.76 1489.1C1143.56 1489.21 1143.37 1489.32 1143.17 1489.42C1143.16 1489.43 1143.16 1489.43 1143.15 1489.42C1143.14 1489.42 1143.14 1489.41 1143.14 1489.4C1143.14 1489.4 1143.13 1489.39 1143.13 1489.39C1143.12 1489.38 1143.11 1489.38 1143.11 1489.38C1079.36 1516.78 1040.17 1527.32 967.12 1537.98C967.052 1537.99 967 1538.05 967 1538.12C967 1538.19 966.944 1538.25 966.871 1538.26C954.397 1539.12 941.682 1539.55 928.727 1539.55C838.765 1539.55 757.799 1517.29 685.83 1472.78C642.559 1446.02 604.68 1411.65 572.192 1369.66C566.148 1361.84 553 1365.98 553 1375.86V1583.8ZM535.344 1367.49C537.043 1369.35 538 1371.78 538 1374.3V1579.55C538 1579.94 537.576 1580.18 537.239 1579.99C440.174 1522.79 364.417 1441.47 309.966 1336.02C255.989 1230.57 229 1105.45 229 960.681C229 852.102 244.388 754.47 275.165 667.785C306.415 580.654 350.449 506.48 407.267 445.265C441.98 407.865 480.582 375.802 523.071 349.077C529.616 344.96 538 349.741 538 357.472V545.123C538 547.638 537.049 550.057 535.359 551.92C507.274 582.881 482.806 618.822 461.955 659.742C420.288 741.512 399.455 841.825 399.455 960.681C399.455 1079.54 420.525 1179.85 462.665 1261.62C483.311 1301.68 507.537 1336.97 535.344 1367.49ZM1712.37 1746.78C1706.1 1748.49 1700 1743.72 1700 1737.22V1588.7C1700 1584.77 1702.3 1581.23 1705.83 1579.51C1723.88 1570.73 1739.47 1560.31 1752.6 1548.25C1801.37 1503.4 1825.75 1449.11 1825.75 1385.38C1825.75 1336.28 1813.2 1290.96 1788.11 1249.41C1767.48 1214.87 1739.65 1186.08 1704.63 1163.02C1701.77 1161.14 1700 1157.96 1700 1154.53V880.281C1700 877.634 1701.06 875.101 1702.89 873.195C1713.1 862.61 1722.32 851.106 1730.58 838.682C1756.15 800.914 1768.93 756.536 1768.93 705.549C1768.93 641.815 1746.68 587.759 1702.17 543.382C1700.79 541.996 1700 540.131 1700 538.178V368.558C1700 361.541 1707.04 356.714 1713.49 359.473C1723.06 363.566 1732.31 367.981 1741.23 372.717C1807.05 407.18 1856.05 453.682 1888.25 512.223C1920.45 570.292 1936.55 634.733 1936.55 705.549C1936.55 767.866 1925.42 819.326 1903.16 859.926C1881.38 900.527 1852.5 932.63 1816.52 956.235C1782.75 978.68 1746.2 995.576 1706.87 1006.92C1703.27 1007.96 1700.75 1011.24 1700.75 1015C1700.75 1019.39 1704.16 1023 1708.53 1023.43C1750.47 1027.49 1792.62 1042.86 1834.98 1069.54C1879.96 1097.87 1917.61 1138.47 1947.91 1191.34C1978.21 1244.22 1993.36 1308.9 1993.36 1385.38C1993.36 1458.08 1976.79 1523.47 1943.65 1581.53C1910.5 1639.6 1858.18 1685.63 1786.69 1719.62C1764.07 1730.38 1739.3 1739.43 1712.37 1746.78Z" fill="#F792E0"/>
<path d="M956.314 211.021L956.42 209.023L956.42 209.023L956.314 211.021ZM660.972 261.847L660.158 260.019L660.158 260.019L660.972 261.847ZM557.08 321.566L558.252 323.186L558.252 323.186L557.08 321.566ZM572.212 542.673L573.797 543.893L573.797 543.893L572.212 542.673ZM682.278 441.534L683.346 443.226L683.346 443.226L682.278 441.534ZM966.843 376.985L966.66 378.977L966.661 378.977L966.843 376.985ZM967.011 377.29L966.457 379.212L966.459 379.212L967.011 377.29ZM967.023 377.309L968.988 377.682L968.99 377.67L967.023 377.309ZM967.009 377.322L967.277 379.304L967.278 379.304L967.009 377.322ZM966.552 377.461L967.629 379.146L967.632 379.145L966.552 377.461ZM966.513 377.52L964.548 377.147L964.547 377.152L966.513 377.52ZM966.514 377.563L968.466 377.127L968.465 377.121L966.514 377.563ZM966.524 377.606L964.572 378.043L964.572 378.044L966.524 377.606ZM966.843 377.685L965.32 376.389L965.319 376.389L966.843 377.685ZM966.904 377.613L968.427 378.91L968.427 378.909L966.904 377.613ZM967.145 377.542L967.702 375.621L967.701 375.621L967.145 377.542ZM1199.64 475.014L1200.63 473.273L1200.62 473.272L1199.64 475.014ZM1199.7 475.027L1199.88 477.019L1199.88 477.019L1199.7 475.027ZM1199.74 474.839L1200.81 473.146L1200.81 473.145L1199.74 474.839ZM1199.45 474.655L1200.51 472.961L1200.51 472.961L1199.45 474.655ZM1200.1 474.328L1201.43 472.829L1201.43 472.828L1200.1 474.328ZM1270.35 555.881L1268.67 556.976L1268.68 556.988L1268.69 557L1270.35 555.881ZM1329.84 677.549L1331.74 676.905L1331.74 676.905L1329.84 677.549ZM1511.62 672.605L1509.66 673.011L1509.66 673.011L1511.62 672.605ZM1441.51 491.96L1439.8 492.991L1439.8 492.997L1441.51 491.96ZM1440.94 491.016L1439.23 492.05L1439.23 492.051L1440.94 491.016ZM1440.25 489.867L1441.96 488.83L1441.96 488.829L1440.25 489.867ZM1666.96 524.166L1665.77 525.768L1665.77 525.768L1666.96 524.166ZM1678.58 349.372L1677.89 351.25L1677.89 351.25L1678.58 349.372ZM1275.43 316.217L1276.57 314.569L1276.57 314.569L1275.43 316.217ZM1159.43 254.906L1158.7 256.767L1158.7 256.767L1159.43 254.906ZM557.101 1591.85L558.269 1590.23L558.269 1590.23L557.101 1591.85ZM589.239 1613.41L588.179 1615.11L588.183 1615.11L589.239 1613.41ZM956.518 1703.84L956.586 1705.84L956.586 1705.84L956.518 1703.84ZM1677.4 1753.71L1677.86 1755.65L1677.86 1755.65L1677.4 1753.71ZM1670.67 1589.65L1671.39 1591.51L1671.39 1591.51L1670.67 1589.65ZM1291.73 1596.84L1290.57 1595.21L1290.57 1595.21L1291.73 1596.84ZM1445.77 1425.91L1444.04 1424.91L1444.04 1424.92L1445.77 1425.91ZM1524.78 1111.23L1524.88 1109.23L1524.88 1109.23L1524.78 1111.23ZM1665.86 1148.97L1664.9 1150.72L1664.91 1150.72L1664.91 1150.73L1665.86 1148.97ZM1669.37 1150.89L1668.4 1152.64L1668.4 1152.64L1669.37 1150.89ZM1667.08 891.772L1665.81 890.228L1665.81 890.228L1667.08 891.772ZM1613.31 925.955L1612.44 924.154L1612.43 924.158L1613.31 925.955ZM1475.89 957.159V959.159H1475.9L1475.92 959.159L1475.89 957.159ZM1199.98 957.031L1198.39 958.24L1198.39 958.24L1199.98 957.031ZM1351.66 1123.59L1349.67 1123.52L1349.67 1123.52L1351.66 1123.59ZM1298.05 1334.29L1296.29 1333.33L1296.29 1333.33L1298.05 1334.29ZM1148.9 1486.28L1149.87 1488.02L1149.88 1488.02L1148.9 1486.28ZM1144.01 1488.97L1144.96 1490.73L1144.96 1490.73L1144.01 1488.97ZM1143.99 1489.01L1143.2 1487.17L1143.2 1487.17L1143.99 1489.01ZM1143.76 1489.1L1142.97 1487.27L1142.89 1487.3L1142.81 1487.34L1143.76 1489.1ZM1143.17 1489.42L1144.11 1491.18L1144.11 1491.18L1143.17 1489.42ZM1143.15 1489.42L1143.83 1487.54L1143.82 1487.54L1143.81 1487.54L1143.15 1489.42ZM1143.13 1489.39L1144.09 1487.63L1144.09 1487.63L1143.13 1489.39ZM1143.11 1489.38L1143.9 1491.22L1143.9 1491.22L1143.11 1489.38ZM967.12 1537.98L966.831 1536L966.829 1536L967.12 1537.98ZM966.871 1538.26L967.008 1540.25L967.008 1540.25L966.871 1538.26ZM685.83 1472.78L684.778 1474.49L684.778 1474.49L685.83 1472.78ZM572.192 1369.66L570.61 1370.88L570.61 1370.88L572.192 1369.66ZM535.344 1367.49L536.822 1366.14L536.822 1366.14L535.344 1367.49ZM537.239 1579.99L536.223 1581.71L536.227 1581.71L537.239 1579.99ZM309.966 1336.02L308.186 1336.93L308.189 1336.93L309.966 1336.02ZM275.165 667.785L273.282 667.11L273.28 667.116L275.165 667.785ZM407.267 445.265L408.733 446.625L408.733 446.625L407.267 445.265ZM523.071 349.077L524.136 350.77L524.136 350.77L523.071 349.077ZM535.359 551.92L536.84 553.264L536.84 553.264L535.359 551.92ZM461.955 659.742L463.737 660.65L463.737 660.65L461.955 659.742ZM462.665 1261.62L460.887 1262.54L460.887 1262.54L462.665 1261.62ZM1712.37 1746.78L1711.84 1744.85L1711.84 1744.85L1712.37 1746.78ZM1705.83 1579.51L1704.96 1577.72L1704.96 1577.72L1705.83 1579.51ZM1752.6 1548.25L1753.95 1549.72L1753.95 1549.72L1752.6 1548.25ZM1788.11 1249.41L1786.39 1250.44L1786.4 1250.44L1788.11 1249.41ZM1704.63 1163.02L1703.53 1164.69L1703.53 1164.69L1704.63 1163.02ZM1702.89 873.195L1701.45 871.807L1701.45 871.807L1702.89 873.195ZM1730.58 838.682L1728.92 837.561L1728.92 837.568L1728.91 837.575L1730.58 838.682ZM1702.17 543.382L1700.75 544.791L1700.76 544.798L1702.17 543.382ZM1713.49 359.473L1714.28 357.634L1714.28 357.634L1713.49 359.473ZM1741.23 372.717L1740.3 374.483L1740.31 374.489L1741.23 372.717ZM1888.25 512.223L1886.5 513.187L1886.5 513.193L1888.25 512.223ZM1903.16 859.926L1901.41 858.965L1901.41 858.973L1901.4 858.981L1903.16 859.926ZM1816.52 956.235L1815.42 954.563L1815.41 954.57L1816.52 956.235ZM1706.87 1006.92L1707.43 1008.84L1707.43 1008.84L1706.87 1006.92ZM1708.53 1023.43L1708.72 1021.44L1708.72 1021.44L1708.53 1023.43ZM1834.98 1069.54L1833.92 1071.23L1833.92 1071.23L1834.98 1069.54ZM1947.91 1191.34L1949.64 1190.35L1949.64 1190.35L1947.91 1191.34ZM1943.65 1581.53L1941.91 1580.54L1941.91 1580.54L1943.65 1581.53ZM1786.69 1719.62L1787.55 1721.43L1787.55 1721.43L1786.69 1719.62ZM1143 49C1147.42 49 1151 52.5817 1151 57H1155C1155 50.3726 1149.63 45 1143 45V49ZM977 49H1143V45H977V49ZM969 57C969 52.5817 972.582 49 977 49V45C970.373 45 965 50.3726 965 57H969ZM969 200.963V57H965V200.963H969ZM956.208 213.018C963.115 213.384 969 207.92 969 200.963H965C965 205.587 961.078 209.271 956.42 209.023L956.208 213.018ZM917.364 212C930.465 212 943.413 212.339 956.208 213.018L956.42 209.023C943.553 208.341 930.534 208 917.364 208V212ZM661.785 263.674C739.156 229.234 824.34 212 917.364 212V208C823.834 208 738.09 225.33 660.158 260.019L661.785 263.674ZM558.252 323.186C590.404 299.923 624.914 280.086 661.785 263.674L660.158 260.019C623.039 276.542 588.288 296.517 555.908 319.945L558.252 323.186ZM555 329.597C555 327.052 556.206 324.666 558.252 323.186L555.908 319.945C552.806 322.189 551 325.788 551 329.597H555ZM555 536.493V329.597H551V536.493H555ZM570.627 541.453C568.203 544.603 564.327 545.399 560.95 544.324C557.584 543.253 555 540.422 555 536.493H551C551 542.455 555.006 546.631 559.738 548.136C564.459 549.638 570.189 548.58 573.797 543.893L570.627 541.453ZM681.211 439.843C639.257 466.31 602.396 500.186 570.627 541.453L573.797 543.893C605.293 502.98 641.809 469.43 683.346 443.226L681.211 439.843ZM917.364 372.773C830.825 372.773 752.091 395.127 681.211 439.843L683.346 443.226C753.564 398.927 831.554 376.773 917.364 376.773V372.773ZM967.026 374.994C950.912 373.513 934.357 372.773 917.364 372.773V376.773C934.241 376.773 950.673 377.508 966.66 378.977L967.026 374.994ZM969 377.157C969 376.036 968.146 375.096 967.026 374.994L966.661 378.977C965.718 378.89 965 378.099 965 377.157H969ZM969 377.275V377.157H965V377.275H969ZM967.565 375.368C968.408 375.611 969 376.383 969 377.275H965C965 378.181 965.602 378.965 966.457 379.212L967.565 375.368ZM968.99 377.67C969.135 376.878 968.769 375.714 967.563 375.368L966.459 379.212C965.272 378.871 964.913 377.724 965.055 376.948L968.99 377.67ZM967.278 379.304C968.268 379.17 968.852 378.398 968.988 377.682L965.058 376.936C965.191 376.233 965.766 375.473 966.74 375.34L967.278 379.304ZM967.632 379.145C967.487 379.238 967.37 379.277 967.324 379.291C967.273 379.307 967.253 379.307 967.277 379.304L966.74 375.34C966.426 375.383 965.935 375.481 965.472 375.777L967.632 379.145ZM968.478 377.893C968.393 378.342 968.127 378.828 967.629 379.146L965.475 375.776C964.935 376.121 964.643 376.65 964.548 377.147L968.478 377.893ZM968.465 377.121C968.521 377.37 968.527 377.631 968.479 377.887L964.547 377.152C964.494 377.437 964.501 377.727 964.564 378.006L968.465 377.121ZM968.476 377.17L968.466 377.127L964.562 378L964.572 378.043L968.476 377.17ZM965.319 376.389C966.291 375.247 968.147 375.707 968.475 377.168L964.572 378.044C964.967 379.801 967.198 380.353 968.366 378.981L965.319 376.389ZM965.381 376.317L965.32 376.389L968.366 378.981L968.427 378.91L965.381 376.317ZM967.701 375.621C966.879 375.383 965.963 375.633 965.38 376.318L968.427 378.909C967.962 379.456 967.237 379.651 966.589 379.463L967.701 375.621ZM1200.62 473.272C1116.41 425.706 1065.53 403.972 967.702 375.621L966.588 379.463C1064.12 407.727 1114.72 429.341 1198.66 476.755L1200.62 473.272ZM1199.52 473.035C1199.91 473 1200.3 473.088 1200.63 473.273L1198.65 476.754C1199.02 476.96 1199.44 477.057 1199.88 477.019L1199.52 473.035ZM1198.68 476.532C1197.14 475.563 1197.71 473.196 1199.52 473.035L1199.88 477.019C1201.88 476.84 1202.52 474.219 1200.81 473.146L1198.68 476.532ZM1198.39 476.349L1198.68 476.533L1200.81 473.145L1200.51 472.961L1198.39 476.349ZM1199.57 472.25C1197.33 472.25 1196.51 475.168 1198.39 476.349L1200.51 472.961C1202.02 473.908 1201.36 476.25 1199.57 476.25V472.25ZM1199.9 472.25H1199.57V476.25H1199.9V472.25ZM1201.43 472.828C1201 472.456 1200.46 472.25 1199.9 472.25V476.25C1199.49 476.25 1199.09 476.1 1198.78 475.828L1201.43 472.828ZM1272.02 554.786C1251.73 523.778 1228.2 496.456 1201.43 472.829L1198.78 475.828C1225.27 499.209 1248.57 526.256 1268.67 556.976L1272.02 554.786ZM1331.74 676.905C1316.36 631.693 1296.45 590.974 1272 554.762L1268.69 557C1292.92 592.892 1312.67 633.286 1327.95 678.193L1331.74 676.905ZM1339.39 682.432C1335.93 682.432 1332.86 680.204 1331.74 676.905L1327.95 678.193C1329.61 683.086 1334.19 686.432 1339.39 686.432V682.432ZM1501.9 682.432H1339.39V686.432H1501.9V682.432ZM1509.66 673.011C1510.67 677.876 1506.92 682.432 1501.9 682.432V686.432C1509.41 686.432 1515.11 679.598 1513.58 672.198L1509.66 673.011ZM1439.8 492.997C1472.75 547.313 1496.04 607.312 1509.66 673.011L1513.58 672.198C1499.86 606.079 1476.42 545.649 1443.22 490.923L1439.8 492.997ZM1439.23 492.051C1439.42 492.364 1439.61 492.678 1439.8 492.991L1443.23 490.929C1443.04 490.613 1442.84 490.298 1442.65 489.982L1439.23 492.051ZM1438.54 490.905C1438.77 491.287 1439 491.669 1439.23 492.05L1442.65 489.982C1442.42 489.597 1442.19 489.213 1441.96 488.83L1438.54 490.905ZM1448.87 472.25C1439.32 472.25 1433.63 482.833 1438.54 490.906L1441.96 488.829C1438.62 483.329 1442.55 476.25 1448.87 476.25V472.25ZM1475.52 472.25H1448.87V476.25H1475.52V472.25ZM1668.16 522.563C1623.13 488.928 1558.83 472.25 1475.52 472.25V476.25C1558.37 476.25 1621.7 492.849 1665.77 525.768L1668.16 522.563ZM1683 515.833C1683 519.344 1680.85 522.111 1677.82 523.482C1674.77 524.86 1671.05 524.721 1668.16 522.563L1665.77 525.768C1669.97 528.907 1675.27 529.026 1679.47 527.127C1683.68 525.221 1687 521.173 1687 515.833H1683ZM1683 358.647V515.833H1687V358.647H1683ZM1677.89 351.25C1680.97 352.376 1683 355.331 1683 358.647H1687C1687 353.693 1683.96 349.212 1679.27 347.494L1677.89 351.25ZM1475.52 320C1553.64 320 1621.08 330.435 1677.89 351.25L1679.27 347.494C1621.91 326.479 1553.98 316 1475.52 316V320ZM1281.15 320H1475.52V316H1281.15V320ZM1274.3 317.866C1276.31 319.247 1278.7 320 1281.15 320V316C1279.52 316 1277.92 315.499 1276.57 314.569L1274.3 317.866ZM1158.7 256.767C1200.28 273.116 1238.81 293.483 1274.3 317.866L1276.57 314.569C1240.82 290.008 1202.02 269.501 1160.16 253.045L1158.7 256.767ZM1151 245.523C1151 250.51 1154.08 254.952 1158.7 256.767L1160.16 253.045C1157.05 251.822 1155 248.839 1155 245.523H1151ZM1151 57V245.523H1155V57H1151ZM558.269 1590.23C556.213 1588.75 555 1586.35 555 1583.8H551C551 1587.62 552.817 1591.23 555.932 1593.47L558.269 1590.23ZM590.298 1611.71C579.349 1604.88 568.673 1597.71 558.269 1590.23L555.932 1593.47C566.408 1601.01 577.157 1608.22 588.179 1615.11L590.298 1611.71ZM928.727 1702.32C800.266 1702.32 687.478 1672.1 590.294 1611.71L588.183 1615.11C686.075 1675.93 799.613 1706.32 928.727 1706.32V1702.32ZM956.449 1701.84C947.295 1702.16 938.055 1702.32 928.727 1702.32V1706.32C938.1 1706.32 947.386 1706.16 956.586 1705.84L956.449 1701.84ZM969 1713.9C969 1707.04 963.269 1701.61 956.449 1701.84L956.586 1705.84C961.181 1705.68 965 1709.34 965 1713.9H969ZM969 1772.55V1713.9H965V1772.55H969ZM969 1864V1772.55H965V1864H969ZM977 1872C972.582 1872 969 1868.42 969 1864H965C965 1870.63 970.373 1876 977 1876V1872ZM1143 1872H977V1876H1143V1872ZM1151 1864C1151 1868.42 1147.42 1872 1143 1872V1876C1149.63 1876 1155 1870.63 1155 1864H1151ZM1151 1782.55V1864H1155V1782.55H1151ZM1163 1770.55C1156.37 1770.55 1151 1775.92 1151 1782.55H1155C1155 1778.13 1158.58 1774.55 1163 1774.55V1770.55ZM1492.57 1770.55H1163V1774.55H1492.57V1770.55ZM1676.95 1751.76C1623.46 1764.28 1562 1770.55 1492.57 1770.55V1774.55C1562.23 1774.55 1624 1768.26 1677.86 1755.65L1676.95 1751.76ZM1683 1744.06C1683 1747.74 1680.5 1750.93 1676.95 1751.76L1677.86 1755.65C1683.25 1754.39 1687 1749.56 1687 1744.06H1683ZM1683 1599.18V1744.06H1687V1599.18H1683ZM1671.39 1591.51C1676.95 1589.37 1683 1593.39 1683 1599.18H1687C1687 1590.41 1677.97 1584.69 1669.95 1587.78L1671.39 1591.51ZM1492.57 1618.3C1565.4 1618.3 1625.04 1609.4 1671.39 1591.51L1669.95 1587.78C1624.22 1605.43 1565.12 1614.3 1492.57 1614.3V1618.3ZM1297.59 1618.3H1492.57V1614.3H1297.59V1618.3ZM1290.57 1595.21C1285.65 1598.71 1284.45 1604.51 1285.89 1609.33C1287.33 1614.15 1291.52 1618.3 1297.59 1618.3V1614.3C1293.59 1614.3 1290.75 1611.63 1289.72 1608.19C1288.69 1604.73 1289.59 1600.82 1292.89 1598.47L1290.57 1595.21ZM1444.04 1424.92C1404.65 1493.76 1353.49 1550.51 1290.57 1595.21L1292.89 1598.47C1356.3 1553.43 1407.84 1496.23 1447.51 1426.9L1444.04 1424.92ZM1520.48 1113.41C1520.48 1232.91 1494.97 1336.72 1444.04 1424.91L1447.5 1426.91C1498.84 1338.02 1524.48 1233.49 1524.48 1113.41H1520.48ZM1524.88 1109.23C1522.49 1109.1 1520.48 1111.01 1520.48 1113.41H1524.48C1524.48 1113.3 1524.57 1113.22 1524.67 1113.23L1524.88 1109.23ZM1666.83 1147.21C1626 1124.72 1578.67 1112.07 1524.88 1109.23L1524.67 1113.23C1577.95 1116.04 1624.67 1128.55 1664.9 1150.72L1666.83 1147.21ZM1670.34 1149.14C1669.17 1148.49 1668 1147.85 1666.82 1147.21L1664.91 1150.73C1666.08 1151.36 1667.24 1151.99 1668.4 1152.64L1670.34 1149.14ZM1683 1141.99C1683 1148.26 1675.98 1152.28 1670.34 1149.14L1668.4 1152.64C1676.53 1157.17 1687 1151.5 1687 1141.99H1683ZM1683 899.7V1141.99H1687V899.7H1683ZM1668.36 893.315C1674.08 888.596 1683 892.654 1683 899.7H1687C1687 888.9 1673.86 883.6 1665.81 890.228L1668.36 893.315ZM1614.18 927.755C1634.14 918.101 1652.21 906.622 1668.36 893.315L1665.81 890.228C1649.92 903.321 1632.13 914.63 1612.44 924.154L1614.18 927.755ZM1475.92 959.159C1526.8 958.391 1572.9 947.933 1614.19 927.751L1612.43 924.158C1571.73 944.054 1526.22 954.399 1475.86 955.159L1475.92 959.159ZM1200.08 959.159H1475.89V955.159H1200.08V959.159ZM1198 957.08C1198 958.229 1198.93 959.159 1200.08 959.159V955.159C1201.14 955.159 1202 956.018 1202 957.08H1198ZM1198.39 958.24C1198.15 957.919 1198 957.515 1198 957.08H1202C1202 956.608 1201.84 956.17 1201.58 955.823L1198.39 958.24ZM1199.92 959C1199.3 959 1198.74 958.7 1198.39 958.24L1201.58 955.823C1201.2 955.325 1200.6 955 1199.92 955V959ZM977 959H1199.92V955H977V959ZM969 967C969 962.582 972.582 959 977 959V955C970.373 955 965 960.373 965 967H969ZM969 1104V967H965V1104H969ZM977 1112C972.582 1112 969 1108.42 969 1104H965C965 1110.63 970.373 1116 977 1116V1112ZM1199.7 1112H977V1116H1199.7V1112ZM1198 1113.7C1198 1112.76 1198.76 1112 1199.7 1112V1116C1200.97 1116 1202 1114.97 1202 1113.7H1198ZM1200.3 1111.41C1199.03 1111.41 1198 1112.44 1198 1113.7H1202C1202 1114.65 1201.24 1115.41 1200.3 1115.41V1111.41ZM1341.75 1111.41H1200.3V1115.41H1341.75V1111.41ZM1353.66 1123.66C1353.89 1116.92 1348.45 1111.41 1341.75 1111.41V1115.41C1346.23 1115.41 1349.81 1119.08 1349.67 1123.52L1353.66 1123.66ZM1299.8 1335.25C1333.02 1274.49 1350.96 1203.94 1353.66 1123.66L1349.67 1123.52C1346.98 1203.28 1329.17 1273.2 1296.29 1333.33L1299.8 1335.25ZM1149.88 1488.02C1214.13 1451.85 1264.11 1400.91 1299.8 1335.24L1296.29 1333.33C1260.95 1398.35 1211.5 1448.74 1147.92 1484.54L1149.88 1488.02ZM1144.96 1490.73C1146.61 1489.84 1148.24 1488.94 1149.87 1488.02L1147.92 1484.53C1146.31 1485.44 1144.69 1486.33 1143.06 1487.21L1144.96 1490.73ZM1146 1488.99C1146 1489.71 1145.6 1490.38 1144.96 1490.73L1143.06 1487.21C1142.41 1487.56 1142 1488.25 1142 1488.99H1146ZM1144.78 1490.84C1145.53 1490.52 1146 1489.78 1146 1488.99H1142C1142 1488.21 1142.46 1487.48 1143.2 1487.17L1144.78 1490.84ZM1144.55 1490.94L1144.78 1490.84L1143.2 1487.17L1142.97 1487.27L1144.55 1490.94ZM1144.11 1491.18C1144.31 1491.08 1144.51 1490.97 1144.71 1490.86L1142.81 1487.34C1142.61 1487.45 1142.42 1487.56 1142.22 1487.66L1144.11 1491.18ZM1142.47 1491.3C1142.97 1491.49 1143.57 1491.48 1144.11 1491.18L1142.22 1487.66C1142.75 1487.37 1143.35 1487.37 1143.83 1487.54L1142.47 1491.3ZM1141.14 1489.4C1141.14 1490.32 1141.74 1491.05 1142.49 1491.31L1143.81 1487.54C1144.55 1487.8 1145.14 1488.51 1145.14 1489.4H1141.14ZM1142.16 1491.14C1141.6 1490.83 1141.14 1490.2 1141.14 1489.4H1145.14C1145.14 1488.59 1144.67 1487.95 1144.09 1487.63L1142.16 1491.14ZM1143.9 1491.22C1143.29 1491.48 1142.65 1491.41 1142.16 1491.14L1144.09 1487.63C1143.59 1487.36 1142.94 1487.28 1142.32 1487.55L1143.9 1491.22ZM967.409 1539.96C1040.61 1529.27 1079.97 1518.7 1143.9 1491.22L1142.32 1487.55C1078.75 1514.87 1039.73 1525.36 966.831 1536L967.409 1539.96ZM969 1538.12C969 1539.07 968.294 1539.83 967.411 1539.96L966.829 1536C965.81 1536.15 965 1537.03 965 1538.12H969ZM967.008 1540.25C968.131 1540.18 969 1539.24 969 1538.12H965C965 1537.14 965.756 1536.33 966.734 1536.26L967.008 1540.25ZM928.727 1541.55C941.726 1541.55 954.487 1541.11 967.008 1540.25L966.734 1536.26C954.307 1537.12 941.638 1537.55 928.727 1537.55V1541.55ZM684.778 1474.49C757.084 1519.2 838.418 1541.55 928.727 1541.55V1537.55C839.112 1537.55 758.515 1515.38 686.881 1471.08L684.778 1474.49ZM570.61 1370.88C603.238 1413.05 641.294 1447.59 684.778 1474.49L686.881 1471.08C643.823 1444.46 606.121 1410.24 573.774 1368.43L570.61 1370.88ZM555 1375.86C555 1371.93 557.578 1369.1 560.938 1368.03C564.309 1366.95 568.181 1367.74 570.61 1370.88L573.774 1368.43C570.159 1363.76 564.435 1362.71 559.721 1364.22C554.996 1365.73 551 1369.9 551 1375.86H555ZM555 1583.8V1375.86H551V1583.8H555ZM540 1374.3C540 1371.27 538.85 1368.37 536.822 1366.14L533.865 1368.84C535.235 1370.34 536 1372.29 536 1374.3H540ZM540 1579.55V1374.3H536V1579.55H540ZM536.227 1581.71C537.9 1582.69 540 1581.48 540 1579.55H536C536 1578.4 537.252 1577.68 538.25 1578.26L536.227 1581.71ZM308.189 1336.93C362.803 1442.7 438.816 1524.31 536.223 1581.71L538.254 1578.26C441.532 1521.27 366.03 1440.24 311.743 1335.1L308.189 1336.93ZM227 960.681C227 1105.7 254.035 1231.14 308.186 1336.93L311.746 1335.11C257.942 1229.99 231 1105.21 231 960.681H227ZM273.28 667.116C242.415 754.051 227 851.914 227 960.681H231C231 852.29 246.362 754.89 277.05 668.454L273.28 667.116ZM405.801 443.904C348.78 505.338 304.613 579.752 273.282 667.11L277.047 668.46C308.216 581.556 352.117 507.622 408.733 446.625L405.801 443.904ZM522.006 347.384C479.367 374.204 440.631 406.379 405.801 443.904L408.733 446.625C443.329 409.351 481.796 377.401 524.136 350.77L522.006 347.384ZM540 357.472C540 348.221 529.928 342.401 522.006 347.384L524.136 350.77C529.303 347.519 536 351.26 536 357.472H540ZM540 545.123V357.472H536V545.123H540ZM536.84 553.264C538.857 551.04 540 548.144 540 545.123H536C536 547.132 535.24 549.074 533.878 550.576L536.84 553.264ZM463.737 660.65C484.515 619.872 508.886 584.081 536.84 553.264L533.878 550.576C505.663 581.681 481.097 617.771 460.173 658.834L463.737 660.65ZM401.455 960.681C401.455 842.051 422.249 742.068 463.737 660.65L460.173 658.834C418.327 740.956 397.455 841.599 397.455 960.681H401.455ZM464.443 1260.7C422.485 1179.29 401.455 1079.31 401.455 960.681H397.455C397.455 1079.77 418.564 1180.41 460.887 1262.54L464.443 1260.7ZM536.822 1366.14C509.144 1335.77 485.016 1300.62 464.443 1260.7L460.887 1262.54C481.606 1302.74 505.93 1338.18 533.865 1368.84L536.822 1366.14ZM1698 1737.22C1698 1745 1705.32 1750.78 1712.9 1748.71L1711.84 1744.85C1706.88 1746.21 1702 1742.43 1702 1737.22H1698ZM1698 1588.7V1737.22H1702V1588.7H1698ZM1704.96 1577.72C1700.77 1579.75 1698 1583.98 1698 1588.7H1702C1702 1585.57 1703.84 1582.71 1706.71 1581.31L1704.96 1577.72ZM1751.24 1546.78C1738.28 1558.69 1722.86 1569.01 1704.96 1577.72L1706.71 1581.31C1724.91 1572.46 1740.67 1561.93 1753.95 1549.72L1751.24 1546.78ZM1823.75 1385.38C1823.75 1448.53 1799.62 1502.29 1751.24 1546.78L1753.95 1549.72C1803.11 1504.51 1827.75 1449.69 1827.75 1385.38H1823.75ZM1786.4 1250.44C1811.3 1291.67 1823.75 1336.64 1823.75 1385.38H1827.75C1827.75 1335.92 1815.11 1290.24 1789.82 1248.38L1786.4 1250.44ZM1703.53 1164.69C1738.31 1187.59 1765.92 1216.17 1786.39 1250.44L1789.82 1248.39C1769.04 1213.58 1740.99 1184.56 1705.73 1161.35L1703.53 1164.69ZM1698 1154.53C1698 1158.65 1700.12 1162.45 1703.53 1164.69L1705.73 1161.35C1703.41 1159.82 1702 1157.26 1702 1154.53H1698ZM1698 880.281V1154.53H1702V880.281H1698ZM1701.45 871.807C1699.27 874.073 1698 877.098 1698 880.281H1702C1702 878.169 1702.84 876.129 1704.33 874.583L1701.45 871.807ZM1728.91 837.575C1720.72 849.9 1711.57 861.31 1701.45 871.807L1704.33 874.583C1714.62 863.91 1723.92 852.311 1732.25 839.789L1728.91 837.575ZM1766.93 705.549C1766.93 756.185 1754.24 800.162 1728.92 837.561L1732.24 839.803C1758.05 801.665 1770.93 756.887 1770.93 705.549H1766.93ZM1700.76 544.798C1744.88 588.795 1766.93 642.338 1766.93 705.549H1770.93C1770.93 641.292 1748.47 586.724 1703.58 541.965L1700.76 544.798ZM1698 538.178C1698 540.677 1699.02 543.043 1700.75 544.791L1703.59 541.973C1702.57 540.948 1702 539.585 1702 538.178H1698ZM1698 368.558V538.178H1702V368.558H1698ZM1714.28 357.634C1706.45 354.287 1698 360.166 1698 368.558H1702C1702 362.916 1707.63 359.14 1712.7 361.312L1714.28 357.634ZM1742.17 370.95C1733.2 366.188 1723.9 361.749 1714.28 357.634L1712.7 361.312C1722.23 365.384 1731.42 369.775 1740.3 374.483L1742.17 370.95ZM1890 511.259C1857.6 452.336 1808.28 405.57 1742.16 370.945L1740.31 374.489C1805.81 408.791 1854.51 455.029 1886.5 513.187L1890 511.259ZM1938.55 705.549C1938.55 634.417 1922.37 569.638 1890 511.253L1886.5 513.193C1918.52 570.945 1934.55 635.049 1934.55 705.549H1938.55ZM1904.92 860.888C1927.38 819.908 1938.55 768.091 1938.55 705.549H1934.55C1934.55 767.642 1923.46 818.743 1901.41 858.965L1904.92 860.888ZM1817.61 957.908C1853.9 934.106 1883 901.745 1904.93 860.872L1901.4 858.981C1879.77 899.309 1851.11 931.154 1815.42 954.563L1817.61 957.908ZM1707.43 1008.84C1746.95 997.441 1783.69 980.46 1817.62 957.901L1815.41 954.57C1781.82 976.9 1745.45 993.71 1706.32 1005L1707.43 1008.84ZM1702.75 1015C1702.75 1012.15 1704.66 1009.64 1707.43 1008.84L1706.32 1005C1701.87 1006.28 1698.75 1010.33 1698.75 1015H1702.75ZM1708.72 1021.44C1705.34 1021.11 1702.75 1018.31 1702.75 1015H1698.75C1698.75 1020.46 1702.98 1024.9 1708.34 1025.42L1708.72 1021.44ZM1836.05 1067.85C1793.47 1041.04 1751.03 1025.54 1708.72 1021.44L1708.34 1025.42C1749.91 1029.45 1791.77 1044.69 1833.92 1071.23L1836.05 1067.85ZM1949.64 1190.35C1919.2 1137.23 1881.34 1096.37 1836.05 1067.85L1833.92 1071.23C1878.58 1099.36 1916.01 1139.7 1946.17 1192.34L1949.64 1190.35ZM1995.36 1385.38C1995.36 1308.63 1980.16 1243.59 1949.64 1190.35L1946.17 1192.34C1976.26 1244.84 1991.36 1309.16 1991.36 1385.38H1995.36ZM1945.38 1582.53C1978.72 1524.13 1995.36 1458.4 1995.36 1385.38H1991.36C1991.36 1457.76 1974.87 1522.8 1941.91 1580.54L1945.38 1582.53ZM1787.55 1721.43C1859.34 1687.3 1912 1641.01 1945.38 1582.53L1941.91 1580.54C1909 1638.2 1857.03 1683.97 1785.83 1717.82L1787.55 1721.43ZM1712.9 1748.71C1739.93 1741.33 1764.81 1732.24 1787.55 1721.43L1785.83 1717.82C1763.33 1728.51 1738.67 1737.53 1711.84 1744.85L1712.9 1748.71Z" fill="black" mask="url(#path-1-inside-1_29_279)"/>
<mask id="path-3-inside-2_29_279" fill="white">
<path fill-rule="evenodd" clip-rule="evenodd" d="M1153 57C1153 51.4772 1148.52 47 1143 47H977C971.477 47 967 51.4772 967 57V200.963C967 206.754 962.097 211.327 956.314 211.021C943.483 210.34 930.5 210 917.364 210C824.087 210 738.623 227.282 660.972 261.847C623.977 278.314 589.346 298.22 557.08 321.566C554.506 323.428 553 326.42 553 329.597V536.494C553 546.383 566.18 550.509 572.212 542.673C603.845 501.583 640.533 467.87 682.278 441.534C752.828 397.027 831.189 374.773 917.364 374.773C934.299 374.773 950.793 375.51 966.843 376.985C966.932 376.993 967 377.068 967 377.157V377.275C967 377.282 967.005 377.288 967.011 377.29V377.29C967.028 377.295 967.026 377.32 967.009 377.322C966.807 377.35 966.654 377.396 966.552 377.461C966.518 377.483 966.505 377.524 966.514 377.563L966.524 377.606C966.557 377.754 966.744 377.8 966.843 377.685L966.903 377.613C966.962 377.544 967.058 377.517 967.145 377.542C1064.82 405.85 1115.57 427.523 1199.64 475.014C1199.66 475.024 1199.68 475.029 1199.7 475.027V475.027C1199.8 475.018 1199.83 474.891 1199.74 474.839C1199.65 474.778 1199.55 474.716 1199.45 474.655C1199.26 474.538 1199.35 474.25 1199.57 474.25H1199.9C1199.97 474.25 1200.05 474.278 1200.1 474.328C1226.74 497.833 1250.15 525.017 1270.35 555.881C1294.68 591.933 1314.51 632.489 1329.84 677.549C1331.23 681.645 1335.06 684.432 1339.39 684.432H1501.9C1508.16 684.432 1512.89 678.737 1511.62 672.605C1497.95 606.696 1474.58 546.481 1441.51 491.96C1441.09 491.261 1440.67 490.564 1440.25 489.867C1436.13 483.081 1440.93 474.25 1448.87 474.25H1475.52C1558.6 474.25 1622.42 490.889 1666.96 524.166C1674.05 529.462 1685 524.684 1685 515.833V358.647C1685 354.512 1682.46 350.794 1678.58 349.372C1621.49 328.457 1553.81 318 1475.52 318H1281.15C1279.11 318 1277.12 317.373 1275.43 316.217C1239.82 291.746 1201.15 271.309 1159.43 254.906C1155.57 253.387 1153 249.674 1153 245.523V57ZM553 1583.8C553 1586.99 554.515 1589.99 557.101 1591.85C567.54 1599.36 578.253 1606.55 589.239 1613.41C686.776 1674.02 799.939 1704.32 928.727 1704.32C938.078 1704.32 947.341 1704.16 956.518 1703.84C962.225 1703.65 967 1708.19 967 1713.9V1772.55V1864C967 1869.52 971.477 1874 977 1874H1143C1148.52 1874 1153 1869.52 1153 1864V1782.55C1153 1777.02 1157.48 1772.55 1163 1772.55H1492.57C1562.12 1772.55 1623.73 1766.27 1677.4 1753.71C1681.88 1752.66 1685 1748.65 1685 1744.06V1599.18C1685 1591.9 1677.46 1587.03 1670.67 1589.65C1624.63 1607.41 1565.26 1616.3 1492.57 1616.3H1297.59C1287.52 1616.3 1283.51 1602.68 1291.73 1596.84C1354.89 1551.97 1406.24 1494.99 1445.77 1425.91C1496.91 1337.37 1522.48 1233.2 1522.48 1113.41V1113.41C1522.48 1112.16 1523.53 1111.16 1524.78 1111.23C1578.31 1114.06 1625.34 1126.63 1665.86 1148.97C1667.04 1149.6 1668.21 1150.24 1669.37 1150.89C1676.26 1154.72 1685 1149.88 1685 1141.99V899.7C1685 890.777 1673.97 886.098 1667.08 891.772C1651.06 904.972 1633.14 916.366 1613.31 925.955C1572.32 945.993 1526.51 956.395 1475.89 957.159H1200.08C1200.04 957.159 1200 957.123 1200 957.08V957.08C1200 957.036 1199.96 957 1199.92 957H977C971.477 957 967 961.477 967 967V1104C967 1109.52 971.477 1114 977 1114H1199.7C1199.87 1114 1200 1113.87 1200 1113.7V1113.7C1200 1113.54 1200.13 1113.41 1200.3 1113.41H1341.75C1347.34 1113.41 1351.85 1118 1351.66 1123.59C1348.97 1203.61 1331.1 1273.84 1298.05 1334.29C1262.53 1399.63 1212.82 1450.29 1148.9 1486.28C1147.28 1487.19 1145.65 1488.08 1144.01 1488.97C1144 1488.97 1144 1488.98 1144 1488.99V1488.99C1144 1488.99 1144 1489 1143.99 1489.01L1143.76 1489.1C1143.56 1489.21 1143.37 1489.32 1143.17 1489.42C1143.15 1489.43 1143.14 1489.42 1143.14 1489.4V1489.4C1143.14 1489.39 1143.12 1489.38 1143.11 1489.38C1079.36 1516.78 1040.17 1527.32 967.12 1537.98C967.052 1537.99 967 1538.05 967 1538.12V1538.12C967 1538.19 966.944 1538.25 966.871 1538.26C954.397 1539.12 941.682 1539.55 928.727 1539.55C838.765 1539.55 757.799 1517.29 685.83 1472.78C642.559 1446.02 604.68 1411.65 572.192 1369.66C566.148 1361.84 553 1365.98 553 1375.86V1583.8Z"/>
</mask>
<path fill-rule="evenodd" clip-rule="evenodd" d="M1153 57C1153 51.4772 1148.52 47 1143 47H977C971.477 47 967 51.4772 967 57V200.963C967 206.754 962.097 211.327 956.314 211.021C943.483 210.34 930.5 210 917.364 210C824.087 210 738.623 227.282 660.972 261.847C623.977 278.314 589.346 298.22 557.08 321.566C554.506 323.428 553 326.42 553 329.597V536.494C553 546.383 566.18 550.509 572.212 542.673C603.845 501.583 640.533 467.87 682.278 441.534C752.828 397.027 831.189 374.773 917.364 374.773C934.299 374.773 950.793 375.51 966.843 376.985C966.932 376.993 967 377.068 967 377.157V377.275C967 377.282 967.005 377.288 967.011 377.29V377.29C967.028 377.295 967.026 377.32 967.009 377.322C966.807 377.35 966.654 377.396 966.552 377.461C966.518 377.483 966.505 377.524 966.514 377.563L966.524 377.606C966.557 377.754 966.744 377.8 966.843 377.685L966.903 377.613C966.962 377.544 967.058 377.517 967.145 377.542C1064.82 405.85 1115.57 427.523 1199.64 475.014C1199.66 475.024 1199.68 475.029 1199.7 475.027V475.027C1199.8 475.018 1199.83 474.891 1199.74 474.839C1199.65 474.778 1199.55 474.716 1199.45 474.655C1199.26 474.538 1199.35 474.25 1199.57 474.25H1199.9C1199.97 474.25 1200.05 474.278 1200.1 474.328C1226.74 497.833 1250.15 525.017 1270.35 555.881C1294.68 591.933 1314.51 632.489 1329.84 677.549C1331.23 681.645 1335.06 684.432 1339.39 684.432H1501.9C1508.16 684.432 1512.89 678.737 1511.62 672.605C1497.95 606.696 1474.58 546.481 1441.51 491.96C1441.09 491.261 1440.67 490.564 1440.25 489.867C1436.13 483.081 1440.93 474.25 1448.87 474.25H1475.52C1558.6 474.25 1622.42 490.889 1666.96 524.166C1674.05 529.462 1685 524.684 1685 515.833V358.647C1685 354.512 1682.46 350.794 1678.58 349.372C1621.49 328.457 1553.81 318 1475.52 318H1281.15C1279.11 318 1277.12 317.373 1275.43 316.217C1239.82 291.746 1201.15 271.309 1159.43 254.906C1155.57 253.387 1153 249.674 1153 245.523V57ZM553 1583.8C553 1586.99 554.515 1589.99 557.101 1591.85C567.54 1599.36 578.253 1606.55 589.239 1613.41C686.776 1674.02 799.939 1704.32 928.727 1704.32C938.078 1704.32 947.341 1704.16 956.518 1703.84C962.225 1703.65 967 1708.19 967 1713.9V1772.55V1864C967 1869.52 971.477 1874 977 1874H1143C1148.52 1874 1153 1869.52 1153 1864V1782.55C1153 1777.02 1157.48 1772.55 1163 1772.55H1492.57C1562.12 1772.55 1623.73 1766.27 1677.4 1753.71C1681.88 1752.66 1685 1748.65 1685 1744.06V1599.18C1685 1591.9 1677.46 1587.03 1670.67 1589.65C1624.63 1607.41 1565.26 1616.3 1492.57 1616.3H1297.59C1287.52 1616.3 1283.51 1602.68 1291.73 1596.84C1354.89 1551.97 1406.24 1494.99 1445.77 1425.91C1496.91 1337.37 1522.48 1233.2 1522.48 1113.41V1113.41C1522.48 1112.16 1523.53 1111.16 1524.78 1111.23C1578.31 1114.06 1625.34 1126.63 1665.86 1148.97C1667.04 1149.6 1668.21 1150.24 1669.37 1150.89C1676.26 1154.72 1685 1149.88 1685 1141.99V899.7C1685 890.777 1673.97 886.098 1667.08 891.772C1651.06 904.972 1633.14 916.366 1613.31 925.955C1572.32 945.993 1526.51 956.395 1475.89 957.159H1200.08C1200.04 957.159 1200 957.123 1200 957.08V957.08C1200 957.036 1199.96 957 1199.92 957H977C971.477 957 967 961.477 967 967V1104C967 1109.52 971.477 1114 977 1114H1199.7C1199.87 1114 1200 1113.87 1200 1113.7V1113.7C1200 1113.54 1200.13 1113.41 1200.3 1113.41H1341.75C1347.34 1113.41 1351.85 1118 1351.66 1123.59C1348.97 1203.61 1331.1 1273.84 1298.05 1334.29C1262.53 1399.63 1212.82 1450.29 1148.9 1486.28C1147.28 1487.19 1145.65 1488.08 1144.01 1488.97C1144 1488.97 1144 1488.98 1144 1488.99V1488.99C1144 1488.99 1144 1489 1143.99 1489.01L1143.76 1489.1C1143.56 1489.21 1143.37 1489.32 1143.17 1489.42C1143.15 1489.43 1143.14 1489.42 1143.14 1489.4V1489.4C1143.14 1489.39 1143.12 1489.38 1143.11 1489.38C1079.36 1516.78 1040.17 1527.32 967.12 1537.98C967.052 1537.99 967 1538.05 967 1538.12V1538.12C967 1538.19 966.944 1538.25 966.871 1538.26C954.397 1539.12 941.682 1539.55 928.727 1539.55C838.765 1539.55 757.799 1517.29 685.83 1472.78C642.559 1446.02 604.68 1411.65 572.192 1369.66C566.148 1361.84 553 1365.98 553 1375.86V1583.8Z" fill="url(#paint0_linear_29_279)"/>
<path d="M660.972 261.847L660.158 260.019L660.972 261.847ZM682.278 441.534L683.346 443.226L683.346 443.226L682.278 441.534ZM1270.35 555.881L1268.67 556.976L1268.68 556.988L1268.69 557L1270.35 555.881ZM1441.51 491.96L1439.8 492.991L1439.8 492.997L1441.51 491.96ZM589.239 1613.41L588.179 1615.11L588.183 1615.11L589.239 1613.41ZM1445.77 1425.91L1444.04 1424.91L1444.04 1424.92L1445.77 1425.91ZM1665.86 1148.97L1664.9 1150.72L1664.91 1150.72L1664.91 1150.73L1665.86 1148.97ZM1613.31 925.955L1612.44 924.154L1612.43 924.158L1613.31 925.955ZM1475.89 957.159V959.159H1475.9L1475.92 959.159L1475.89 957.159ZM1298.05 1334.29L1296.29 1333.33L1296.29 1333.33L1298.05 1334.29ZM1148.9 1486.28L1149.87 1488.02L1149.88 1488.02L1148.9 1486.28ZM1143.76 1489.1L1142.97 1487.27L1142.89 1487.3L1142.81 1487.34L1143.76 1489.1ZM685.83 1472.78L684.778 1474.49L684.778 1474.49L685.83 1472.78ZM572.192 1369.66L570.61 1370.88L572.192 1369.66ZM966.871 1538.26L967.008 1540.25L966.871 1538.26ZM1524.78 1111.23L1524.67 1113.23L1524.78 1111.23ZM1291.73 1596.84L1292.89 1598.47L1291.73 1596.84ZM1670.67 1589.65L1671.39 1591.51L1670.67 1589.65ZM1677.4 1753.71L1676.95 1751.76L1677.4 1753.71ZM956.518 1703.84L956.586 1705.84L956.518 1703.84ZM557.101 1591.85L555.932 1593.47L557.101 1591.85ZM1678.58 349.372L1679.27 347.494L1678.58 349.372ZM1511.62 672.605L1509.66 673.011L1511.62 672.605ZM1329.84 677.549L1327.95 678.193L1329.84 677.549ZM967.12 1537.98L967.409 1539.96L967.12 1537.98ZM1200.1 474.328L1198.78 475.828L1200.1 474.328ZM1143.11 1489.38L1142.32 1487.55L1143.11 1489.38ZM1199.45 474.655L1198.39 476.349L1199.45 474.655ZM1143.17 1489.42L1144.12 1491.18L1143.17 1489.42ZM1199.74 474.839L1198.68 476.532L1199.74 474.839ZM1199.64 475.014L1198.66 476.755L1199.64 475.014ZM1143.99 1489.01L1143.2 1487.17L1143.99 1489.01ZM966.903 377.613L965.38 376.317L966.903 377.613ZM967.145 377.542L966.588 379.463L967.145 377.542ZM1351.66 1123.59L1349.67 1123.52L1351.66 1123.59ZM966.843 376.985L967.026 374.994L966.843 376.985ZM1144.01 1488.97L1143.06 1487.21L1144.01 1488.97ZM966.524 377.606L968.475 377.169L966.524 377.606ZM966.843 377.685L968.366 378.981L966.843 377.685ZM1666.96 524.166L1668.16 522.563L1666.96 524.166ZM956.314 211.021L956.208 213.018L956.314 211.021ZM1159.43 254.906L1160.16 253.045L1159.43 254.906ZM572.212 542.673L570.627 541.453L572.212 542.673ZM966.552 377.461L967.631 379.145L966.552 377.461ZM966.514 377.563L968.466 377.126L966.514 377.563ZM1667.08 891.772L1668.36 893.315L1667.08 891.772ZM1275.43 316.217L1276.57 314.569L1275.43 316.217ZM557.08 321.566L555.908 319.945L557.08 321.566ZM967.009 377.322L967.278 379.304L967.009 377.322ZM1440.25 489.867L1441.96 488.829L1440.25 489.867ZM1669.37 1150.89L1670.34 1149.14L1669.37 1150.89ZM977 49H1143V45H977V49ZM969 200.963V57H965V200.963H969ZM956.42 209.023C943.553 208.341 930.534 208 917.364 208V212C930.465 212 943.413 212.339 956.208 213.018L956.42 209.023ZM917.364 208C823.834 208 738.09 225.33 660.158 260.019L661.785 263.674C739.156 229.234 824.34 212 917.364 212V208ZM660.158 260.019C623.039 276.542 588.288 296.517 555.908 319.945L558.252 323.186C590.404 299.923 624.914 280.086 661.785 263.674L660.158 260.019ZM551 329.597V536.494H555V329.597H551ZM573.797 543.893C605.293 502.98 641.809 469.43 683.346 443.226L681.211 439.843C639.257 466.31 602.396 500.186 570.627 541.453L573.797 543.893ZM683.346 443.226C753.564 398.927 831.554 376.773 917.364 376.773V372.773C830.825 372.773 752.091 395.127 681.211 439.843L683.346 443.226ZM917.364 376.773C934.241 376.773 950.673 377.508 966.66 378.977L967.026 374.994C950.912 373.513 934.357 372.773 917.364 372.773V376.773ZM965 377.157V377.275H969V377.157H965ZM966.74 375.34C966.426 375.383 965.935 375.481 965.473 375.777L967.631 379.145C967.487 379.238 967.37 379.277 967.324 379.291C967.273 379.306 967.254 379.307 967.278 379.304L966.74 375.34ZM964.563 378.001L964.572 378.044L968.475 377.169L968.466 377.126L964.563 378.001ZM968.366 378.981L968.427 378.91L965.38 376.317L965.319 376.389L968.366 378.981ZM966.588 379.463C1064.12 407.727 1114.72 429.341 1198.66 476.755L1200.62 473.272C1116.41 425.705 1065.53 403.972 967.702 375.621L966.588 379.463ZM1200.81 473.146C1200.71 473.084 1200.61 473.022 1200.51 472.961L1198.39 476.349C1198.49 476.41 1198.58 476.471 1198.68 476.532L1200.81 473.146ZM1199.57 476.25H1199.9V472.25H1199.57V476.25ZM1198.78 475.828C1225.27 499.209 1248.57 526.256 1268.67 556.976L1272.02 554.786C1251.73 523.778 1228.2 496.456 1201.43 472.829L1198.78 475.828ZM1268.69 557C1292.92 592.892 1312.67 633.286 1327.95 678.193L1331.74 676.905C1316.36 631.693 1296.45 590.974 1272 554.762L1268.69 557ZM1339.39 686.432H1501.9V682.432H1339.39V686.432ZM1513.58 672.198C1499.86 606.079 1476.42 545.649 1443.22 490.923L1439.8 492.997C1472.75 547.313 1496.04 607.312 1509.66 673.011L1513.58 672.198ZM1443.23 490.929C1442.8 490.228 1442.38 489.528 1441.96 488.829L1438.54 490.906C1438.96 491.6 1439.38 492.295 1439.8 492.991L1443.23 490.929ZM1448.87 476.25H1475.52V472.25H1448.87V476.25ZM1475.52 476.25C1558.37 476.25 1621.7 492.849 1665.77 525.768L1668.16 522.563C1623.13 488.929 1558.83 472.25 1475.52 472.25V476.25ZM1687 515.833V358.647H1683V515.833H1687ZM1679.27 347.494C1621.91 326.479 1553.98 316 1475.52 316V320C1553.64 320 1621.08 330.435 1677.89 351.25L1679.27 347.494ZM1475.52 316H1281.15V320H1475.52V316ZM1276.57 314.569C1240.82 290.008 1202.02 269.501 1160.16 253.045L1158.7 256.767C1200.28 273.116 1238.81 293.483 1274.3 317.866L1276.57 314.569ZM1151 57V245.523H1155V57H1151ZM590.298 1611.71C579.349 1604.88 568.673 1597.71 558.269 1590.23L555.932 1593.47C566.408 1601.01 577.157 1608.22 588.179 1615.11L590.298 1611.71ZM928.727 1702.32C800.266 1702.32 687.478 1672.1 590.294 1611.71L588.183 1615.11C686.075 1675.93 799.613 1706.32 928.727 1706.32V1702.32ZM956.449 1701.84C947.295 1702.16 938.055 1702.32 928.727 1702.32V1706.32C938.1 1706.32 947.386 1706.16 956.586 1705.84L956.449 1701.84ZM969 1772.55V1713.9H965V1772.55H969ZM969 1864V1772.55H965V1864H969ZM1143 1872H977V1876H1143V1872ZM1151 1782.55V1864H1155V1782.55H1151ZM1492.57 1770.55H1163V1774.55H1492.57V1770.55ZM1676.95 1751.76C1623.46 1764.28 1562 1770.55 1492.57 1770.55V1774.55C1562.23 1774.55 1624 1768.26 1677.86 1755.65L1676.95 1751.76ZM1683 1599.18V1744.06H1687V1599.18H1683ZM1492.57 1618.3C1565.4 1618.3 1625.04 1609.4 1671.39 1591.51L1669.95 1587.78C1624.22 1605.43 1565.12 1614.3 1492.57 1614.3V1618.3ZM1297.59 1618.3H1492.57V1614.3H1297.59V1618.3ZM1444.04 1424.92C1404.65 1493.76 1353.49 1550.51 1290.57 1595.21L1292.89 1598.47C1356.3 1553.43 1407.84 1496.23 1447.51 1426.9L1444.04 1424.92ZM1520.48 1113.41C1520.48 1232.91 1494.97 1336.72 1444.04 1424.91L1447.5 1426.91C1498.84 1338.02 1524.48 1233.49 1524.48 1113.41H1520.48ZM1666.83 1147.21C1626 1124.72 1578.67 1112.07 1524.88 1109.23L1524.67 1113.23C1577.95 1116.04 1624.67 1128.55 1664.9 1150.72L1666.83 1147.21ZM1670.34 1149.14C1669.17 1148.49 1668 1147.85 1666.82 1147.21L1664.91 1150.73C1666.08 1151.36 1667.24 1151.99 1668.4 1152.64L1670.34 1149.14ZM1683 899.7V1141.99H1687V899.7H1683ZM1614.18 927.755C1634.14 918.101 1652.21 906.622 1668.36 893.315L1665.81 890.228C1649.92 903.321 1632.13 914.63 1612.44 924.154L1614.18 927.755ZM1475.92 959.159C1526.8 958.391 1572.9 947.933 1614.19 927.751L1612.43 924.158C1571.73 944.054 1526.22 954.399 1475.86 955.159L1475.92 959.159ZM1200.08 959.159H1475.89V955.159H1200.08V959.159ZM977 959H1199.92V955H977V959ZM969 1104V967H965V1104H969ZM1199.7 1112H977V1116H1199.7V1112ZM1341.75 1111.41H1200.3V1115.41H1341.75V1111.41ZM1299.8 1335.25C1333.02 1274.49 1350.96 1203.94 1353.66 1123.66L1349.67 1123.52C1346.98 1203.28 1329.17 1273.2 1296.29 1333.33L1299.8 1335.25ZM1149.88 1488.02C1214.13 1451.85 1264.11 1400.91 1299.8 1335.24L1296.29 1333.33C1260.95 1398.35 1211.5 1448.74 1147.92 1484.54L1149.88 1488.02ZM1144.96 1490.73C1146.61 1489.84 1148.24 1488.94 1149.87 1488.02L1147.92 1484.53C1146.31 1485.44 1144.69 1486.33 1143.06 1487.21L1144.96 1490.73ZM1144.55 1490.94L1144.78 1490.84L1143.2 1487.17L1142.97 1487.27L1144.55 1490.94ZM1144.12 1491.18C1144.31 1491.08 1144.51 1490.97 1144.71 1490.86L1142.81 1487.34C1142.61 1487.45 1142.42 1487.56 1142.22 1487.66L1144.12 1491.18ZM967.409 1539.96C1040.61 1529.27 1079.97 1518.7 1143.9 1491.22L1142.32 1487.55C1078.75 1514.87 1039.73 1525.36 966.831 1536L967.409 1539.96ZM928.727 1541.55C941.726 1541.55 954.487 1541.11 967.008 1540.25L966.734 1536.26C954.307 1537.12 941.638 1537.55 928.727 1537.55V1541.55ZM684.778 1474.49C757.084 1519.2 838.418 1541.55 928.727 1541.55V1537.55C839.112 1537.55 758.515 1515.38 686.881 1471.08L684.778 1474.49ZM570.61 1370.88C603.238 1413.05 641.294 1447.59 684.778 1474.49L686.881 1471.08C643.823 1444.46 606.121 1410.24 573.774 1368.43L570.61 1370.88ZM555 1583.8V1375.86H551V1583.8H555ZM573.774 1368.43C570.159 1363.76 564.435 1362.71 559.721 1364.22C554.996 1365.73 551 1369.9 551 1375.86H555C555 1371.93 557.578 1369.1 560.938 1368.03C564.309 1366.95 568.181 1367.74 570.61 1370.88L573.774 1368.43ZM965 1538.12C965 1537.14 965.756 1536.33 966.734 1536.26L967.008 1540.25C968.131 1540.18 969 1539.24 969 1538.12H965ZM1199.7 1116C1200.97 1116 1202 1114.97 1202 1113.7H1198C1198 1112.76 1198.76 1112 1199.7 1112V1116ZM965 1104C965 1110.63 970.373 1116 977 1116V1112C972.582 1112 969 1108.42 969 1104H965ZM1200.08 955.159C1201.14 955.159 1202 956.019 1202 957.08H1198C1198 958.228 1198.93 959.159 1200.08 959.159V955.159ZM1524.48 1113.41C1524.48 1113.3 1524.57 1113.22 1524.67 1113.23L1524.88 1109.23C1522.49 1109.1 1520.48 1111.01 1520.48 1113.41H1524.48ZM1297.59 1614.3C1293.59 1614.3 1290.75 1611.63 1289.72 1608.19C1288.69 1604.73 1289.59 1600.82 1292.89 1598.47L1290.57 1595.21C1285.65 1598.71 1284.45 1604.51 1285.89 1609.33C1287.33 1614.15 1291.52 1618.3 1297.59 1618.3V1614.3ZM1687 1599.18C1687 1590.41 1677.97 1584.69 1669.95 1587.78L1671.39 1591.51C1676.95 1589.37 1683 1593.39 1683 1599.18H1687ZM1677.86 1755.65C1683.25 1754.39 1687 1749.56 1687 1744.06H1683C1683 1747.74 1680.5 1750.93 1676.95 1751.76L1677.86 1755.65ZM1155 1782.55C1155 1778.13 1158.58 1774.55 1163 1774.55V1770.55C1156.37 1770.55 1151 1775.92 1151 1782.55H1155ZM1143 1876C1149.63 1876 1155 1870.63 1155 1864H1151C1151 1868.42 1147.42 1872 1143 1872V1876ZM965 1864C965 1870.63 970.373 1876 977 1876V1872C972.582 1872 969 1868.42 969 1864H965ZM956.586 1705.84C961.181 1705.68 965 1709.34 965 1713.9H969C969 1707.04 963.269 1701.61 956.449 1701.84L956.586 1705.84ZM558.269 1590.23C556.213 1588.75 555 1586.35 555 1583.8H551C551 1587.62 552.817 1591.23 555.932 1593.47L558.269 1590.23ZM1687 358.647C1687 353.693 1683.96 349.212 1679.27 347.494L1677.89 351.25C1680.97 352.376 1683 355.331 1683 358.647H1687ZM1501.9 686.432C1509.4 686.432 1515.11 679.598 1513.58 672.198L1509.66 673.011C1510.67 677.876 1506.92 682.432 1501.9 682.432V686.432ZM1327.95 678.193C1329.61 683.086 1334.19 686.432 1339.39 686.432V682.432C1335.93 682.432 1332.86 680.204 1331.74 676.905L1327.95 678.193ZM966.831 1536C965.81 1536.15 965 1537.03 965 1538.12H969C969 1539.07 968.294 1539.83 967.409 1539.96L966.831 1536ZM1199.9 476.25C1199.49 476.25 1199.09 476.1 1198.78 475.828L1201.43 472.829C1201 472.456 1200.46 472.25 1199.9 472.25V476.25ZM1145.14 1489.4C1145.14 1487.89 1143.59 1487 1142.32 1487.55L1143.9 1491.22C1142.65 1491.76 1141.14 1490.89 1141.14 1489.4H1145.14ZM1200.51 472.961C1202.02 473.908 1201.36 476.25 1199.57 476.25V472.25C1197.33 472.25 1196.51 475.168 1198.39 476.349L1200.51 472.961ZM1142.22 1487.66C1143.54 1486.95 1145.14 1487.91 1145.14 1489.4H1141.14C1141.14 1490.93 1142.77 1491.91 1144.12 1491.18L1142.22 1487.66ZM1199.88 477.019C1201.88 476.84 1202.51 474.218 1200.81 473.146L1198.68 476.532C1197.14 475.564 1197.71 473.196 1199.52 473.035L1199.88 477.019ZM1198.66 476.755C1199.02 476.96 1199.44 477.057 1199.88 477.019L1199.52 473.035C1199.91 473 1200.3 473.087 1200.62 473.272L1198.66 476.755ZM1142 1488.99C1142 1488.2 1142.47 1487.48 1143.2 1487.17L1144.78 1490.84C1145.52 1490.52 1146 1489.79 1146 1488.99H1142ZM968.427 378.91C967.962 379.455 967.237 379.651 966.588 379.463L967.702 375.621C966.879 375.383 965.962 375.633 965.38 376.317L968.427 378.91ZM1341.75 1115.41C1346.23 1115.41 1349.81 1119.08 1349.67 1123.52L1353.66 1123.66C1353.89 1116.92 1348.45 1111.41 1341.75 1111.41V1115.41ZM965 377.275C965 378.174 965.595 378.964 966.459 379.212L967.564 375.368C968.414 375.612 969 376.39 969 377.275H965ZM1202 1113.7C1202 1114.65 1201.24 1115.41 1200.3 1115.41V1111.41C1199.03 1111.41 1198 1112.44 1198 1113.7H1202ZM966.66 378.977C965.718 378.89 965 378.1 965 377.157H969C969 376.036 968.146 375.096 967.026 374.994L966.66 378.977ZM1143.06 1487.21C1142.41 1487.56 1142 1488.24 1142 1488.99H1146C1146 1489.71 1145.6 1490.38 1144.96 1490.73L1143.06 1487.21ZM964.572 378.044C964.966 379.801 967.198 380.353 968.366 378.981L965.319 376.389C966.291 375.248 968.148 375.707 968.475 377.169L964.572 378.044ZM1665.77 525.768C1669.97 528.907 1675.27 529.026 1679.47 527.127C1683.68 525.221 1687 521.173 1687 515.833H1683C1683 519.344 1680.85 522.111 1677.82 523.482C1674.77 524.86 1671.05 524.721 1668.16 522.563L1665.77 525.768ZM965 200.963C965 205.587 961.078 209.271 956.42 209.023L956.208 213.018C963.115 213.384 969 207.92 969 200.963H965ZM1160.16 253.045C1157.05 251.822 1155 248.839 1155 245.523H1151C1151 250.51 1154.08 254.952 1158.7 256.767L1160.16 253.045ZM977 955C970.373 955 965 960.373 965 967H969C969 962.582 972.582 959 977 959V955ZM551 536.494C551 542.455 555.006 546.631 559.738 548.136C564.459 549.638 570.189 548.58 573.797 543.893L570.627 541.453C568.203 544.603 564.327 545.399 560.95 544.324C557.584 543.253 555 540.422 555 536.494H551ZM965.473 375.777C964.595 376.34 964.408 377.312 964.563 378.001L968.466 377.126C968.603 377.737 968.442 378.625 967.631 379.145L965.473 375.777ZM1687 899.7C1687 888.9 1673.86 883.6 1665.81 890.228L1668.36 893.315C1674.08 888.596 1683 892.654 1683 899.7H1687ZM1143 49C1147.42 49 1151 52.5817 1151 57H1155C1155 50.3726 1149.63 45 1143 45V49ZM1281.15 316C1279.52 316 1277.92 315.499 1276.57 314.569L1274.3 317.866C1276.31 319.247 1278.7 320 1281.15 320V316ZM1202 957.08C1202 955.931 1201.07 955 1199.92 955V959C1198.86 959 1198 958.14 1198 957.08H1202ZM555.908 319.945C552.806 322.189 551 325.788 551 329.597H555C555 327.052 556.206 324.666 558.252 323.186L555.908 319.945ZM966.459 379.212C965.386 378.904 964.967 377.903 965.03 377.143C965.092 376.389 965.656 375.487 966.74 375.34L967.278 379.304C968.379 379.155 968.953 378.24 969.016 377.471C969.08 376.697 968.654 375.681 967.564 375.368L966.459 379.212ZM1441.96 488.829C1438.62 483.329 1442.55 476.25 1448.87 476.25V472.25C1439.32 472.25 1433.63 482.833 1438.54 490.906L1441.96 488.829ZM1668.4 1152.64C1676.53 1157.17 1687 1151.5 1687 1141.99H1683C1683 1148.26 1675.98 1152.28 1670.34 1149.14L1668.4 1152.64ZM977 45C970.373 45 965 50.3726 965 57H969C969 52.5817 972.582 49 977 49V45Z" fill="black" mask="url(#path-3-inside-2_29_279)"/>
<mask id="path-5-inside-3_29_279" fill="white">
<path fill-rule="evenodd" clip-rule="evenodd" d="M535.344 1367.49C537.043 1369.35 538 1371.78 538 1374.3V1579.55C538 1579.94 537.576 1580.18 537.239 1579.99V1579.99C440.174 1522.79 364.417 1441.47 309.966 1336.02C255.989 1230.57 229 1105.45 229 960.681C229 852.102 244.388 754.47 275.165 667.785C306.415 580.654 350.449 506.48 407.267 445.265C441.98 407.865 480.582 375.802 523.071 349.077C529.616 344.96 538 349.741 538 357.472V545.123C538 547.638 537.049 550.057 535.359 551.92C507.274 582.881 482.806 618.822 461.955 659.742C420.288 741.512 399.455 841.825 399.455 960.681C399.455 1079.54 420.525 1179.85 462.665 1261.62C483.311 1301.68 507.537 1336.97 535.344 1367.49Z"/>
</mask>
<path fill-rule="evenodd" clip-rule="evenodd" d="M535.344 1367.49C537.043 1369.35 538 1371.78 538 1374.3V1579.55C538 1579.94 537.576 1580.18 537.239 1579.99V1579.99C440.174 1522.79 364.417 1441.47 309.966 1336.02C255.989 1230.57 229 1105.45 229 960.681C229 852.102 244.388 754.47 275.165 667.785C306.415 580.654 350.449 506.48 407.267 445.265C441.98 407.865 480.582 375.802 523.071 349.077C529.616 344.96 538 349.741 538 357.472V545.123C538 547.638 537.049 550.057 535.359 551.92C507.274 582.881 482.806 618.822 461.955 659.742C420.288 741.512 399.455 841.825 399.455 960.681C399.455 1079.54 420.525 1179.85 462.665 1261.62C483.311 1301.68 507.537 1336.97 535.344 1367.49Z" fill="url(#paint1_linear_29_279)"/>
<path d="M309.966 1336.02L308.186 1336.93L308.189 1336.93L309.966 1336.02ZM275.165 667.785L273.282 667.11L273.28 667.116L275.165 667.785ZM407.267 445.265L408.733 446.625L408.733 446.625L407.267 445.265ZM461.955 659.742L463.737 660.65L463.737 660.65L461.955 659.742ZM462.665 1261.62L460.887 1262.54L460.887 1262.54L462.665 1261.62ZM535.359 551.92L536.84 553.264L535.359 551.92ZM535.344 1367.49L536.822 1366.14L535.344 1367.49ZM536 1374.3V1579.55H540V1374.3H536ZM538.254 1578.26C441.532 1521.27 366.03 1440.24 311.743 1335.1L308.189 1336.93C362.803 1442.7 438.816 1524.31 536.223 1581.71L538.254 1578.26ZM311.746 1335.11C257.942 1229.99 231 1105.21 231 960.681H227C227 1105.7 254.035 1231.14 308.186 1336.93L311.746 1335.11ZM231 960.681C231 852.29 246.362 754.889 277.05 668.454L273.28 667.116C242.415 754.051 227 851.914 227 960.681H231ZM277.047 668.46C308.216 581.556 352.117 507.622 408.733 446.625L405.801 443.904C348.78 505.338 304.613 579.752 273.282 667.11L277.047 668.46ZM408.733 446.625C443.329 409.351 481.796 377.401 524.136 350.77L522.006 347.384C479.367 374.204 440.631 406.379 405.801 443.904L408.733 446.625ZM536 357.472V545.123H540V357.472H536ZM533.878 550.576C505.663 581.681 481.097 617.771 460.173 658.834L463.737 660.65C484.515 619.872 508.886 584.081 536.84 553.264L533.878 550.576ZM460.173 658.834C418.327 740.956 397.455 841.599 397.455 960.681H401.455C401.455 842.051 422.249 742.068 463.737 660.65L460.173 658.834ZM397.455 960.681C397.455 1079.77 418.564 1180.41 460.887 1262.54L464.443 1260.7C422.485 1179.29 401.455 1079.31 401.455 960.681H397.455ZM460.887 1262.54C481.606 1302.74 505.93 1338.18 533.865 1368.84L536.822 1366.14C509.144 1335.77 485.016 1300.62 464.443 1260.7L460.887 1262.54ZM536 545.123C536 547.132 535.24 549.074 533.878 550.576L536.84 553.264C538.857 551.04 540 548.144 540 545.123H536ZM524.136 350.77C529.303 347.519 536 351.26 536 357.472H540C540 348.221 529.928 342.401 522.006 347.384L524.136 350.77ZM536 1579.55C536 1578.4 537.252 1577.68 538.251 1578.26L536.227 1581.71C537.9 1582.69 540 1581.48 540 1579.55H536ZM540 1374.3C540 1371.27 538.85 1368.37 536.822 1366.14L533.865 1368.84C535.235 1370.34 536 1372.29 536 1374.3H540Z" fill="black" mask="url(#path-5-inside-3_29_279)"/>
<mask id="path-7-inside-4_29_279" fill="white">
<path fill-rule="evenodd" clip-rule="evenodd" d="M1700 1737.22C1700 1743.72 1706.1 1748.49 1712.37 1746.78C1739.3 1739.43 1764.07 1730.38 1786.69 1719.62C1858.18 1685.63 1910.5 1639.6 1943.65 1581.53C1976.79 1523.47 1993.36 1458.08 1993.36 1385.38C1993.36 1308.9 1978.21 1244.22 1947.91 1191.34C1917.61 1138.47 1879.96 1097.87 1834.98 1069.54C1792.62 1042.86 1750.47 1027.49 1708.53 1023.43C1704.16 1023 1700.75 1019.39 1700.75 1015V1015C1700.75 1011.24 1703.27 1007.96 1706.87 1006.92C1746.2 995.576 1782.75 978.68 1816.52 956.235C1852.5 932.63 1881.38 900.527 1903.16 859.926C1925.42 819.325 1936.55 767.866 1936.55 705.549C1936.55 634.733 1920.45 570.292 1888.25 512.223C1856.05 453.682 1807.05 407.18 1741.23 372.717C1732.31 367.981 1723.06 363.566 1713.49 359.473C1707.04 356.714 1700 361.541 1700 368.558V538.178C1700 540.131 1700.79 541.996 1702.17 543.382V543.382C1746.68 587.759 1768.93 641.815 1768.93 705.549C1768.93 756.536 1756.15 800.913 1730.58 838.682C1722.32 851.106 1713.1 862.61 1702.89 873.195C1701.06 875.101 1700 877.634 1700 880.281V1154.53C1700 1157.96 1701.77 1161.14 1704.63 1163.02C1739.65 1186.08 1767.48 1214.87 1788.11 1249.41C1813.2 1290.96 1825.75 1336.28 1825.75 1385.38C1825.75 1449.11 1801.37 1503.4 1752.6 1548.25C1739.47 1560.31 1723.88 1570.73 1705.83 1579.51C1702.3 1581.23 1700 1584.77 1700 1588.7V1737.22Z"/>
</mask>
<path fill-rule="evenodd" clip-rule="evenodd" d="M1700 1737.22C1700 1743.72 1706.1 1748.49 1712.37 1746.78C1739.3 1739.43 1764.07 1730.38 1786.69 1719.62C1858.18 1685.63 1910.5 1639.6 1943.65 1581.53C1976.79 1523.47 1993.36 1458.08 1993.36 1385.38C1993.36 1308.9 1978.21 1244.22 1947.91 1191.34C1917.61 1138.47 1879.96 1097.87 1834.98 1069.54C1792.62 1042.86 1750.47 1027.49 1708.53 1023.43C1704.16 1023 1700.75 1019.39 1700.75 1015V1015C1700.75 1011.24 1703.27 1007.96 1706.87 1006.92C1746.2 995.576 1782.75 978.68 1816.52 956.235C1852.5 932.63 1881.38 900.527 1903.16 859.926C1925.42 819.325 1936.55 767.866 1936.55 705.549C1936.55 634.733 1920.45 570.292 1888.25 512.223C1856.05 453.682 1807.05 407.18 1741.23 372.717C1732.31 367.981 1723.06 363.566 1713.49 359.473C1707.04 356.714 1700 361.541 1700 368.558V538.178C1700 540.131 1700.79 541.996 1702.17 543.382V543.382C1746.68 587.759 1768.93 641.815 1768.93 705.549C1768.93 756.536 1756.15 800.913 1730.58 838.682C1722.32 851.106 1713.1 862.61 1702.89 873.195C1701.06 875.101 1700 877.634 1700 880.281V1154.53C1700 1157.96 1701.77 1161.14 1704.63 1163.02C1739.65 1186.08 1767.48 1214.87 1788.11 1249.41C1813.2 1290.96 1825.75 1336.28 1825.75 1385.38C1825.75 1449.11 1801.37 1503.4 1752.6 1548.25C1739.47 1560.31 1723.88 1570.73 1705.83 1579.51C1702.3 1581.23 1700 1584.77 1700 1588.7V1737.22Z" fill="url(#paint2_linear_29_279)"/>
<path d="M1786.69 1719.62L1785.83 1717.82L1785.83 1717.82L1786.69 1719.62ZM1943.65 1581.53L1941.91 1580.54L1941.91 1580.54L1943.65 1581.53ZM1947.91 1191.34L1949.64 1190.35L1949.64 1190.35L1947.91 1191.34ZM1834.98 1069.54L1833.92 1071.23L1833.92 1071.23L1834.98 1069.54ZM1816.52 956.235L1815.42 954.563L1815.41 954.57L1816.52 956.235ZM1903.16 859.926L1901.41 858.965L1901.41 858.973L1901.4 858.981L1903.16 859.926ZM1888.25 512.223L1886.5 513.187L1886.5 513.193L1888.25 512.223ZM1741.23 372.717L1740.3 374.483L1740.31 374.489L1741.23 372.717ZM1730.58 838.682L1728.92 837.56L1728.92 837.568L1728.91 837.575L1730.58 838.682ZM1788.11 1249.41L1786.39 1250.44L1786.4 1250.44L1788.11 1249.41ZM1752.6 1548.25L1753.95 1549.72L1753.95 1549.72L1752.6 1548.25ZM1704.63 1163.02L1703.53 1164.69L1704.63 1163.02ZM1702.89 873.195L1701.45 871.807L1702.89 873.195ZM1706.87 1006.92L1706.32 1005L1706.87 1006.92ZM1708.53 1023.43L1708.34 1025.42L1708.53 1023.43ZM1705.83 1579.51L1706.71 1581.31L1705.83 1579.51ZM1712.37 1746.78L1712.9 1748.71L1712.37 1746.78ZM1785.83 1717.82C1763.33 1728.51 1738.67 1737.53 1711.84 1744.85L1712.9 1748.71C1739.93 1741.33 1764.81 1732.24 1787.55 1721.43L1785.83 1717.82ZM1941.91 1580.54C1909 1638.2 1857.03 1683.97 1785.83 1717.82L1787.55 1721.43C1859.34 1687.3 1912 1641.01 1945.38 1582.53L1941.91 1580.54ZM1991.36 1385.38C1991.36 1457.76 1974.87 1522.8 1941.91 1580.54L1945.38 1582.53C1978.72 1524.13 1995.36 1458.4 1995.36 1385.38H1991.36ZM1946.17 1192.34C1976.26 1244.84 1991.36 1309.16 1991.36 1385.38H1995.36C1995.36 1308.63 1980.16 1243.59 1949.64 1190.35L1946.17 1192.34ZM1833.92 1071.23C1878.58 1099.36 1916.01 1139.7 1946.17 1192.34L1949.64 1190.35C1919.2 1137.23 1881.34 1096.37 1836.05 1067.85L1833.92 1071.23ZM1708.34 1025.42C1749.91 1029.45 1791.77 1044.69 1833.92 1071.23L1836.05 1067.85C1793.47 1041.04 1751.03 1025.54 1708.72 1021.44L1708.34 1025.42ZM1815.41 954.57C1781.82 976.9 1745.45 993.71 1706.32 1005L1707.43 1008.84C1746.95 997.441 1783.69 980.46 1817.62 957.901L1815.41 954.57ZM1901.4 858.981C1879.77 899.309 1851.11 931.154 1815.42 954.563L1817.61 957.908C1853.9 934.106 1883 901.745 1904.93 860.872L1901.4 858.981ZM1934.55 705.549C1934.55 767.642 1923.46 818.743 1901.41 858.965L1904.92 860.888C1927.38 819.908 1938.55 768.091 1938.55 705.549H1934.55ZM1886.5 513.193C1918.52 570.945 1934.55 635.049 1934.55 705.549H1938.55C1938.55 634.417 1922.37 569.638 1890 511.253L1886.5 513.193ZM1740.31 374.489C1805.81 408.791 1854.51 455.029 1886.5 513.187L1890 511.259C1857.6 452.336 1808.28 405.57 1742.16 370.945L1740.31 374.489ZM1712.7 361.312C1722.23 365.384 1731.42 369.775 1740.3 374.483L1742.17 370.95C1733.2 366.188 1723.9 361.749 1714.28 357.634L1712.7 361.312ZM1702 538.178V368.558H1698V538.178H1702ZM1770.93 705.549C1770.93 641.292 1748.47 586.724 1703.58 541.965L1700.76 544.798C1744.88 588.795 1766.93 642.338 1766.93 705.549H1770.93ZM1732.24 839.803C1758.05 801.665 1770.93 756.887 1770.93 705.549H1766.93C1766.93 756.185 1754.24 800.162 1728.92 837.56L1732.24 839.803ZM1704.33 874.583C1714.62 863.91 1723.92 852.311 1732.25 839.789L1728.91 837.575C1720.72 849.9 1711.57 861.31 1701.45 871.807L1704.33 874.583ZM1702 1154.53V880.281H1698V1154.53H1702ZM1703.53 1164.69C1738.31 1187.59 1765.92 1216.17 1786.39 1250.44L1789.82 1248.39C1769.04 1213.58 1740.99 1184.56 1705.73 1161.35L1703.53 1164.69ZM1786.4 1250.44C1811.3 1291.67 1823.75 1336.64 1823.75 1385.38H1827.75C1827.75 1335.92 1815.11 1290.24 1789.82 1248.38L1786.4 1250.44ZM1823.75 1385.38C1823.75 1448.53 1799.62 1502.29 1751.24 1546.78L1753.95 1549.72C1803.11 1504.51 1827.75 1449.69 1827.75 1385.38H1823.75ZM1751.24 1546.78C1738.28 1558.69 1722.86 1569.01 1704.96 1577.72L1706.71 1581.31C1724.91 1572.46 1740.67 1561.93 1753.95 1549.72L1751.24 1546.78ZM1702 1737.22V1588.7H1698V1737.22H1702ZM1698 1154.53C1698 1158.65 1700.12 1162.45 1703.53 1164.69L1705.73 1161.35C1703.41 1159.82 1702 1157.26 1702 1154.53H1698ZM1698 538.178C1698 540.677 1699.02 543.043 1700.75 544.791L1703.59 541.973C1702.57 540.948 1702 539.585 1702 538.178H1698ZM1714.28 357.634C1706.45 354.287 1698 360.166 1698 368.558H1702C1702 362.916 1707.63 359.14 1712.7 361.312L1714.28 357.634ZM1701.45 871.807C1699.27 874.073 1698 877.098 1698 880.281H1702C1702 878.169 1702.84 876.129 1704.33 874.583L1701.45 871.807ZM1702.75 1015C1702.75 1012.15 1704.66 1009.64 1707.43 1008.84L1706.32 1005C1701.87 1006.28 1698.75 1010.33 1698.75 1015H1702.75ZM1708.72 1021.44C1705.34 1021.11 1702.75 1018.31 1702.75 1015H1698.75C1698.75 1020.46 1702.98 1024.9 1708.34 1025.42L1708.72 1021.44ZM1704.96 1577.72C1700.77 1579.75 1698 1583.98 1698 1588.7H1702C1702 1585.57 1703.84 1582.71 1706.71 1581.31L1704.96 1577.72ZM1711.84 1744.85C1706.88 1746.21 1702 1742.43 1702 1737.22H1698C1698 1745 1705.32 1750.78 1712.9 1748.71L1711.84 1744.85Z" fill="black" mask="url(#path-7-inside-4_29_279)"/>
<defs>
<linearGradient id="paint0_linear_29_279" x1="1119" y1="47" x2="1119" y2="1874" gradientUnits="userSpaceOnUse">
<stop stop-color="#924FE9"/>
<stop offset="1" stop-color="#C29EE7"/>
</linearGradient>
<linearGradient id="paint1_linear_29_279" x1="383.5" y1="347.564" x2="383.5" y2="1580.06" gradientUnits="userSpaceOnUse">
<stop stop-color="#FF00C7"/>
<stop offset="1" stop-color="#C29EE7"/>
</linearGradient>
<linearGradient id="paint2_linear_29_279" x1="1846.68" y1="358.684" x2="1846.68" y2="1747.13" gradientUnits="userSpaceOnUse">
<stop stop-color="#FF00C7"/>
<stop offset="1" stop-color="#C29EE7"/>
</linearGradient>
</defs>
</svg>
