<svg width="2300" height="2300" viewBox="0 0 2300 2300" fill="none" xmlns="http://www.w3.org/2000/svg">
<mask id="path-1-inside-1_33_365" fill="white">
<path fill-rule="evenodd" clip-rule="evenodd" d="M1153 57C1153 51.4772 1148.52 47 1143 47H977C971.477 47 967 51.4772 967 57V200.963C967 206.754 962.097 211.327 956.314 211.021C943.483 210.34 930.5 210 917.364 210C824.087 210 738.623 227.282 660.972 261.847C623.977 278.314 589.346 298.22 557.08 321.566C554.506 323.428 553 326.42 553 329.597V536.493C553 546.383 566.18 550.509 572.212 542.673C603.845 501.583 640.533 467.87 682.278 441.534C752.828 397.027 831.189 374.773 917.364 374.773C934.299 374.773 950.793 375.51 966.843 376.985C966.932 376.993 967 377.068 967 377.157V377.275C967 377.282 967.005 377.288 967.011 377.29C967.028 377.295 967.026 377.32 967.009 377.322C966.807 377.35 966.654 377.396 966.552 377.461C966.518 377.483 966.505 377.524 966.514 377.563L966.524 377.606C966.557 377.754 966.745 377.8 966.843 377.685L966.904 377.613C966.962 377.544 967.058 377.517 967.145 377.542C1064.82 405.85 1115.57 427.523 1199.64 475.014C1199.66 475.024 1199.68 475.029 1199.7 475.027C1199.8 475.018 1199.83 474.891 1199.74 474.839L1199.45 474.655C1199.26 474.538 1199.35 474.25 1199.57 474.25H1199.9C1199.93 474.25 1199.96 474.255 1199.99 474.265C1200.03 474.278 1200.07 474.299 1200.1 474.328C1226.74 497.833 1250.15 525.017 1270.35 555.881C1294.68 591.933 1314.51 632.489 1329.84 677.549C1331.23 681.645 1335.06 684.432 1339.39 684.432H1501.9C1508.16 684.432 1512.89 678.737 1511.62 672.605C1497.95 606.696 1474.58 546.481 1441.51 491.96C1441.09 491.261 1440.67 490.564 1440.25 489.867C1436.13 483.081 1440.93 474.25 1448.87 474.25H1475.52C1558.6 474.25 1622.42 490.889 1666.96 524.166C1674.05 529.462 1685 524.684 1685 515.833V358.647C1685 354.512 1682.46 350.794 1678.58 349.372C1621.49 328.457 1553.81 318 1475.52 318H1281.15C1279.11 318 1277.12 317.373 1275.43 316.217C1239.82 291.746 1201.15 271.309 1159.43 254.906C1155.57 253.387 1153 249.674 1153 245.523V57ZM553 1583.8C553 1586.99 554.515 1589.99 557.101 1591.85C567.54 1599.36 578.253 1606.55 589.239 1613.41C686.776 1674.02 799.939 1704.32 928.727 1704.32C938.078 1704.32 947.341 1704.16 956.518 1703.84C962.225 1703.65 967 1708.19 967 1713.9V1772.55V1864C967 1869.52 971.477 1874 977 1874H1143C1148.52 1874 1153 1869.52 1153 1864V1782.55C1153 1777.02 1157.48 1772.55 1163 1772.55H1492.57C1562.12 1772.55 1623.73 1766.27 1677.4 1753.71C1681.88 1752.66 1685 1748.65 1685 1744.06V1599.18C1685 1591.9 1677.46 1587.03 1670.67 1589.65C1624.63 1607.41 1565.26 1616.3 1492.57 1616.3H1297.59C1287.52 1616.3 1283.51 1602.68 1291.73 1596.84C1354.89 1551.97 1406.24 1494.99 1445.77 1425.91C1496.91 1337.37 1522.48 1233.2 1522.48 1113.41C1522.48 1112.16 1523.53 1111.16 1524.78 1111.23C1578.31 1114.06 1625.34 1126.63 1665.86 1148.97C1667.04 1149.6 1668.21 1150.24 1669.37 1150.89C1676.26 1154.72 1685 1149.88 1685 1141.99V899.7C1685 890.777 1673.97 886.098 1667.08 891.772C1651.06 904.972 1633.14 916.366 1613.31 925.955C1572.32 945.993 1526.51 956.395 1475.89 957.159H1200.08C1200.04 957.159 1200 957.123 1200 957.08C1200 957.036 1199.96 957 1199.92 957H977C971.477 957 967 961.477 967 967V1104C967 1109.52 971.477 1114 977 1114H1199.7C1199.87 1114 1200 1113.87 1200 1113.7C1200 1113.54 1200.13 1113.41 1200.3 1113.41H1341.75C1347.34 1113.41 1351.85 1118 1351.66 1123.59C1348.97 1203.61 1331.1 1273.84 1298.05 1334.29C1262.53 1399.63 1212.82 1450.29 1148.9 1486.28C1147.28 1487.19 1145.65 1488.08 1144.01 1488.97C1144 1488.97 1144 1488.98 1144 1488.99C1144 1488.99 1144 1489 1143.99 1489.01L1143.76 1489.1C1143.56 1489.21 1143.37 1489.32 1143.17 1489.42C1143.16 1489.42 1143.16 1489.43 1143.16 1489.43C1143.15 1489.43 1143.14 1489.42 1143.14 1489.4C1143.14 1489.39 1143.12 1489.38 1143.11 1489.38C1079.36 1516.78 1040.17 1527.32 967.12 1537.98C967.052 1537.99 967 1538.05 967 1538.12C967 1538.19 966.944 1538.25 966.871 1538.26C954.397 1539.12 941.682 1539.55 928.727 1539.55C838.765 1539.55 757.799 1517.29 685.83 1472.78C642.559 1446.02 604.68 1411.65 572.192 1369.66C566.148 1361.84 553 1365.98 553 1375.86V1583.8ZM467.344 1363.92C469.043 1365.79 470 1368.21 470 1370.74V1575.98C470 1576.38 469.576 1576.62 469.239 1576.42C372.174 1519.23 296.417 1437.9 241.966 1332.45C187.989 1227 161 1101.89 161 957.117C161 848.538 176.388 750.906 207.165 664.221C238.415 577.089 282.449 502.916 339.267 441.7C373.98 404.3 412.582 372.238 455.071 345.512C461.616 341.396 470 346.176 470 353.908V541.558C470 544.073 469.049 546.493 467.359 548.355C439.274 579.317 414.806 615.257 393.955 656.178C352.288 737.948 331.455 838.261 331.455 957.117C331.455 1075.97 352.525 1176.29 394.665 1258.06C415.311 1298.12 439.537 1333.41 467.344 1363.92ZM1780.37 1728.1C1774.1 1729.81 1768 1725.03 1768 1718.53V1570.01C1768 1566.09 1770.3 1562.55 1773.83 1560.83C1791.88 1552.05 1807.47 1541.63 1820.6 1529.57C1869.37 1484.72 1893.75 1430.43 1893.75 1366.69C1893.75 1317.59 1881.2 1272.27 1856.11 1230.73C1835.48 1196.19 1807.65 1167.39 1772.63 1144.34C1769.77 1142.45 1768 1139.27 1768 1135.84V861.597C1768 858.95 1769.06 856.417 1770.89 854.511C1781.1 843.926 1790.32 832.422 1798.58 819.998C1824.15 782.229 1836.93 737.852 1836.93 686.865C1836.93 623.131 1814.68 569.075 1770.17 524.698C1768.79 523.311 1768 521.447 1768 519.494V349.874C1768 342.857 1775.04 338.03 1781.49 340.789C1791.06 344.882 1800.31 349.297 1809.23 354.033C1875.05 388.496 1924.05 434.998 1956.25 493.539C1988.45 551.607 2004.55 616.049 2004.55 686.865C2004.55 749.182 1993.42 800.641 1971.16 841.242C1949.38 881.843 1920.5 913.946 1884.52 937.551C1850.75 959.996 1814.2 976.892 1774.87 988.239C1771.27 989.279 1768.75 992.559 1768.75 996.312C1768.75 1000.7 1772.16 1004.32 1776.53 1004.74C1818.47 1008.81 1860.62 1024.18 1902.98 1050.86C1947.96 1079.18 1985.61 1119.78 2015.91 1172.66C2046.21 1225.53 2061.36 1290.21 2061.36 1366.69C2061.36 1439.4 2044.79 1504.78 2011.65 1562.85C1978.5 1620.92 1926.18 1666.95 1854.69 1700.94C1832.07 1711.69 1807.3 1720.74 1780.37 1728.1Z"/>
</mask>
<path fill-rule="evenodd" clip-rule="evenodd" d="M1153 57C1153 51.4772 1148.52 47 1143 47H977C971.477 47 967 51.4772 967 57V200.963C967 206.754 962.097 211.327 956.314 211.021C943.483 210.34 930.5 210 917.364 210C824.087 210 738.623 227.282 660.972 261.847C623.977 278.314 589.346 298.22 557.08 321.566C554.506 323.428 553 326.42 553 329.597V536.493C553 546.383 566.18 550.509 572.212 542.673C603.845 501.583 640.533 467.87 682.278 441.534C752.828 397.027 831.189 374.773 917.364 374.773C934.299 374.773 950.793 375.51 966.843 376.985C966.932 376.993 967 377.068 967 377.157V377.275C967 377.282 967.005 377.288 967.011 377.29C967.028 377.295 967.026 377.32 967.009 377.322C966.807 377.35 966.654 377.396 966.552 377.461C966.518 377.483 966.505 377.524 966.514 377.563L966.524 377.606C966.557 377.754 966.745 377.8 966.843 377.685L966.904 377.613C966.962 377.544 967.058 377.517 967.145 377.542C1064.82 405.85 1115.57 427.523 1199.64 475.014C1199.66 475.024 1199.68 475.029 1199.7 475.027C1199.8 475.018 1199.83 474.891 1199.74 474.839L1199.45 474.655C1199.26 474.538 1199.35 474.25 1199.57 474.25H1199.9C1199.93 474.25 1199.96 474.255 1199.99 474.265C1200.03 474.278 1200.07 474.299 1200.1 474.328C1226.74 497.833 1250.15 525.017 1270.35 555.881C1294.68 591.933 1314.51 632.489 1329.84 677.549C1331.23 681.645 1335.06 684.432 1339.39 684.432H1501.9C1508.16 684.432 1512.89 678.737 1511.62 672.605C1497.95 606.696 1474.58 546.481 1441.51 491.96C1441.09 491.261 1440.67 490.564 1440.25 489.867C1436.13 483.081 1440.93 474.25 1448.87 474.25H1475.52C1558.6 474.25 1622.42 490.889 1666.96 524.166C1674.05 529.462 1685 524.684 1685 515.833V358.647C1685 354.512 1682.46 350.794 1678.58 349.372C1621.49 328.457 1553.81 318 1475.52 318H1281.15C1279.11 318 1277.12 317.373 1275.43 316.217C1239.82 291.746 1201.15 271.309 1159.43 254.906C1155.57 253.387 1153 249.674 1153 245.523V57ZM553 1583.8C553 1586.99 554.515 1589.99 557.101 1591.85C567.54 1599.36 578.253 1606.55 589.239 1613.41C686.776 1674.02 799.939 1704.32 928.727 1704.32C938.078 1704.32 947.341 1704.16 956.518 1703.84C962.225 1703.65 967 1708.19 967 1713.9V1772.55V1864C967 1869.52 971.477 1874 977 1874H1143C1148.52 1874 1153 1869.52 1153 1864V1782.55C1153 1777.02 1157.48 1772.55 1163 1772.55H1492.57C1562.12 1772.55 1623.73 1766.27 1677.4 1753.71C1681.88 1752.66 1685 1748.65 1685 1744.06V1599.18C1685 1591.9 1677.46 1587.03 1670.67 1589.65C1624.63 1607.41 1565.26 1616.3 1492.57 1616.3H1297.59C1287.52 1616.3 1283.51 1602.68 1291.73 1596.84C1354.89 1551.97 1406.24 1494.99 1445.77 1425.91C1496.91 1337.37 1522.48 1233.2 1522.48 1113.41C1522.48 1112.16 1523.53 1111.16 1524.78 1111.23C1578.31 1114.06 1625.34 1126.63 1665.86 1148.97C1667.04 1149.6 1668.21 1150.24 1669.37 1150.89C1676.26 1154.72 1685 1149.88 1685 1141.99V899.7C1685 890.777 1673.97 886.098 1667.08 891.772C1651.06 904.972 1633.14 916.366 1613.31 925.955C1572.32 945.993 1526.51 956.395 1475.89 957.159H1200.08C1200.04 957.159 1200 957.123 1200 957.08C1200 957.036 1199.96 957 1199.92 957H977C971.477 957 967 961.477 967 967V1104C967 1109.52 971.477 1114 977 1114H1199.7C1199.87 1114 1200 1113.87 1200 1113.7C1200 1113.54 1200.13 1113.41 1200.3 1113.41H1341.75C1347.34 1113.41 1351.85 1118 1351.66 1123.59C1348.97 1203.61 1331.1 1273.84 1298.05 1334.29C1262.53 1399.63 1212.82 1450.29 1148.9 1486.28C1147.28 1487.19 1145.65 1488.08 1144.01 1488.97C1144 1488.97 1144 1488.98 1144 1488.99C1144 1488.99 1144 1489 1143.99 1489.01L1143.76 1489.1C1143.56 1489.21 1143.37 1489.32 1143.17 1489.42C1143.16 1489.42 1143.16 1489.43 1143.16 1489.43C1143.15 1489.43 1143.14 1489.42 1143.14 1489.4C1143.14 1489.39 1143.12 1489.38 1143.11 1489.38C1079.36 1516.78 1040.17 1527.32 967.12 1537.98C967.052 1537.99 967 1538.05 967 1538.12C967 1538.19 966.944 1538.25 966.871 1538.26C954.397 1539.12 941.682 1539.55 928.727 1539.55C838.765 1539.55 757.799 1517.29 685.83 1472.78C642.559 1446.02 604.68 1411.65 572.192 1369.66C566.148 1361.84 553 1365.98 553 1375.86V1583.8ZM467.344 1363.92C469.043 1365.79 470 1368.21 470 1370.74V1575.98C470 1576.38 469.576 1576.62 469.239 1576.42C372.174 1519.23 296.417 1437.9 241.966 1332.45C187.989 1227 161 1101.89 161 957.117C161 848.538 176.388 750.906 207.165 664.221C238.415 577.089 282.449 502.916 339.267 441.7C373.98 404.3 412.582 372.238 455.071 345.512C461.616 341.396 470 346.176 470 353.908V541.558C470 544.073 469.049 546.493 467.359 548.355C439.274 579.317 414.806 615.257 393.955 656.178C352.288 737.948 331.455 838.261 331.455 957.117C331.455 1075.97 352.525 1176.29 394.665 1258.06C415.311 1298.12 439.537 1333.41 467.344 1363.92ZM1780.37 1728.1C1774.1 1729.81 1768 1725.03 1768 1718.53V1570.01C1768 1566.09 1770.3 1562.55 1773.83 1560.83C1791.88 1552.05 1807.47 1541.63 1820.6 1529.57C1869.37 1484.72 1893.75 1430.43 1893.75 1366.69C1893.75 1317.59 1881.2 1272.27 1856.11 1230.73C1835.48 1196.19 1807.65 1167.39 1772.63 1144.34C1769.77 1142.45 1768 1139.27 1768 1135.84V861.597C1768 858.95 1769.06 856.417 1770.89 854.511C1781.1 843.926 1790.32 832.422 1798.58 819.998C1824.15 782.229 1836.93 737.852 1836.93 686.865C1836.93 623.131 1814.68 569.075 1770.17 524.698C1768.79 523.311 1768 521.447 1768 519.494V349.874C1768 342.857 1775.04 338.03 1781.49 340.789C1791.06 344.882 1800.31 349.297 1809.23 354.033C1875.05 388.496 1924.05 434.998 1956.25 493.539C1988.45 551.607 2004.55 616.049 2004.55 686.865C2004.55 749.182 1993.42 800.641 1971.16 841.242C1949.38 881.843 1920.5 913.946 1884.52 937.551C1850.75 959.996 1814.2 976.892 1774.87 988.239C1771.27 989.279 1768.75 992.559 1768.75 996.312C1768.75 1000.7 1772.16 1004.32 1776.53 1004.74C1818.47 1008.81 1860.62 1024.18 1902.98 1050.86C1947.96 1079.18 1985.61 1119.78 2015.91 1172.66C2046.21 1225.53 2061.36 1290.21 2061.36 1366.69C2061.36 1439.4 2044.79 1504.78 2011.65 1562.85C1978.5 1620.92 1926.18 1666.95 1854.69 1700.94C1832.07 1711.69 1807.3 1720.74 1780.37 1728.1Z" fill="url(#paint0_linear_33_365)"/>
<path d="M956.314 211.021L956.42 209.023L956.42 209.023L956.314 211.021ZM660.972 261.847L660.158 260.019L660.158 260.019L660.972 261.847ZM557.08 321.566L558.252 323.186L558.252 323.186L557.08 321.566ZM572.212 542.673L573.797 543.893L573.797 543.893L572.212 542.673ZM682.278 441.534L683.346 443.226L683.346 443.226L682.278 441.534ZM966.843 376.985L966.66 378.977L966.661 378.977L966.843 376.985ZM967.011 377.29L966.457 379.212L966.459 379.212L967.011 377.29ZM967.009 377.322L967.277 379.304L967.279 379.304L967.009 377.322ZM966.552 377.461L967.63 379.146L967.632 379.145L966.552 377.461ZM966.514 377.563L968.466 377.127L968.466 377.125L966.514 377.563ZM966.524 377.606L964.572 378.043L964.572 378.044L966.524 377.606ZM966.843 377.685L965.32 376.389L965.319 376.389L966.843 377.685ZM966.904 377.613L968.427 378.91L968.427 378.909L966.904 377.613ZM967.145 377.542L967.702 375.621L967.701 375.621L967.145 377.542ZM1199.64 475.014L1200.63 473.273L1200.62 473.272L1199.64 475.014ZM1199.7 475.027L1199.88 477.019L1199.88 477.019L1199.7 475.027ZM1199.74 474.839L1200.81 473.146L1200.81 473.145L1199.74 474.839ZM1199.45 474.655L1200.51 472.961L1200.51 472.961L1199.45 474.655ZM1199.99 474.265L1200.59 472.358L1200.59 472.358L1199.99 474.265ZM1200.1 474.328L1201.43 472.829L1201.43 472.829L1200.1 474.328ZM1270.35 555.881L1268.67 556.976L1268.68 556.988L1268.69 557L1270.35 555.881ZM1329.84 677.549L1331.74 676.905L1331.74 676.905L1329.84 677.549ZM1511.62 672.605L1509.66 673.011L1509.66 673.011L1511.62 672.605ZM1441.51 491.96L1439.8 492.991L1439.8 492.997L1441.51 491.96ZM1440.25 489.867L1441.96 488.829L1441.96 488.829L1440.25 489.867ZM1666.96 524.166L1665.77 525.768L1665.77 525.768L1666.96 524.166ZM1678.58 349.372L1677.89 351.25L1677.89 351.25L1678.58 349.372ZM1275.43 316.217L1276.57 314.569L1276.57 314.569L1275.43 316.217ZM1159.43 254.906L1158.7 256.767L1158.7 256.767L1159.43 254.906ZM557.101 1591.85L558.269 1590.23L558.269 1590.23L557.101 1591.85ZM589.239 1613.41L588.179 1615.11L588.183 1615.11L589.239 1613.41ZM956.518 1703.84L956.586 1705.84L956.586 1705.84L956.518 1703.84ZM1677.4 1753.71L1677.86 1755.65L1677.86 1755.65L1677.4 1753.71ZM1670.67 1589.65L1671.39 1591.51L1671.39 1591.51L1670.67 1589.65ZM1291.73 1596.84L1290.57 1595.21L1290.57 1595.21L1291.73 1596.84ZM1445.77 1425.91L1444.04 1424.91L1444.04 1424.92L1445.77 1425.91ZM1524.78 1111.23L1524.88 1109.23L1524.88 1109.23L1524.78 1111.23ZM1665.86 1148.97L1664.9 1150.72L1664.91 1150.72L1664.91 1150.73L1665.86 1148.97ZM1669.37 1150.89L1668.4 1152.64L1668.4 1152.64L1669.37 1150.89ZM1667.08 891.772L1665.81 890.228L1665.81 890.228L1667.08 891.772ZM1613.31 925.955L1612.44 924.154L1612.43 924.158L1613.31 925.955ZM1475.89 957.159V959.159H1475.9L1475.92 959.159L1475.89 957.159ZM1351.66 1123.59L1349.67 1123.52L1349.67 1123.52L1351.66 1123.59ZM1298.05 1334.29L1296.29 1333.33L1296.29 1333.33L1298.05 1334.29ZM1148.9 1486.28L1149.87 1488.02L1149.88 1488.02L1148.9 1486.28ZM1144.01 1488.97L1144.96 1490.73L1144.96 1490.73L1144.01 1488.97ZM1143.99 1489.01L1143.2 1487.17L1143.2 1487.17L1143.99 1489.01ZM1143.76 1489.1L1142.97 1487.27L1142.89 1487.3L1142.81 1487.34L1143.76 1489.1ZM1143.17 1489.42L1144.1 1491.19L1144.11 1491.19L1144.11 1491.18L1143.17 1489.42ZM1143.11 1489.38L1143.9 1491.22L1143.9 1491.22L1143.11 1489.38ZM967.12 1537.98L966.831 1536L966.829 1536L967.12 1537.98ZM966.871 1538.26L967.008 1540.25L967.008 1540.25L966.871 1538.26ZM685.83 1472.78L686.882 1471.08L686.882 1471.08L685.83 1472.78ZM572.192 1369.66L570.61 1370.88L570.61 1370.88L572.192 1369.66ZM467.344 1363.92L468.822 1362.58L468.822 1362.58L467.344 1363.92ZM469.239 1576.42L468.223 1578.14L468.227 1578.15L469.239 1576.42ZM241.966 1332.45L240.186 1333.36L240.189 1333.37L241.966 1332.45ZM207.165 664.221L205.282 663.546L205.28 663.552L207.165 664.221ZM339.267 441.7L340.733 443.061L340.733 443.061L339.267 441.7ZM455.071 345.512L456.136 347.205L456.136 347.205L455.071 345.512ZM467.359 548.355L468.84 549.699L468.84 549.699L467.359 548.355ZM393.955 656.178L395.737 657.086L395.737 657.086L393.955 656.178ZM394.665 1258.06L392.887 1258.97L392.887 1258.97L394.665 1258.06ZM1780.37 1728.1L1779.84 1726.17L1779.84 1726.17L1780.37 1728.1ZM1773.83 1560.83L1772.96 1559.03L1772.96 1559.03L1773.83 1560.83ZM1820.6 1529.57L1821.95 1531.04L1821.95 1531.04L1820.6 1529.57ZM1856.11 1230.73L1854.39 1231.75L1854.4 1231.76L1856.11 1230.73ZM1772.63 1144.34L1771.53 1146.01L1771.53 1146.01L1772.63 1144.34ZM1770.89 854.511L1769.45 853.123L1769.45 853.123L1770.89 854.511ZM1798.58 819.998L1796.92 818.876L1796.92 818.884L1796.91 818.891L1798.58 819.998ZM1770.17 524.698L1768.75 526.106L1768.76 526.114L1770.17 524.698ZM1781.49 340.789L1782.28 338.95L1782.28 338.95L1781.49 340.789ZM1809.23 354.033L1808.3 355.799L1808.31 355.805L1809.23 354.033ZM1956.25 493.539L1954.5 494.503L1954.5 494.509L1956.25 493.539ZM1971.16 841.242L1969.41 840.281L1969.41 840.289L1969.4 840.297L1971.16 841.242ZM1884.52 937.551L1883.42 935.879L1883.41 935.886L1884.52 937.551ZM1774.87 988.239L1774.32 986.317L1774.32 986.317L1774.87 988.239ZM1776.53 1004.74L1776.72 1002.75L1776.72 1002.75L1776.53 1004.74ZM1902.98 1050.86L1901.92 1052.55L1901.92 1052.55L1902.98 1050.86ZM2015.91 1172.66L2017.64 1171.66L2017.64 1171.66L2015.91 1172.66ZM2011.65 1562.85L2009.91 1561.86L2009.91 1561.86L2011.65 1562.85ZM1854.69 1700.94L1853.83 1699.13L1853.83 1699.13L1854.69 1700.94ZM1143 49C1147.42 49 1151 52.5817 1151 57H1155C1155 50.3726 1149.63 45 1143 45V49ZM977 49H1143V45H977V49ZM969 57C969 52.5817 972.582 49 977 49V45C970.373 45 965 50.3726 965 57H969ZM969 200.963V57H965V200.963H969ZM956.208 213.018C963.115 213.384 969 207.92 969 200.963H965C965 205.587 961.078 209.271 956.42 209.023L956.208 213.018ZM917.364 212C930.465 212 943.413 212.339 956.208 213.018L956.42 209.023C943.553 208.341 930.534 208 917.364 208V212ZM661.785 263.674C739.156 229.234 824.34 212 917.364 212V208C823.834 208 738.09 225.33 660.158 260.019L661.785 263.674ZM558.252 323.186C590.404 299.923 624.914 280.086 661.785 263.674L660.158 260.019C623.039 276.542 588.288 296.517 555.908 319.945L558.252 323.186ZM555 329.597C555 327.052 556.206 324.666 558.252 323.186L555.908 319.945C552.806 322.189 551 325.788 551 329.597H555ZM555 536.493V329.597H551V536.493H555ZM570.627 541.453C568.203 544.603 564.327 545.399 560.95 544.324C557.584 543.253 555 540.422 555 536.493H551C551 542.455 555.006 546.631 559.738 548.136C564.459 549.638 570.189 548.58 573.797 543.893L570.627 541.453ZM681.211 439.843C639.257 466.31 602.396 500.186 570.627 541.453L573.797 543.893C605.293 502.98 641.809 469.43 683.346 443.226L681.211 439.843ZM917.364 372.773C830.825 372.773 752.091 395.127 681.211 439.843L683.346 443.226C753.564 398.927 831.554 376.773 917.364 376.773V372.773ZM967.026 374.994C950.912 373.513 934.357 372.773 917.364 372.773V376.773C934.241 376.773 950.673 377.508 966.66 378.977L967.026 374.994ZM969 377.157C969 376.036 968.146 375.096 967.026 374.994L966.661 378.977C965.718 378.89 965 378.099 965 377.157H969ZM969 377.275V377.157H965V377.275H969ZM967.565 375.368C968.408 375.611 969 376.383 969 377.275H965C965 378.181 965.602 378.965 966.457 379.212L967.565 375.368ZM967.279 379.304C968.381 379.154 968.953 378.238 969.016 377.471C969.08 376.699 968.656 375.682 967.564 375.368L966.459 379.212C965.384 378.903 964.967 377.901 965.03 377.143C965.092 376.39 965.654 375.489 966.738 375.341L967.279 379.304ZM967.632 379.145C967.487 379.238 967.37 379.277 967.324 379.291C967.273 379.307 967.253 379.307 967.277 379.304L966.74 375.34C966.426 375.383 965.935 375.481 965.472 375.777L967.632 379.145ZM968.466 377.125C968.603 377.736 968.442 378.626 967.63 379.146L965.474 375.777C964.595 376.339 964.408 377.312 964.563 378.002L968.466 377.125ZM968.476 377.17L968.466 377.127L964.562 378L964.572 378.043L968.476 377.17ZM965.319 376.389C966.291 375.247 968.147 375.707 968.475 377.168L964.572 378.044C964.967 379.801 967.198 380.353 968.366 378.981L965.319 376.389ZM965.381 376.317L965.32 376.389L968.366 378.981L968.427 378.91L965.381 376.317ZM967.701 375.621C966.879 375.383 965.963 375.633 965.38 376.318L968.427 378.909C967.962 379.456 967.237 379.651 966.589 379.463L967.701 375.621ZM1200.62 473.272C1116.41 425.706 1065.53 403.972 967.702 375.621L966.588 379.463C1064.12 407.727 1114.72 429.341 1198.66 476.755L1200.62 473.272ZM1199.52 473.035C1199.91 473 1200.3 473.087 1200.63 473.273L1198.65 476.754C1199.02 476.961 1199.44 477.057 1199.88 477.019L1199.52 473.035ZM1198.68 476.532C1197.14 475.566 1197.71 473.196 1199.52 473.035L1199.88 477.019C1201.88 476.84 1202.51 474.217 1200.81 473.146L1198.68 476.532ZM1198.39 476.349L1198.68 476.533L1200.81 473.145L1200.51 472.961L1198.39 476.349ZM1199.57 472.25C1197.33 472.25 1196.51 475.168 1198.39 476.349L1200.51 472.961C1202.02 473.908 1201.36 476.25 1199.57 476.25V472.25ZM1199.9 472.25H1199.57V476.25H1199.9V472.25ZM1200.59 472.358C1200.37 472.287 1200.13 472.25 1199.9 472.25V476.25C1199.72 476.25 1199.55 476.223 1199.39 476.171L1200.59 472.358ZM1201.43 472.829C1201.18 472.613 1200.9 472.454 1200.59 472.358L1199.39 476.171C1199.17 476.101 1198.96 475.985 1198.78 475.828L1201.43 472.829ZM1272.02 554.786C1251.73 523.778 1228.2 496.456 1201.43 472.829L1198.78 475.828C1225.27 499.209 1248.57 526.256 1268.67 556.976L1272.02 554.786ZM1331.74 676.905C1316.36 631.693 1296.45 590.974 1272 554.762L1268.69 557C1292.92 592.892 1312.67 633.286 1327.95 678.193L1331.74 676.905ZM1339.39 682.432C1335.93 682.432 1332.86 680.204 1331.74 676.905L1327.95 678.193C1329.61 683.086 1334.19 686.432 1339.39 686.432V682.432ZM1501.9 682.432H1339.39V686.432H1501.9V682.432ZM1509.66 673.011C1510.67 677.876 1506.92 682.432 1501.9 682.432V686.432C1509.41 686.432 1515.11 679.598 1513.58 672.198L1509.66 673.011ZM1439.8 492.997C1472.75 547.313 1496.04 607.312 1509.66 673.011L1513.58 672.198C1499.86 606.079 1476.42 545.649 1443.22 490.923L1439.8 492.997ZM1438.54 490.905C1438.96 491.6 1439.38 492.295 1439.8 492.991L1443.23 490.929C1442.8 490.228 1442.38 489.528 1441.96 488.829L1438.54 490.905ZM1448.87 472.25C1439.32 472.25 1433.63 482.833 1438.54 490.906L1441.96 488.829C1438.62 483.329 1442.55 476.25 1448.87 476.25V472.25ZM1475.52 472.25H1448.87V476.25H1475.52V472.25ZM1668.16 522.563C1623.13 488.928 1558.83 472.25 1475.52 472.25V476.25C1558.37 476.25 1621.7 492.849 1665.77 525.768L1668.16 522.563ZM1683 515.833C1683 519.344 1680.85 522.111 1677.82 523.482C1674.77 524.86 1671.05 524.721 1668.16 522.563L1665.77 525.768C1669.97 528.907 1675.27 529.026 1679.47 527.127C1683.68 525.221 1687 521.173 1687 515.833H1683ZM1683 358.647V515.833H1687V358.647H1683ZM1677.89 351.25C1680.97 352.376 1683 355.331 1683 358.647H1687C1687 353.693 1683.96 349.212 1679.27 347.494L1677.89 351.25ZM1475.52 320C1553.64 320 1621.08 330.435 1677.89 351.25L1679.27 347.494C1621.91 326.479 1553.98 316 1475.52 316V320ZM1281.15 320H1475.52V316H1281.15V320ZM1274.3 317.866C1276.31 319.247 1278.7 320 1281.15 320V316C1279.52 316 1277.92 315.499 1276.57 314.569L1274.3 317.866ZM1158.7 256.767C1200.28 273.116 1238.81 293.483 1274.3 317.866L1276.57 314.569C1240.82 290.008 1202.02 269.501 1160.16 253.045L1158.7 256.767ZM1151 245.523C1151 250.51 1154.08 254.952 1158.7 256.767L1160.16 253.045C1157.05 251.822 1155 248.839 1155 245.523H1151ZM1151 57V245.523H1155V57H1151ZM558.269 1590.23C556.213 1588.75 555 1586.35 555 1583.8H551C551 1587.62 552.817 1591.23 555.932 1593.47L558.269 1590.23ZM590.298 1611.71C579.349 1604.88 568.673 1597.71 558.269 1590.23L555.932 1593.47C566.408 1601.01 577.157 1608.22 588.179 1615.11L590.298 1611.71ZM928.727 1702.32C800.266 1702.32 687.478 1672.1 590.294 1611.71L588.183 1615.11C686.075 1675.93 799.613 1706.32 928.727 1706.32V1702.32ZM956.449 1701.84C947.295 1702.16 938.055 1702.32 928.727 1702.32V1706.32C938.1 1706.32 947.386 1706.16 956.586 1705.84L956.449 1701.84ZM969 1713.9C969 1707.04 963.269 1701.61 956.449 1701.84L956.586 1705.84C961.181 1705.68 965 1709.34 965 1713.9H969ZM969 1772.55V1713.9H965V1772.55H969ZM969 1864V1772.55H965V1864H969ZM977 1872C972.582 1872 969 1868.42 969 1864H965C965 1870.63 970.373 1876 977 1876V1872ZM1143 1872H977V1876H1143V1872ZM1151 1864C1151 1868.42 1147.42 1872 1143 1872V1876C1149.63 1876 1155 1870.63 1155 1864H1151ZM1151 1782.55V1864H1155V1782.55H1151ZM1163 1770.55C1156.37 1770.55 1151 1775.92 1151 1782.55H1155C1155 1778.13 1158.58 1774.55 1163 1774.55V1770.55ZM1492.57 1770.55H1163V1774.55H1492.57V1770.55ZM1676.95 1751.76C1623.46 1764.28 1562 1770.55 1492.57 1770.55V1774.55C1562.23 1774.55 1624 1768.26 1677.86 1755.65L1676.95 1751.76ZM1683 1744.06C1683 1747.74 1680.5 1750.93 1676.95 1751.76L1677.86 1755.65C1683.25 1754.39 1687 1749.56 1687 1744.06H1683ZM1683 1599.18V1744.06H1687V1599.18H1683ZM1671.39 1591.51C1676.95 1589.37 1683 1593.39 1683 1599.18H1687C1687 1590.41 1677.97 1584.69 1669.95 1587.78L1671.39 1591.51ZM1492.57 1618.3C1565.4 1618.3 1625.04 1609.4 1671.39 1591.51L1669.95 1587.78C1624.22 1605.43 1565.12 1614.3 1492.57 1614.3V1618.3ZM1297.59 1618.3H1492.57V1614.3H1297.59V1618.3ZM1290.57 1595.21C1285.65 1598.71 1284.45 1604.51 1285.89 1609.33C1287.33 1614.15 1291.52 1618.3 1297.59 1618.3V1614.3C1293.59 1614.3 1290.75 1611.63 1289.72 1608.19C1288.69 1604.73 1289.59 1600.82 1292.89 1598.47L1290.57 1595.21ZM1444.04 1424.92C1404.65 1493.76 1353.49 1550.51 1290.57 1595.21L1292.89 1598.47C1356.3 1553.43 1407.84 1496.23 1447.51 1426.9L1444.04 1424.92ZM1520.48 1113.41C1520.48 1232.91 1494.97 1336.72 1444.04 1424.91L1447.5 1426.91C1498.84 1338.02 1524.48 1233.49 1524.48 1113.41H1520.48ZM1524.88 1109.23C1522.49 1109.1 1520.48 1111.01 1520.48 1113.41H1524.48C1524.48 1113.3 1524.57 1113.22 1524.67 1113.23L1524.88 1109.23ZM1666.83 1147.21C1626 1124.72 1578.67 1112.07 1524.88 1109.23L1524.67 1113.23C1577.95 1116.04 1624.67 1128.55 1664.9 1150.72L1666.83 1147.21ZM1670.34 1149.14C1669.17 1148.49 1668 1147.85 1666.82 1147.21L1664.91 1150.73C1666.08 1151.36 1667.24 1151.99 1668.4 1152.64L1670.34 1149.14ZM1683 1141.99C1683 1148.26 1675.98 1152.28 1670.34 1149.14L1668.4 1152.64C1676.53 1157.17 1687 1151.5 1687 1141.99H1683ZM1683 899.7V1141.99H1687V899.7H1683ZM1668.36 893.315C1674.08 888.596 1683 892.654 1683 899.7H1687C1687 888.9 1673.86 883.6 1665.81 890.228L1668.36 893.315ZM1614.18 927.755C1634.14 918.101 1652.21 906.622 1668.36 893.315L1665.81 890.228C1649.92 903.321 1632.13 914.63 1612.44 924.154L1614.18 927.755ZM1475.92 959.159C1526.8 958.391 1572.9 947.933 1614.19 927.751L1612.43 924.158C1571.73 944.054 1526.22 954.399 1475.86 955.159L1475.92 959.159ZM1200.08 959.159H1475.89V955.159H1200.08V959.159ZM1198 957.08C1198 958.229 1198.93 959.159 1200.08 959.159V955.159C1201.14 955.159 1202 956.018 1202 957.08H1198ZM1199.92 959C1198.86 959 1198 958.14 1198 957.08H1202C1202 955.931 1201.07 955 1199.92 955V959ZM977 959H1199.92V955H977V959ZM969 967C969 962.582 972.582 959 977 959V955C970.373 955 965 960.373 965 967H969ZM969 1104V967H965V1104H969ZM977 1112C972.582 1112 969 1108.42 969 1104H965C965 1110.63 970.373 1116 977 1116V1112ZM1199.7 1112H977V1116H1199.7V1112ZM1198 1113.7C1198 1112.76 1198.76 1112 1199.7 1112V1116C1200.97 1116 1202 1114.97 1202 1113.7H1198ZM1200.3 1111.41C1199.03 1111.41 1198 1112.44 1198 1113.7H1202C1202 1114.65 1201.24 1115.41 1200.3 1115.41V1111.41ZM1341.75 1111.41H1200.3V1115.41H1341.75V1111.41ZM1353.66 1123.66C1353.89 1116.92 1348.45 1111.41 1341.75 1111.41V1115.41C1346.23 1115.41 1349.81 1119.08 1349.67 1123.52L1353.66 1123.66ZM1299.8 1335.25C1333.02 1274.49 1350.96 1203.94 1353.66 1123.66L1349.67 1123.52C1346.98 1203.28 1329.17 1273.2 1296.29 1333.33L1299.8 1335.25ZM1149.88 1488.02C1214.13 1451.85 1264.11 1400.91 1299.8 1335.24L1296.29 1333.33C1260.95 1398.35 1211.5 1448.74 1147.92 1484.54L1149.88 1488.02ZM1144.96 1490.73C1146.61 1489.84 1148.24 1488.94 1149.87 1488.02L1147.92 1484.53C1146.31 1485.44 1144.69 1486.33 1143.06 1487.21L1144.96 1490.73ZM1146 1488.99C1146 1489.71 1145.6 1490.38 1144.96 1490.73L1143.06 1487.21C1142.41 1487.56 1142 1488.25 1142 1488.99H1146ZM1144.78 1490.84C1145.53 1490.52 1146 1489.78 1146 1488.99H1142C1142 1488.21 1142.46 1487.48 1143.2 1487.17L1144.78 1490.84ZM1144.55 1490.94L1144.78 1490.84L1143.2 1487.17L1142.97 1487.27L1144.55 1490.94ZM1144.11 1491.18C1144.31 1491.08 1144.51 1490.97 1144.71 1490.86L1142.81 1487.34C1142.61 1487.45 1142.42 1487.56 1142.22 1487.66L1144.11 1491.18ZM1143.16 1491.43C1143.5 1491.43 1143.83 1491.34 1144.1 1491.19L1142.23 1487.65C1142.5 1487.51 1142.82 1487.43 1143.16 1487.43V1491.43ZM1141.14 1489.4C1141.14 1490.6 1142.12 1491.43 1143.16 1491.43V1487.43C1144.17 1487.43 1145.14 1488.23 1145.14 1489.4H1141.14ZM1143.9 1491.22C1142.64 1491.77 1141.14 1490.87 1141.14 1489.4H1145.14C1145.14 1487.9 1143.6 1486.99 1142.31 1487.55L1143.9 1491.22ZM967.409 1539.96C1040.61 1529.27 1079.97 1518.7 1143.9 1491.22L1142.32 1487.55C1078.75 1514.87 1039.73 1525.36 966.831 1536L967.409 1539.96ZM969 1538.12C969 1539.07 968.294 1539.83 967.411 1539.96L966.829 1536C965.81 1536.15 965 1537.03 965 1538.12H969ZM967.008 1540.25C968.131 1540.18 969 1539.24 969 1538.12H965C965 1537.14 965.756 1536.33 966.734 1536.26L967.008 1540.25ZM928.727 1541.55C941.726 1541.55 954.487 1541.11 967.008 1540.25L966.734 1536.26C954.307 1537.12 941.638 1537.55 928.727 1537.55V1541.55ZM684.778 1474.49C757.084 1519.2 838.418 1541.55 928.727 1541.55V1537.55C839.112 1537.55 758.515 1515.38 686.882 1471.08L684.778 1474.49ZM570.61 1370.88C603.238 1413.05 641.294 1447.59 684.778 1474.49L686.882 1471.08C643.823 1444.46 606.121 1410.24 573.774 1368.43L570.61 1370.88ZM555 1375.86C555 1371.93 557.578 1369.1 560.938 1368.03C564.309 1366.95 568.181 1367.74 570.61 1370.88L573.774 1368.43C570.159 1363.76 564.435 1362.71 559.721 1364.22C554.996 1365.73 551 1369.9 551 1375.86H555ZM555 1583.8V1375.86H551V1583.8H555ZM472 1370.74C472 1367.71 470.85 1364.8 468.822 1362.58L465.865 1365.27C467.235 1366.77 468 1368.72 468 1370.74H472ZM472 1575.98V1370.74H468V1575.98H472ZM468.227 1578.15C469.9 1579.13 472 1577.92 472 1575.98H468C468 1574.83 469.252 1574.11 470.25 1574.7L468.227 1578.15ZM240.189 1333.37C294.803 1439.14 370.816 1520.75 468.223 1578.14L470.254 1574.7C373.532 1517.71 298.03 1436.67 243.743 1331.54L240.189 1333.37ZM159 957.117C159 1102.14 186.035 1227.57 240.186 1333.36L243.746 1331.54C189.942 1226.43 163 1101.64 163 957.117H159ZM205.28 663.552C174.415 750.486 159 848.35 159 957.117H163C163 848.725 178.362 751.325 209.05 664.89L205.28 663.552ZM337.801 440.34C280.78 501.774 236.613 576.187 205.282 663.546L209.047 664.896C240.216 577.991 284.117 504.058 340.733 443.061L337.801 440.34ZM454.006 343.819C411.367 370.639 372.631 402.814 337.801 440.34L340.733 443.061C375.329 405.787 413.796 373.836 456.136 347.205L454.006 343.819ZM472 353.908C472 344.656 461.928 338.837 454.006 343.819L456.136 347.205C461.303 343.955 468 347.696 468 353.908H472ZM472 541.558V353.908H468V541.558H472ZM468.84 549.699C470.857 547.475 472 544.58 472 541.558H468C468 543.567 467.24 545.51 465.878 547.012L468.84 549.699ZM395.737 657.086C416.515 616.308 440.886 580.517 468.84 549.699L465.878 547.012C437.663 578.116 413.097 614.207 392.173 655.27L395.737 657.086ZM333.455 957.117C333.455 838.486 354.249 738.504 395.737 657.086L392.173 655.27C350.327 737.391 329.455 838.035 329.455 957.117H333.455ZM396.443 1257.14C354.485 1175.72 333.455 1075.74 333.455 957.117H329.455C329.455 1076.2 350.564 1176.85 392.887 1258.97L396.443 1257.14ZM468.822 1362.58C441.144 1332.2 417.016 1297.06 396.443 1257.14L392.887 1258.97C413.606 1299.18 437.93 1334.61 465.865 1365.27L468.822 1362.58ZM1766 1718.53C1766 1726.32 1773.32 1732.09 1780.9 1730.03L1779.84 1726.17C1774.88 1727.52 1770 1723.75 1770 1718.53H1766ZM1766 1570.01V1718.53H1770V1570.01H1766ZM1772.96 1559.03C1768.77 1561.07 1766 1565.29 1766 1570.01H1770C1770 1566.88 1771.84 1564.02 1774.71 1562.63L1772.96 1559.03ZM1819.24 1528.09C1806.28 1540.01 1790.86 1550.32 1772.96 1559.03L1774.71 1562.63C1792.91 1553.77 1808.67 1543.25 1821.95 1531.04L1819.24 1528.09ZM1891.75 1366.69C1891.75 1429.84 1867.62 1483.61 1819.24 1528.1L1821.95 1531.04C1871.11 1485.83 1895.75 1431.01 1895.75 1366.69H1891.75ZM1854.4 1231.76C1879.3 1272.99 1891.75 1317.95 1891.75 1366.69H1895.75C1895.75 1317.23 1883.11 1271.55 1857.82 1229.69L1854.4 1231.76ZM1771.53 1146.01C1806.31 1168.9 1833.92 1197.48 1854.39 1231.75L1857.82 1229.7C1837.04 1194.89 1808.99 1165.88 1773.73 1142.67L1771.53 1146.01ZM1766 1135.84C1766 1139.97 1768.12 1143.76 1771.53 1146.01L1773.73 1142.67C1771.41 1141.14 1770 1138.58 1770 1135.84H1766ZM1766 861.597V1135.84H1770V861.597H1766ZM1769.45 853.123C1767.27 855.389 1766 858.414 1766 861.597H1770C1770 859.485 1770.84 857.445 1772.33 855.899L1769.45 853.123ZM1796.91 818.891C1788.72 831.216 1779.57 842.626 1769.45 853.123L1772.33 855.899C1782.62 845.226 1791.92 833.627 1800.25 821.104L1796.91 818.891ZM1834.93 686.865C1834.93 737.501 1822.24 781.478 1796.92 818.876L1800.24 821.119C1826.05 782.981 1838.93 738.203 1838.93 686.865H1834.93ZM1768.76 526.114C1812.88 570.11 1834.93 623.654 1834.93 686.865H1838.93C1838.93 622.608 1816.47 568.04 1771.58 523.281L1768.76 526.114ZM1766 519.494C1766 521.993 1767.02 524.359 1768.75 526.106L1771.59 523.289C1770.57 522.264 1770 520.901 1770 519.494H1766ZM1766 349.874V519.494H1770V349.874H1766ZM1782.28 338.95C1774.45 335.603 1766 341.482 1766 349.874H1770C1770 344.232 1775.63 340.456 1780.7 342.628L1782.28 338.95ZM1810.17 352.266C1801.2 347.503 1791.9 343.065 1782.28 338.95L1780.7 342.628C1790.23 346.7 1799.42 351.091 1808.3 355.799L1810.17 352.266ZM1958 492.575C1925.6 433.652 1876.28 386.886 1810.16 352.261L1808.31 355.805C1873.81 390.107 1922.51 436.345 1954.5 494.503L1958 492.575ZM2006.55 686.865C2006.55 615.733 1990.37 550.954 1958 492.569L1954.5 494.509C1986.52 552.261 2002.55 616.365 2002.55 686.865H2006.55ZM1972.92 842.204C1995.38 801.224 2006.55 749.407 2006.55 686.865H2002.55C2002.55 748.958 1991.46 800.059 1969.41 840.281L1972.92 842.204ZM1885.61 939.223C1921.9 915.422 1951 883.061 1972.93 842.188L1969.4 840.297C1947.77 880.625 1919.11 912.469 1883.42 935.879L1885.61 939.223ZM1775.43 990.161C1814.95 978.757 1851.69 961.776 1885.62 939.217L1883.41 935.886C1849.82 958.216 1813.45 975.026 1774.32 986.317L1775.43 990.161ZM1770.75 996.312C1770.75 993.469 1772.66 990.959 1775.43 990.161L1774.32 986.317C1769.87 987.6 1766.75 991.65 1766.75 996.312H1770.75ZM1776.72 1002.75C1773.34 1002.42 1770.75 999.63 1770.75 996.312H1766.75C1766.75 1001.77 1770.98 1006.21 1776.34 1006.73L1776.72 1002.75ZM1904.05 1049.16C1861.47 1022.35 1819.03 1006.85 1776.72 1002.75L1776.34 1006.73C1817.91 1010.76 1859.77 1026.01 1901.92 1052.55L1904.05 1049.16ZM2017.64 1171.66C1987.2 1118.55 1949.34 1077.69 1904.05 1049.16L1901.92 1052.55C1946.58 1080.68 1984.01 1121.02 2014.17 1173.65L2017.64 1171.66ZM2063.36 1366.69C2063.36 1289.95 2048.16 1224.91 2017.64 1171.66L2014.17 1173.65C2044.26 1226.16 2059.36 1290.47 2059.36 1366.69H2063.36ZM2013.38 1563.84C2046.72 1505.45 2063.36 1439.71 2063.36 1366.69H2059.36C2059.36 1439.08 2042.87 1504.12 2009.91 1561.86L2013.38 1563.84ZM1855.55 1702.75C1927.34 1668.61 1980 1622.33 2013.38 1563.84L2009.91 1561.86C1977 1619.51 1925.03 1665.29 1853.83 1699.13L1855.55 1702.75ZM1780.9 1730.03C1807.93 1722.65 1832.81 1713.56 1855.55 1702.75L1853.83 1699.13C1831.33 1709.83 1806.67 1718.84 1779.84 1726.17L1780.9 1730.03Z" fill="white" mask="url(#path-1-inside-1_33_365)"/>
<mask id="path-3-outside-2_33_365" maskUnits="userSpaceOnUse" x="551" y="45" width="1136" height="1831" fill="black">
<rect fill="white" x="551" y="45" width="1136" height="1831"/>
<path fill-rule="evenodd" clip-rule="evenodd" d="M1153 57C1153 51.4772 1148.52 47 1143 47H977C971.477 47 967 51.4772 967 57V200.963C967 206.754 962.097 211.327 956.314 211.021C943.483 210.34 930.5 210 917.364 210C824.087 210 738.623 227.282 660.972 261.847C623.977 278.314 589.346 298.22 557.08 321.566C554.506 323.428 553 326.42 553 329.597V536.494C553 546.383 566.18 550.509 572.212 542.673C603.845 501.583 640.533 467.87 682.278 441.534C752.828 397.027 831.189 374.773 917.364 374.773C934.299 374.773 950.793 375.51 966.843 376.985C966.932 376.993 967 377.068 967 377.157V377.275C967 377.282 967.005 377.288 967.011 377.29V377.29C967.028 377.295 967.026 377.32 967.009 377.322C966.807 377.35 966.654 377.396 966.552 377.461C966.518 377.483 966.505 377.524 966.514 377.563L966.524 377.606C966.557 377.754 966.744 377.8 966.843 377.685L966.903 377.613C966.962 377.544 967.058 377.517 967.145 377.542C1064.82 405.85 1115.57 427.523 1199.64 475.014C1199.66 475.024 1199.68 475.029 1199.7 475.027V475.027C1199.8 475.018 1199.83 474.891 1199.74 474.839C1199.65 474.778 1199.55 474.716 1199.45 474.655C1199.26 474.538 1199.35 474.25 1199.57 474.25H1199.9C1199.97 474.25 1200.05 474.278 1200.1 474.328C1226.74 497.833 1250.15 525.017 1270.35 555.881C1294.68 591.933 1314.51 632.489 1329.84 677.549C1331.23 681.645 1335.06 684.432 1339.39 684.432H1501.9C1508.16 684.432 1512.89 678.737 1511.62 672.605C1497.95 606.696 1474.58 546.481 1441.51 491.96C1441.09 491.261 1440.67 490.564 1440.25 489.867C1436.13 483.081 1440.93 474.25 1448.87 474.25H1475.52C1558.6 474.25 1622.42 490.889 1666.96 524.166C1674.05 529.462 1685 524.684 1685 515.833V358.647C1685 354.512 1682.46 350.794 1678.58 349.372C1621.49 328.457 1553.81 318 1475.52 318H1281.15C1279.11 318 1277.12 317.373 1275.43 316.217C1239.82 291.746 1201.15 271.309 1159.43 254.906C1155.57 253.387 1153 249.674 1153 245.523V57ZM553 1583.8C553 1586.99 554.515 1589.99 557.101 1591.85C567.54 1599.36 578.253 1606.55 589.239 1613.41C686.776 1674.02 799.939 1704.32 928.727 1704.32C938.078 1704.32 947.341 1704.16 956.518 1703.84C962.225 1703.65 967 1708.19 967 1713.9V1772.55V1864C967 1869.52 971.477 1874 977 1874H1143C1148.52 1874 1153 1869.52 1153 1864V1782.55C1153 1777.02 1157.48 1772.55 1163 1772.55H1492.57C1562.12 1772.55 1623.73 1766.27 1677.4 1753.71C1681.88 1752.66 1685 1748.65 1685 1744.06V1599.18C1685 1591.9 1677.46 1587.03 1670.67 1589.65C1624.63 1607.41 1565.26 1616.3 1492.57 1616.3H1297.59C1287.52 1616.3 1283.51 1602.68 1291.73 1596.84C1354.89 1551.97 1406.24 1494.99 1445.77 1425.91C1496.91 1337.37 1522.48 1233.2 1522.48 1113.41V1113.41C1522.48 1112.16 1523.53 1111.16 1524.78 1111.23C1578.31 1114.06 1625.34 1126.63 1665.86 1148.97C1667.04 1149.6 1668.21 1150.24 1669.37 1150.89C1676.26 1154.72 1685 1149.88 1685 1141.99V899.7C1685 890.777 1673.97 886.098 1667.08 891.772C1651.06 904.972 1633.14 916.366 1613.31 925.955C1572.32 945.993 1526.51 956.395 1475.89 957.159H1200.08C1200.04 957.159 1200 957.123 1200 957.08V957.08C1200 957.036 1199.96 957 1199.92 957H977C971.477 957 967 961.477 967 967V1104C967 1109.52 971.477 1114 977 1114H1199.7C1199.87 1114 1200 1113.87 1200 1113.7V1113.7C1200 1113.54 1200.13 1113.41 1200.3 1113.41H1341.75C1347.34 1113.41 1351.85 1118 1351.66 1123.59C1348.97 1203.61 1331.1 1273.84 1298.05 1334.29C1262.53 1399.63 1212.82 1450.29 1148.9 1486.28C1147.28 1487.19 1145.65 1488.08 1144.01 1488.97C1144 1488.97 1144 1488.98 1144 1488.99V1488.99C1144 1488.99 1144 1489 1143.99 1489.01L1143.76 1489.1C1143.56 1489.21 1143.37 1489.32 1143.17 1489.42C1143.15 1489.43 1143.14 1489.42 1143.14 1489.4V1489.4C1143.14 1489.39 1143.12 1489.38 1143.11 1489.38C1079.36 1516.78 1040.17 1527.32 967.12 1537.98C967.052 1537.99 967 1538.05 967 1538.12V1538.12C967 1538.19 966.944 1538.25 966.871 1538.26C954.397 1539.12 941.682 1539.55 928.727 1539.55C838.765 1539.55 757.799 1517.29 685.83 1472.78C642.559 1446.02 604.68 1411.65 572.192 1369.66C566.148 1361.84 553 1365.98 553 1375.86V1583.8Z"/>
</mask>
<path fill-rule="evenodd" clip-rule="evenodd" d="M1153 57C1153 51.4772 1148.52 47 1143 47H977C971.477 47 967 51.4772 967 57V200.963C967 206.754 962.097 211.327 956.314 211.021C943.483 210.34 930.5 210 917.364 210C824.087 210 738.623 227.282 660.972 261.847C623.977 278.314 589.346 298.22 557.08 321.566C554.506 323.428 553 326.42 553 329.597V536.494C553 546.383 566.18 550.509 572.212 542.673C603.845 501.583 640.533 467.87 682.278 441.534C752.828 397.027 831.189 374.773 917.364 374.773C934.299 374.773 950.793 375.51 966.843 376.985C966.932 376.993 967 377.068 967 377.157V377.275C967 377.282 967.005 377.288 967.011 377.29V377.29C967.028 377.295 967.026 377.32 967.009 377.322C966.807 377.35 966.654 377.396 966.552 377.461C966.518 377.483 966.505 377.524 966.514 377.563L966.524 377.606C966.557 377.754 966.744 377.8 966.843 377.685L966.903 377.613C966.962 377.544 967.058 377.517 967.145 377.542C1064.82 405.85 1115.57 427.523 1199.64 475.014C1199.66 475.024 1199.68 475.029 1199.7 475.027V475.027C1199.8 475.018 1199.83 474.891 1199.74 474.839C1199.65 474.778 1199.55 474.716 1199.45 474.655C1199.26 474.538 1199.35 474.25 1199.57 474.25H1199.9C1199.97 474.25 1200.05 474.278 1200.1 474.328C1226.74 497.833 1250.15 525.017 1270.35 555.881C1294.68 591.933 1314.51 632.489 1329.84 677.549C1331.23 681.645 1335.06 684.432 1339.39 684.432H1501.9C1508.16 684.432 1512.89 678.737 1511.62 672.605C1497.95 606.696 1474.58 546.481 1441.51 491.96C1441.09 491.261 1440.67 490.564 1440.25 489.867C1436.13 483.081 1440.93 474.25 1448.87 474.25H1475.52C1558.6 474.25 1622.42 490.889 1666.96 524.166C1674.05 529.462 1685 524.684 1685 515.833V358.647C1685 354.512 1682.46 350.794 1678.58 349.372C1621.49 328.457 1553.81 318 1475.52 318H1281.15C1279.11 318 1277.12 317.373 1275.43 316.217C1239.82 291.746 1201.15 271.309 1159.43 254.906C1155.57 253.387 1153 249.674 1153 245.523V57ZM553 1583.8C553 1586.99 554.515 1589.99 557.101 1591.85C567.54 1599.36 578.253 1606.55 589.239 1613.41C686.776 1674.02 799.939 1704.32 928.727 1704.32C938.078 1704.32 947.341 1704.16 956.518 1703.84C962.225 1703.65 967 1708.19 967 1713.9V1772.55V1864C967 1869.52 971.477 1874 977 1874H1143C1148.52 1874 1153 1869.52 1153 1864V1782.55C1153 1777.02 1157.48 1772.55 1163 1772.55H1492.57C1562.12 1772.55 1623.73 1766.27 1677.4 1753.71C1681.88 1752.66 1685 1748.65 1685 1744.06V1599.18C1685 1591.9 1677.46 1587.03 1670.67 1589.65C1624.63 1607.41 1565.26 1616.3 1492.57 1616.3H1297.59C1287.52 1616.3 1283.51 1602.68 1291.73 1596.84C1354.89 1551.97 1406.24 1494.99 1445.77 1425.91C1496.91 1337.37 1522.48 1233.2 1522.48 1113.41V1113.41C1522.48 1112.16 1523.53 1111.16 1524.78 1111.23C1578.31 1114.06 1625.34 1126.63 1665.86 1148.97C1667.04 1149.6 1668.21 1150.24 1669.37 1150.89C1676.26 1154.72 1685 1149.88 1685 1141.99V899.7C1685 890.777 1673.97 886.098 1667.08 891.772C1651.06 904.972 1633.14 916.366 1613.31 925.955C1572.32 945.993 1526.51 956.395 1475.89 957.159H1200.08C1200.04 957.159 1200 957.123 1200 957.08V957.08C1200 957.036 1199.96 957 1199.92 957H977C971.477 957 967 961.477 967 967V1104C967 1109.52 971.477 1114 977 1114H1199.7C1199.87 1114 1200 1113.87 1200 1113.7V1113.7C1200 1113.54 1200.13 1113.41 1200.3 1113.41H1341.75C1347.34 1113.41 1351.85 1118 1351.66 1123.59C1348.97 1203.61 1331.1 1273.84 1298.05 1334.29C1262.53 1399.63 1212.82 1450.29 1148.9 1486.28C1147.28 1487.19 1145.65 1488.08 1144.01 1488.97C1144 1488.97 1144 1488.98 1144 1488.99V1488.99C1144 1488.99 1144 1489 1143.99 1489.01L1143.76 1489.1C1143.56 1489.21 1143.37 1489.32 1143.17 1489.42C1143.15 1489.43 1143.14 1489.42 1143.14 1489.4V1489.4C1143.14 1489.39 1143.12 1489.38 1143.11 1489.38C1079.36 1516.78 1040.17 1527.32 967.12 1537.98C967.052 1537.99 967 1538.05 967 1538.12V1538.12C967 1538.19 966.944 1538.25 966.871 1538.26C954.397 1539.12 941.682 1539.55 928.727 1539.55C838.765 1539.55 757.799 1517.29 685.83 1472.78C642.559 1446.02 604.68 1411.65 572.192 1369.66C566.148 1361.84 553 1365.98 553 1375.86V1583.8Z" fill="url(#paint1_linear_33_365)"/>
<path d="M660.972 261.847L660.158 260.019L660.972 261.847ZM682.278 441.534L683.346 443.226L683.346 443.226L682.278 441.534ZM1270.35 555.881L1268.67 556.976L1268.68 556.988L1268.69 557L1270.35 555.881ZM1441.51 491.96L1439.8 492.991L1439.8 492.997L1441.51 491.96ZM589.239 1613.41L588.179 1615.11L588.183 1615.11L589.239 1613.41ZM1445.77 1425.91L1444.04 1424.91L1444.04 1424.92L1445.77 1425.91ZM1665.86 1148.97L1664.9 1150.72L1664.91 1150.72L1664.91 1150.73L1665.86 1148.97ZM1613.31 925.955L1612.44 924.154L1612.43 924.158L1613.31 925.955ZM1475.89 957.159V959.159H1475.9L1475.92 959.159L1475.89 957.159ZM1298.05 1334.29L1296.29 1333.33L1296.29 1333.33L1298.05 1334.29ZM1148.9 1486.28L1149.87 1488.02L1149.88 1488.02L1148.9 1486.28ZM1143.76 1489.1L1142.97 1487.27L1142.89 1487.3L1142.81 1487.34L1143.76 1489.1ZM685.83 1472.78L684.778 1474.49L684.778 1474.49L685.83 1472.78ZM572.192 1369.66L570.61 1370.88L572.192 1369.66ZM966.871 1538.26L967.008 1540.25L966.871 1538.26ZM1524.78 1111.23L1524.67 1113.23L1524.78 1111.23ZM1291.73 1596.84L1292.89 1598.47L1291.73 1596.84ZM1670.67 1589.65L1671.39 1591.51L1670.67 1589.65ZM1677.4 1753.71L1676.95 1751.76L1677.4 1753.71ZM956.518 1703.84L956.586 1705.84L956.518 1703.84ZM557.101 1591.85L555.932 1593.47L557.101 1591.85ZM1678.58 349.372L1679.27 347.494L1678.58 349.372ZM1511.62 672.605L1509.66 673.011L1511.62 672.605ZM1329.84 677.549L1327.95 678.193L1329.84 677.549ZM967.12 1537.98L967.409 1539.96L967.12 1537.98ZM1200.1 474.328L1198.78 475.828L1200.1 474.328ZM1143.11 1489.38L1142.32 1487.55L1143.11 1489.38ZM1199.45 474.655L1198.39 476.349L1199.45 474.655ZM1143.17 1489.42L1144.12 1491.18L1143.17 1489.42ZM1199.74 474.839L1198.68 476.532L1199.74 474.839ZM1199.64 475.014L1198.66 476.755L1199.64 475.014ZM1143.99 1489.01L1143.2 1487.17L1143.99 1489.01ZM966.903 377.613L965.38 376.317L966.903 377.613ZM967.145 377.542L966.588 379.463L967.145 377.542ZM1351.66 1123.59L1349.67 1123.52L1351.66 1123.59ZM966.843 376.985L967.026 374.994L966.843 376.985ZM1144.01 1488.97L1143.06 1487.21L1144.01 1488.97ZM966.524 377.606L968.475 377.169L966.524 377.606ZM966.843 377.685L968.366 378.981L966.843 377.685ZM1666.96 524.166L1668.16 522.563L1666.96 524.166ZM956.314 211.021L956.208 213.018L956.314 211.021ZM1159.43 254.906L1160.16 253.045L1159.43 254.906ZM572.212 542.673L570.627 541.453L572.212 542.673ZM966.552 377.461L967.631 379.145L966.552 377.461ZM966.514 377.563L968.466 377.126L966.514 377.563ZM1667.08 891.772L1668.36 893.315L1667.08 891.772ZM1275.43 316.217L1276.57 314.569L1275.43 316.217ZM557.08 321.566L558.252 323.186L557.08 321.566ZM967.009 377.322L967.278 379.304L967.009 377.322ZM1440.25 489.867L1441.96 488.829L1440.25 489.867ZM1669.37 1150.89L1670.34 1149.14L1669.37 1150.89ZM977 49H1143V45H977V49ZM969 200.963V57H965V200.963H969ZM956.42 209.023C943.553 208.341 930.534 208 917.364 208V212C930.465 212 943.413 212.339 956.208 213.018L956.42 209.023ZM917.364 208C823.834 208 738.09 225.33 660.158 260.019L661.785 263.674C739.156 229.234 824.34 212 917.364 212V208ZM660.158 260.019C623.039 276.542 588.288 296.517 555.908 319.945L558.252 323.186C590.404 299.923 624.914 280.086 661.785 263.674L660.158 260.019ZM551 329.597V536.494H555V329.597H551ZM573.797 543.893C605.293 502.98 641.809 469.43 683.346 443.226L681.211 439.843C639.257 466.31 602.396 500.186 570.627 541.453L573.797 543.893ZM683.346 443.226C753.564 398.927 831.554 376.773 917.364 376.773V372.773C830.825 372.773 752.091 395.127 681.211 439.843L683.346 443.226ZM917.364 376.773C934.241 376.773 950.673 377.508 966.66 378.977L967.026 374.994C950.912 373.513 934.357 372.773 917.364 372.773V376.773ZM965 377.157V377.275H969V377.157H965ZM966.74 375.34C966.426 375.383 965.935 375.481 965.473 375.777L967.631 379.145C967.487 379.238 967.37 379.277 967.324 379.291C967.273 379.306 967.254 379.307 967.278 379.304L966.74 375.34ZM964.563 378.001L964.572 378.044L968.475 377.169L968.466 377.126L964.563 378.001ZM968.366 378.981L968.427 378.91L965.38 376.317L965.319 376.389L968.366 378.981ZM966.588 379.463C1064.12 407.727 1114.72 429.341 1198.66 476.755L1200.62 473.272C1116.41 425.705 1065.53 403.972 967.702 375.621L966.588 379.463ZM1200.81 473.146C1200.71 473.084 1200.61 473.022 1200.51 472.961L1198.39 476.349C1198.49 476.41 1198.58 476.471 1198.68 476.532L1200.81 473.146ZM1199.57 476.25H1199.9V472.25H1199.57V476.25ZM1198.78 475.828C1225.27 499.209 1248.57 526.256 1268.67 556.976L1272.02 554.786C1251.73 523.778 1228.2 496.456 1201.43 472.829L1198.78 475.828ZM1268.69 557C1292.92 592.892 1312.67 633.286 1327.95 678.193L1331.74 676.905C1316.36 631.693 1296.45 590.974 1272 554.762L1268.69 557ZM1339.39 686.432H1501.9V682.432H1339.39V686.432ZM1513.58 672.198C1499.86 606.079 1476.42 545.649 1443.22 490.923L1439.8 492.997C1472.75 547.313 1496.04 607.312 1509.66 673.011L1513.58 672.198ZM1443.23 490.929C1442.8 490.228 1442.38 489.528 1441.96 488.829L1438.54 490.906C1438.96 491.6 1439.38 492.295 1439.8 492.991L1443.23 490.929ZM1448.87 476.25H1475.52V472.25H1448.87V476.25ZM1475.52 476.25C1558.37 476.25 1621.7 492.849 1665.77 525.768L1668.16 522.563C1623.13 488.929 1558.83 472.25 1475.52 472.25V476.25ZM1687 515.833V358.647H1683V515.833H1687ZM1679.27 347.494C1621.91 326.479 1553.98 316 1475.52 316V320C1553.64 320 1621.08 330.435 1677.89 351.25L1679.27 347.494ZM1475.52 316H1281.15V320H1475.52V316ZM1276.57 314.569C1240.82 290.008 1202.02 269.501 1160.16 253.045L1158.7 256.767C1200.28 273.116 1238.81 293.483 1274.3 317.866L1276.57 314.569ZM1151 57V245.523H1155V57H1151ZM590.298 1611.71C579.349 1604.88 568.673 1597.71 558.269 1590.23L555.932 1593.47C566.408 1601.01 577.157 1608.22 588.179 1615.11L590.298 1611.71ZM928.727 1702.32C800.266 1702.32 687.478 1672.1 590.294 1611.71L588.183 1615.11C686.075 1675.93 799.613 1706.32 928.727 1706.32V1702.32ZM956.449 1701.84C947.295 1702.16 938.055 1702.32 928.727 1702.32V1706.32C938.1 1706.32 947.386 1706.16 956.586 1705.84L956.449 1701.84ZM969 1772.55V1713.9H965V1772.55H969ZM969 1864V1772.55H965V1864H969ZM1143 1872H977V1876H1143V1872ZM1151 1782.55V1864H1155V1782.55H1151ZM1492.57 1770.55H1163V1774.55H1492.57V1770.55ZM1676.95 1751.76C1623.46 1764.28 1562 1770.55 1492.57 1770.55V1774.55C1562.23 1774.55 1624 1768.26 1677.86 1755.65L1676.95 1751.76ZM1683 1599.18V1744.06H1687V1599.18H1683ZM1492.57 1618.3C1565.4 1618.3 1625.04 1609.4 1671.39 1591.51L1669.95 1587.78C1624.22 1605.43 1565.12 1614.3 1492.57 1614.3V1618.3ZM1297.59 1618.3H1492.57V1614.3H1297.59V1618.3ZM1444.04 1424.92C1404.65 1493.76 1353.49 1550.51 1290.57 1595.21L1292.89 1598.47C1356.3 1553.43 1407.84 1496.23 1447.51 1426.9L1444.04 1424.92ZM1520.48 1113.41C1520.48 1232.91 1494.97 1336.72 1444.04 1424.91L1447.5 1426.91C1498.84 1338.02 1524.48 1233.49 1524.48 1113.41H1520.48ZM1666.83 1147.21C1626 1124.72 1578.67 1112.07 1524.88 1109.23L1524.67 1113.23C1577.95 1116.04 1624.67 1128.55 1664.9 1150.72L1666.83 1147.21ZM1670.34 1149.14C1669.17 1148.49 1668 1147.85 1666.82 1147.21L1664.91 1150.73C1666.08 1151.36 1667.24 1151.99 1668.4 1152.64L1670.34 1149.14ZM1683 899.7V1141.99H1687V899.7H1683ZM1614.18 927.755C1634.14 918.101 1652.21 906.622 1668.36 893.315L1665.81 890.228C1649.92 903.321 1632.13 914.63 1612.44 924.154L1614.18 927.755ZM1475.92 959.159C1526.8 958.391 1572.9 947.933 1614.19 927.751L1612.43 924.158C1571.73 944.054 1526.22 954.399 1475.86 955.159L1475.92 959.159ZM1200.08 959.159H1475.89V955.159H1200.08V959.159ZM977 959H1199.92V955H977V959ZM969 1104V967H965V1104H969ZM1199.7 1112H977V1116H1199.7V1112ZM1341.75 1111.41H1200.3V1115.41H1341.75V1111.41ZM1299.8 1335.25C1333.02 1274.49 1350.96 1203.94 1353.66 1123.66L1349.67 1123.52C1346.98 1203.28 1329.17 1273.2 1296.29 1333.33L1299.8 1335.25ZM1149.88 1488.02C1214.13 1451.85 1264.11 1400.91 1299.8 1335.24L1296.29 1333.33C1260.95 1398.35 1211.5 1448.74 1147.92 1484.54L1149.88 1488.02ZM1144.96 1490.73C1146.61 1489.84 1148.24 1488.94 1149.87 1488.02L1147.92 1484.53C1146.31 1485.44 1144.69 1486.33 1143.06 1487.21L1144.96 1490.73ZM1144.55 1490.94L1144.78 1490.84L1143.2 1487.17L1142.97 1487.27L1144.55 1490.94ZM1144.12 1491.18C1144.31 1491.08 1144.51 1490.97 1144.71 1490.86L1142.81 1487.34C1142.61 1487.45 1142.42 1487.56 1142.22 1487.66L1144.12 1491.18ZM967.409 1539.96C1040.61 1529.27 1079.97 1518.7 1143.9 1491.22L1142.32 1487.55C1078.75 1514.87 1039.73 1525.36 966.831 1536L967.409 1539.96ZM928.727 1541.55C941.726 1541.55 954.487 1541.11 967.008 1540.25L966.734 1536.26C954.307 1537.12 941.638 1537.55 928.727 1537.55V1541.55ZM684.778 1474.49C757.084 1519.2 838.418 1541.55 928.727 1541.55V1537.55C839.112 1537.55 758.515 1515.38 686.881 1471.08L684.778 1474.49ZM570.61 1370.88C603.238 1413.05 641.294 1447.59 684.778 1474.49L686.881 1471.08C643.823 1444.46 606.121 1410.24 573.774 1368.43L570.61 1370.88ZM555 1583.8V1375.86H551V1583.8H555ZM573.774 1368.43C570.159 1363.76 564.435 1362.71 559.721 1364.22C554.996 1365.73 551 1369.9 551 1375.86H555C555 1371.93 557.578 1369.1 560.938 1368.03C564.309 1366.95 568.181 1367.74 570.61 1370.88L573.774 1368.43ZM965 1538.12C965 1537.14 965.756 1536.33 966.734 1536.26L967.008 1540.25C968.131 1540.18 969 1539.24 969 1538.12H965ZM1199.7 1116C1200.97 1116 1202 1114.97 1202 1113.7H1198C1198 1112.76 1198.76 1112 1199.7 1112V1116ZM965 1104C965 1110.63 970.373 1116 977 1116V1112C972.582 1112 969 1108.42 969 1104H965ZM1200.08 955.159C1201.14 955.159 1202 956.019 1202 957.08H1198C1198 958.228 1198.93 959.159 1200.08 959.159V955.159ZM1524.48 1113.41C1524.48 1113.3 1524.57 1113.22 1524.67 1113.23L1524.88 1109.23C1522.49 1109.1 1520.48 1111.01 1520.48 1113.41H1524.48ZM1297.59 1614.3C1293.59 1614.3 1290.75 1611.63 1289.72 1608.19C1288.69 1604.73 1289.59 1600.82 1292.89 1598.47L1290.57 1595.21C1285.65 1598.71 1284.45 1604.51 1285.89 1609.33C1287.33 1614.15 1291.52 1618.3 1297.59 1618.3V1614.3ZM1687 1599.18C1687 1590.41 1677.97 1584.69 1669.95 1587.78L1671.39 1591.51C1676.95 1589.37 1683 1593.39 1683 1599.18H1687ZM1677.86 1755.65C1683.25 1754.39 1687 1749.56 1687 1744.06H1683C1683 1747.74 1680.5 1750.93 1676.95 1751.76L1677.86 1755.65ZM1155 1782.55C1155 1778.13 1158.58 1774.55 1163 1774.55V1770.55C1156.37 1770.55 1151 1775.92 1151 1782.55H1155ZM1143 1876C1149.63 1876 1155 1870.63 1155 1864H1151C1151 1868.42 1147.42 1872 1143 1872V1876ZM965 1864C965 1870.63 970.373 1876 977 1876V1872C972.582 1872 969 1868.42 969 1864H965ZM956.586 1705.84C961.181 1705.68 965 1709.34 965 1713.9H969C969 1707.04 963.269 1701.61 956.449 1701.84L956.586 1705.84ZM558.269 1590.23C556.213 1588.75 555 1586.35 555 1583.8H551C551 1587.62 552.817 1591.23 555.932 1593.47L558.269 1590.23ZM1687 358.647C1687 353.693 1683.96 349.212 1679.27 347.494L1677.89 351.25C1680.97 352.376 1683 355.331 1683 358.647H1687ZM1501.9 686.432C1509.4 686.432 1515.11 679.598 1513.58 672.198L1509.66 673.011C1510.67 677.876 1506.92 682.432 1501.9 682.432V686.432ZM1327.95 678.193C1329.61 683.086 1334.19 686.432 1339.39 686.432V682.432C1335.93 682.432 1332.86 680.204 1331.74 676.905L1327.95 678.193ZM966.831 1536C965.81 1536.15 965 1537.03 965 1538.12H969C969 1539.07 968.294 1539.83 967.409 1539.96L966.831 1536ZM1199.9 476.25C1199.49 476.25 1199.09 476.1 1198.78 475.828L1201.43 472.829C1201 472.456 1200.46 472.25 1199.9 472.25V476.25ZM1145.14 1489.4C1145.14 1487.89 1143.59 1487 1142.32 1487.55L1143.9 1491.22C1142.65 1491.76 1141.14 1490.89 1141.14 1489.4H1145.14ZM1200.51 472.961C1202.02 473.908 1201.36 476.25 1199.57 476.25V472.25C1197.33 472.25 1196.51 475.168 1198.39 476.349L1200.51 472.961ZM1142.22 1487.66C1143.54 1486.95 1145.14 1487.91 1145.14 1489.4H1141.14C1141.14 1490.93 1142.77 1491.91 1144.12 1491.18L1142.22 1487.66ZM1199.88 477.019C1201.88 476.84 1202.51 474.218 1200.81 473.146L1198.68 476.532C1197.14 475.564 1197.71 473.196 1199.52 473.035L1199.88 477.019ZM1198.66 476.755C1199.02 476.96 1199.44 477.057 1199.88 477.019L1199.52 473.035C1199.91 473 1200.3 473.087 1200.62 473.272L1198.66 476.755ZM1142 1488.99C1142 1488.2 1142.47 1487.48 1143.2 1487.17L1144.78 1490.84C1145.52 1490.52 1146 1489.79 1146 1488.99H1142ZM968.427 378.91C967.962 379.455 967.237 379.651 966.588 379.463L967.702 375.621C966.879 375.383 965.962 375.633 965.38 376.317L968.427 378.91ZM1341.75 1115.41C1346.23 1115.41 1349.81 1119.08 1349.67 1123.52L1353.66 1123.66C1353.89 1116.92 1348.45 1111.41 1341.75 1111.41V1115.41ZM965 377.275C965 378.174 965.595 378.964 966.459 379.212L967.564 375.368C968.414 375.612 969 376.39 969 377.275H965ZM1202 1113.7C1202 1114.65 1201.24 1115.41 1200.3 1115.41V1111.41C1199.03 1111.41 1198 1112.44 1198 1113.7H1202ZM966.66 378.977C965.718 378.89 965 378.1 965 377.157H969C969 376.036 968.146 375.096 967.026 374.994L966.66 378.977ZM1143.06 1487.21C1142.41 1487.56 1142 1488.24 1142 1488.99H1146C1146 1489.71 1145.6 1490.38 1144.96 1490.73L1143.06 1487.21ZM964.572 378.044C964.966 379.801 967.198 380.353 968.366 378.981L965.319 376.389C966.291 375.248 968.148 375.707 968.475 377.169L964.572 378.044ZM1665.77 525.768C1669.97 528.907 1675.27 529.026 1679.47 527.127C1683.68 525.221 1687 521.173 1687 515.833H1683C1683 519.344 1680.85 522.111 1677.82 523.482C1674.77 524.86 1671.05 524.721 1668.16 522.563L1665.77 525.768ZM965 200.963C965 205.587 961.078 209.271 956.42 209.023L956.208 213.018C963.115 213.384 969 207.92 969 200.963H965ZM1160.16 253.045C1157.05 251.822 1155 248.839 1155 245.523H1151C1151 250.51 1154.08 254.952 1158.7 256.767L1160.16 253.045ZM977 955C970.373 955 965 960.373 965 967H969C969 962.582 972.582 959 977 959V955ZM551 536.494C551 542.455 555.006 546.631 559.738 548.136C564.459 549.638 570.189 548.58 573.797 543.893L570.627 541.453C568.203 544.603 564.327 545.399 560.95 544.324C557.584 543.253 555 540.422 555 536.494H551ZM965.473 375.777C964.595 376.34 964.408 377.312 964.563 378.001L968.466 377.126C968.603 377.737 968.442 378.625 967.631 379.145L965.473 375.777ZM1687 899.7C1687 888.9 1673.86 883.6 1665.81 890.228L1668.36 893.315C1674.08 888.596 1683 892.654 1683 899.7H1687ZM1143 49C1147.42 49 1151 52.5817 1151 57H1155C1155 50.3726 1149.63 45 1143 45V49ZM1281.15 316C1279.52 316 1277.92 315.499 1276.57 314.569L1274.3 317.866C1276.31 319.247 1278.7 320 1281.15 320V316ZM1202 957.08C1202 955.931 1201.07 955 1199.92 955V959C1198.86 959 1198 958.14 1198 957.08H1202ZM555.908 319.945C552.806 322.189 551 325.788 551 329.597H555C555 327.052 556.206 324.666 558.252 323.186L555.908 319.945ZM966.459 379.212C965.386 378.904 964.967 377.903 965.03 377.143C965.092 376.389 965.656 375.487 966.74 375.34L967.278 379.304C968.379 379.155 968.953 378.24 969.016 377.471C969.08 376.697 968.654 375.681 967.564 375.368L966.459 379.212ZM1441.96 488.829C1438.62 483.329 1442.55 476.25 1448.87 476.25V472.25C1439.32 472.25 1433.63 482.833 1438.54 490.906L1441.96 488.829ZM1668.4 1152.64C1676.53 1157.17 1687 1151.5 1687 1141.99H1683C1683 1148.26 1675.98 1152.28 1670.34 1149.14L1668.4 1152.64ZM977 45C970.373 45 965 50.3726 965 57H969C969 52.5817 972.582 49 977 49V45Z" fill="white" mask="url(#path-3-outside-2_33_365)"/>
<defs>
<linearGradient id="paint0_linear_33_365" x1="1111.18" y1="47" x2="1111.18" y2="1874" gradientUnits="userSpaceOnUse">
<stop stop-color="#BC93F1"/>
<stop offset="1" stop-color="#D2BCED"/>
</linearGradient>
<linearGradient id="paint1_linear_33_365" x1="1119" y1="47" x2="1119" y2="1874" gradientUnits="userSpaceOnUse">
<stop stop-color="#EF93F1"/>
<stop offset="1" stop-color="#ECBCED"/>
</linearGradient>
</defs>
</svg>
