<svg width="2300" height="2300" viewBox="0 0 2300 2300" fill="none" xmlns="http://www.w3.org/2000/svg">
<mask id="path-1-inside-1_29_279" fill="white">
<path fill-rule="evenodd" clip-rule="evenodd" d="M1153 57C1153 51.4772 1148.52 47 1143 47H977C971.477 47 967 51.4772 967 57V200.963C967 206.754 962.097 211.327 956.314 211.021C943.483 210.34 930.5 210 917.364 210C824.087 210 738.623 227.282 660.972 261.847C623.977 278.314 589.346 298.22 557.08 321.566C554.506 323.428 553 326.42 553 329.597V536.493C553 546.383 566.18 550.509 572.212 542.673C603.845 501.583 640.533 467.87 682.278 441.534C752.828 397.027 831.189 374.773 917.364 374.773C934.299 374.773 950.793 375.51 966.843 376.985C966.932 376.993 967 377.068 967 377.157V377.275C967 377.282 967.005 377.288 967.011 377.29C967.021 377.293 967.024 377.301 967.023 377.309C967.021 377.315 967.017 377.321 967.009 377.322C966.807 377.35 966.654 377.396 966.552 377.461C966.531 377.475 966.518 377.496 966.513 377.52C966.511 377.534 966.511 377.549 966.514 377.563L966.524 377.606C966.557 377.754 966.745 377.8 966.843 377.685L966.904 377.613C966.962 377.544 967.058 377.517 967.145 377.542C1064.82 405.85 1115.57 427.523 1199.64 475.014C1199.66 475.024 1199.68 475.029 1199.7 475.027C1199.8 475.018 1199.83 474.891 1199.74 474.839L1199.45 474.655C1199.26 474.538 1199.35 474.25 1199.57 474.25H1199.9C1199.97 474.25 1200.05 474.278 1200.1 474.328C1226.74 497.833 1250.15 525.017 1270.35 555.881C1294.68 591.933 1314.51 632.489 1329.84 677.549C1331.23 681.645 1335.06 684.432 1339.39 684.432H1501.9C1508.16 684.432 1512.89 678.737 1511.62 672.605C1497.95 606.696 1474.58 546.481 1441.51 491.96C1441.32 491.645 1441.13 491.331 1440.94 491.016C1440.71 490.633 1440.48 490.25 1440.25 489.867C1436.13 483.081 1440.93 474.25 1448.87 474.25H1475.52C1558.6 474.25 1622.42 490.889 1666.96 524.166C1674.05 529.462 1685 524.684 1685 515.833V358.647C1685 354.512 1682.46 350.794 1678.58 349.372C1621.49 328.457 1553.81 318 1475.52 318H1281.15C1279.11 318 1277.12 317.373 1275.43 316.217C1239.82 291.746 1201.15 271.309 1159.43 254.906C1155.57 253.387 1153 249.674 1153 245.523V57ZM553 1583.8C553 1586.99 554.515 1589.99 557.101 1591.85C567.54 1599.36 578.253 1606.55 589.239 1613.41C686.776 1674.02 799.939 1704.32 928.727 1704.32C938.078 1704.32 947.341 1704.16 956.518 1703.84C962.225 1703.65 967 1708.19 967 1713.9V1772.55V1864C967 1869.52 971.477 1874 977 1874H1143C1148.52 1874 1153 1869.52 1153 1864V1782.55C1153 1777.02 1157.48 1772.55 1163 1772.55H1492.57C1562.12 1772.55 1623.73 1766.27 1677.4 1753.71C1681.88 1752.66 1685 1748.65 1685 1744.06V1599.18C1685 1591.9 1677.46 1587.03 1670.67 1589.65C1624.63 1607.41 1565.26 1616.3 1492.57 1616.3H1297.59C1287.52 1616.3 1283.51 1602.68 1291.73 1596.84C1354.89 1551.97 1406.24 1494.99 1445.77 1425.91C1496.91 1337.37 1522.48 1233.2 1522.48 1113.41C1522.48 1112.16 1523.53 1111.16 1524.78 1111.23C1578.31 1114.06 1625.34 1126.63 1665.86 1148.97C1667.04 1149.6 1668.21 1150.24 1669.37 1150.89C1676.26 1154.72 1685 1149.88 1685 1141.99V899.7C1685 890.777 1673.97 886.098 1667.08 891.772C1651.06 904.972 1633.14 916.366 1613.31 925.955C1572.32 945.993 1526.51 956.395 1475.89 957.159H1200.08C1200.04 957.159 1200 957.123 1200 957.08C1200 957.062 1199.99 957.045 1199.98 957.031C1199.97 957.012 1199.95 957 1199.92 957H977C971.477 957 967 961.477 967 967V1104C967 1109.52 971.477 1114 977 1114H1199.7C1199.87 1114 1200 1113.87 1200 1113.7C1200 1113.54 1200.13 1113.41 1200.3 1113.41H1341.75C1347.34 1113.41 1351.85 1118 1351.66 1123.59C1348.97 1203.61 1331.1 1273.84 1298.05 1334.29C1262.53 1399.63 1212.82 1450.29 1148.9 1486.28C1147.28 1487.19 1145.65 1488.08 1144.01 1488.97C1144 1488.97 1144 1488.98 1144 1488.99C1144 1488.99 1144 1489 1143.99 1489.01L1143.76 1489.1C1143.56 1489.21 1143.37 1489.32 1143.17 1489.42C1143.16 1489.43 1143.16 1489.43 1143.15 1489.42C1143.14 1489.42 1143.14 1489.41 1143.14 1489.4C1143.14 1489.4 1143.13 1489.39 1143.13 1489.39C1143.12 1489.38 1143.11 1489.38 1143.11 1489.38C1079.36 1516.78 1040.17 1527.32 967.12 1537.98C967.052 1537.99 967 1538.05 967 1538.12C967 1538.19 966.944 1538.25 966.871 1538.26C954.397 1539.12 941.682 1539.55 928.727 1539.55C838.765 1539.55 757.799 1517.29 685.83 1472.78C642.559 1446.02 604.68 1411.65 572.192 1369.66C566.148 1361.84 553 1365.98 553 1375.86V1583.8ZM503.344 1363.92C505.043 1365.79 506 1368.21 506 1370.74V1575.98C506 1576.38 505.576 1576.62 505.239 1576.42C408.174 1519.23 332.417 1437.9 277.966 1332.45C223.989 1227 197 1101.89 197 957.117C197 848.538 212.388 750.906 243.165 664.221C274.415 577.089 318.449 502.916 375.267 441.7C409.98 404.3 448.582 372.238 491.071 345.512C497.616 341.396 506 346.176 506 353.908V541.558C506 544.073 505.049 546.493 503.359 548.355C475.274 579.317 450.806 615.257 429.955 656.178C388.288 737.948 367.455 838.261 367.455 957.117C367.455 1075.97 388.525 1176.29 430.665 1258.06C451.311 1298.12 475.537 1333.41 503.344 1363.92ZM1744.37 1743.1C1738.1 1744.81 1732 1740.03 1732 1733.53V1585.01C1732 1581.09 1734.3 1577.55 1737.83 1575.83C1755.88 1567.05 1771.47 1556.63 1784.6 1544.57C1833.37 1499.72 1857.75 1445.43 1857.75 1381.69C1857.75 1332.59 1845.2 1287.27 1820.11 1245.73C1799.48 1211.19 1771.65 1182.39 1736.63 1159.34C1733.77 1157.45 1732 1154.27 1732 1150.84V876.597C1732 873.95 1733.06 871.417 1734.89 869.511C1745.1 858.926 1754.32 847.422 1762.58 834.998C1788.15 797.229 1800.93 752.852 1800.93 701.865C1800.93 638.131 1778.68 584.075 1734.17 539.698C1732.79 538.311 1732 536.447 1732 534.494V364.874C1732 357.857 1739.04 353.03 1745.49 355.789C1755.06 359.882 1764.31 364.297 1773.23 369.033C1839.05 403.496 1888.05 449.998 1920.25 508.539C1952.45 566.607 1968.55 631.049 1968.55 701.865C1968.55 764.182 1957.42 815.641 1935.16 856.242C1913.38 896.843 1884.5 928.946 1848.52 952.551C1814.75 974.996 1778.2 991.892 1738.87 1003.24C1735.27 1004.28 1732.75 1007.56 1732.75 1011.31C1732.75 1015.7 1736.16 1019.32 1740.53 1019.74C1782.47 1023.81 1824.62 1039.18 1866.98 1065.86C1911.96 1094.18 1949.61 1134.78 1979.91 1187.66C2010.21 1240.53 2025.36 1305.21 2025.36 1381.69C2025.36 1454.4 2008.79 1519.78 1975.65 1577.85C1942.5 1635.92 1890.18 1681.95 1818.69 1715.94C1796.07 1726.69 1771.3 1735.74 1744.37 1743.1Z"/>
</mask>
<path fill-rule="evenodd" clip-rule="evenodd" d="M1153 57C1153 51.4772 1148.52 47 1143 47H977C971.477 47 967 51.4772 967 57V200.963C967 206.754 962.097 211.327 956.314 211.021C943.483 210.34 930.5 210 917.364 210C824.087 210 738.623 227.282 660.972 261.847C623.977 278.314 589.346 298.22 557.08 321.566C554.506 323.428 553 326.42 553 329.597V536.493C553 546.383 566.18 550.509 572.212 542.673C603.845 501.583 640.533 467.87 682.278 441.534C752.828 397.027 831.189 374.773 917.364 374.773C934.299 374.773 950.793 375.51 966.843 376.985C966.932 376.993 967 377.068 967 377.157V377.275C967 377.282 967.005 377.288 967.011 377.29C967.021 377.293 967.024 377.301 967.023 377.309C967.021 377.315 967.017 377.321 967.009 377.322C966.807 377.35 966.654 377.396 966.552 377.461C966.531 377.475 966.518 377.496 966.513 377.52C966.511 377.534 966.511 377.549 966.514 377.563L966.524 377.606C966.557 377.754 966.745 377.8 966.843 377.685L966.904 377.613C966.962 377.544 967.058 377.517 967.145 377.542C1064.82 405.85 1115.57 427.523 1199.64 475.014C1199.66 475.024 1199.68 475.029 1199.7 475.027C1199.8 475.018 1199.83 474.891 1199.74 474.839L1199.45 474.655C1199.26 474.538 1199.35 474.25 1199.57 474.25H1199.9C1199.97 474.25 1200.05 474.278 1200.1 474.328C1226.74 497.833 1250.15 525.017 1270.35 555.881C1294.68 591.933 1314.51 632.489 1329.84 677.549C1331.23 681.645 1335.06 684.432 1339.39 684.432H1501.9C1508.16 684.432 1512.89 678.737 1511.62 672.605C1497.95 606.696 1474.58 546.481 1441.51 491.96C1441.32 491.645 1441.13 491.331 1440.94 491.016C1440.71 490.633 1440.48 490.25 1440.25 489.867C1436.13 483.081 1440.93 474.25 1448.87 474.25H1475.52C1558.6 474.25 1622.42 490.889 1666.96 524.166C1674.05 529.462 1685 524.684 1685 515.833V358.647C1685 354.512 1682.46 350.794 1678.58 349.372C1621.49 328.457 1553.81 318 1475.52 318H1281.15C1279.11 318 1277.12 317.373 1275.43 316.217C1239.82 291.746 1201.15 271.309 1159.43 254.906C1155.57 253.387 1153 249.674 1153 245.523V57ZM553 1583.8C553 1586.99 554.515 1589.99 557.101 1591.85C567.54 1599.36 578.253 1606.55 589.239 1613.41C686.776 1674.02 799.939 1704.32 928.727 1704.32C938.078 1704.32 947.341 1704.16 956.518 1703.84C962.225 1703.65 967 1708.19 967 1713.9V1772.55V1864C967 1869.52 971.477 1874 977 1874H1143C1148.52 1874 1153 1869.52 1153 1864V1782.55C1153 1777.02 1157.48 1772.55 1163 1772.55H1492.57C1562.12 1772.55 1623.73 1766.27 1677.4 1753.71C1681.88 1752.66 1685 1748.65 1685 1744.06V1599.18C1685 1591.9 1677.46 1587.03 1670.67 1589.65C1624.63 1607.41 1565.26 1616.3 1492.57 1616.3H1297.59C1287.52 1616.3 1283.51 1602.68 1291.73 1596.84C1354.89 1551.97 1406.24 1494.99 1445.77 1425.91C1496.91 1337.37 1522.48 1233.2 1522.48 1113.41C1522.48 1112.16 1523.53 1111.16 1524.78 1111.23C1578.31 1114.06 1625.34 1126.63 1665.86 1148.97C1667.04 1149.6 1668.21 1150.24 1669.37 1150.89C1676.26 1154.72 1685 1149.88 1685 1141.99V899.7C1685 890.777 1673.97 886.098 1667.08 891.772C1651.06 904.972 1633.14 916.366 1613.31 925.955C1572.32 945.993 1526.51 956.395 1475.89 957.159H1200.08C1200.04 957.159 1200 957.123 1200 957.08C1200 957.062 1199.99 957.045 1199.98 957.031C1199.97 957.012 1199.95 957 1199.92 957H977C971.477 957 967 961.477 967 967V1104C967 1109.52 971.477 1114 977 1114H1199.7C1199.87 1114 1200 1113.87 1200 1113.7C1200 1113.54 1200.13 1113.41 1200.3 1113.41H1341.75C1347.34 1113.41 1351.85 1118 1351.66 1123.59C1348.97 1203.61 1331.1 1273.84 1298.05 1334.29C1262.53 1399.63 1212.82 1450.29 1148.9 1486.28C1147.28 1487.19 1145.65 1488.08 1144.01 1488.97C1144 1488.97 1144 1488.98 1144 1488.99C1144 1488.99 1144 1489 1143.99 1489.01L1143.76 1489.1C1143.56 1489.21 1143.37 1489.32 1143.17 1489.42C1143.16 1489.43 1143.16 1489.43 1143.15 1489.42C1143.14 1489.42 1143.14 1489.41 1143.14 1489.4C1143.14 1489.4 1143.13 1489.39 1143.13 1489.39C1143.12 1489.38 1143.11 1489.38 1143.11 1489.38C1079.36 1516.78 1040.17 1527.32 967.12 1537.98C967.052 1537.99 967 1538.05 967 1538.12C967 1538.19 966.944 1538.25 966.871 1538.26C954.397 1539.12 941.682 1539.55 928.727 1539.55C838.765 1539.55 757.799 1517.29 685.83 1472.78C642.559 1446.02 604.68 1411.65 572.192 1369.66C566.148 1361.84 553 1365.98 553 1375.86V1583.8ZM503.344 1363.92C505.043 1365.79 506 1368.21 506 1370.74V1575.98C506 1576.38 505.576 1576.62 505.239 1576.42C408.174 1519.23 332.417 1437.9 277.966 1332.45C223.989 1227 197 1101.89 197 957.117C197 848.538 212.388 750.906 243.165 664.221C274.415 577.089 318.449 502.916 375.267 441.7C409.98 404.3 448.582 372.238 491.071 345.512C497.616 341.396 506 346.176 506 353.908V541.558C506 544.073 505.049 546.493 503.359 548.355C475.274 579.317 450.806 615.257 429.955 656.178C388.288 737.948 367.455 838.261 367.455 957.117C367.455 1075.97 388.525 1176.29 430.665 1258.06C451.311 1298.12 475.537 1333.41 503.344 1363.92ZM1744.37 1743.1C1738.1 1744.81 1732 1740.03 1732 1733.53V1585.01C1732 1581.09 1734.3 1577.55 1737.83 1575.83C1755.88 1567.05 1771.47 1556.63 1784.6 1544.57C1833.37 1499.72 1857.75 1445.43 1857.75 1381.69C1857.75 1332.59 1845.2 1287.27 1820.11 1245.73C1799.48 1211.19 1771.65 1182.39 1736.63 1159.34C1733.77 1157.45 1732 1154.27 1732 1150.84V876.597C1732 873.95 1733.06 871.417 1734.89 869.511C1745.1 858.926 1754.32 847.422 1762.58 834.998C1788.15 797.229 1800.93 752.852 1800.93 701.865C1800.93 638.131 1778.68 584.075 1734.17 539.698C1732.79 538.311 1732 536.447 1732 534.494V364.874C1732 357.857 1739.04 353.03 1745.49 355.789C1755.06 359.882 1764.31 364.297 1773.23 369.033C1839.05 403.496 1888.05 449.998 1920.25 508.539C1952.45 566.607 1968.55 631.049 1968.55 701.865C1968.55 764.182 1957.42 815.641 1935.16 856.242C1913.38 896.843 1884.5 928.946 1848.52 952.551C1814.75 974.996 1778.2 991.892 1738.87 1003.24C1735.27 1004.28 1732.75 1007.56 1732.75 1011.31C1732.75 1015.7 1736.16 1019.32 1740.53 1019.74C1782.47 1023.81 1824.62 1039.18 1866.98 1065.86C1911.96 1094.18 1949.61 1134.78 1979.91 1187.66C2010.21 1240.53 2025.36 1305.21 2025.36 1381.69C2025.36 1454.4 2008.79 1519.78 1975.65 1577.85C1942.5 1635.92 1890.18 1681.95 1818.69 1715.94C1796.07 1726.69 1771.3 1735.74 1744.37 1743.1Z" fill="#AB42D0"/>
<path d="M956.314 211.021L956.42 209.023L956.42 209.023L956.314 211.021ZM660.972 261.847L660.158 260.019L660.158 260.019L660.972 261.847ZM557.08 321.566L558.252 323.186L558.252 323.186L557.08 321.566ZM572.212 542.673L573.797 543.893L573.797 543.893L572.212 542.673ZM682.278 441.534L683.346 443.226L683.346 443.226L682.278 441.534ZM966.843 376.985L966.66 378.977L966.661 378.977L966.843 376.985ZM967.011 377.29L966.457 379.212L966.459 379.212L967.011 377.29ZM967.023 377.309L968.988 377.682L968.99 377.67L967.023 377.309ZM967.009 377.322L967.277 379.304L967.278 379.304L967.009 377.322ZM966.552 377.461L967.629 379.146L967.632 379.145L966.552 377.461ZM966.513 377.52L964.548 377.147L964.547 377.152L966.513 377.52ZM966.514 377.563L968.466 377.127L968.465 377.121L966.514 377.563ZM966.524 377.606L964.572 378.043L964.572 378.044L966.524 377.606ZM966.843 377.685L965.32 376.389L965.319 376.389L966.843 377.685ZM966.904 377.613L968.427 378.91L968.427 378.909L966.904 377.613ZM967.145 377.542L967.702 375.621L967.701 375.621L967.145 377.542ZM1199.64 475.014L1200.63 473.273L1200.62 473.272L1199.64 475.014ZM1199.7 475.027L1199.88 477.019L1199.88 477.019L1199.7 475.027ZM1199.74 474.839L1200.81 473.146L1200.81 473.145L1199.74 474.839ZM1199.45 474.655L1200.51 472.961L1200.51 472.961L1199.45 474.655ZM1200.1 474.328L1201.43 472.829L1201.43 472.828L1200.1 474.328ZM1270.35 555.881L1268.67 556.976L1268.68 556.988L1268.69 557L1270.35 555.881ZM1329.84 677.549L1331.74 676.905L1331.74 676.905L1329.84 677.549ZM1511.62 672.605L1509.66 673.011L1509.66 673.011L1511.62 672.605ZM1441.51 491.96L1439.8 492.991L1439.8 492.997L1441.51 491.96ZM1440.94 491.016L1439.23 492.05L1439.23 492.051L1440.94 491.016ZM1440.25 489.867L1441.96 488.83L1441.96 488.829L1440.25 489.867ZM1666.96 524.166L1665.77 525.768L1665.77 525.768L1666.96 524.166ZM1678.58 349.372L1677.89 351.25L1677.89 351.25L1678.58 349.372ZM1275.43 316.217L1276.57 314.569L1276.57 314.569L1275.43 316.217ZM1159.43 254.906L1158.7 256.767L1158.7 256.767L1159.43 254.906ZM557.101 1591.85L558.269 1590.23L558.269 1590.23L557.101 1591.85ZM589.239 1613.41L588.179 1615.11L588.183 1615.11L589.239 1613.41ZM956.518 1703.84L956.586 1705.84L956.586 1705.84L956.518 1703.84ZM1677.4 1753.71L1677.86 1755.65L1677.86 1755.65L1677.4 1753.71ZM1670.67 1589.65L1671.39 1591.51L1671.39 1591.51L1670.67 1589.65ZM1291.73 1596.84L1290.57 1595.21L1290.57 1595.21L1291.73 1596.84ZM1445.77 1425.91L1444.04 1424.91L1444.04 1424.92L1445.77 1425.91ZM1524.78 1111.23L1524.88 1109.23L1524.88 1109.23L1524.78 1111.23ZM1665.86 1148.97L1664.9 1150.72L1664.91 1150.72L1664.91 1150.73L1665.86 1148.97ZM1669.37 1150.89L1668.4 1152.64L1668.4 1152.64L1669.37 1150.89ZM1667.08 891.772L1665.81 890.228L1665.81 890.228L1667.08 891.772ZM1613.31 925.955L1612.44 924.154L1612.43 924.158L1613.31 925.955ZM1475.89 957.159V959.159H1475.9L1475.92 959.159L1475.89 957.159ZM1199.98 957.031L1198.39 958.24L1198.39 958.24L1199.98 957.031ZM1351.66 1123.59L1349.67 1123.52L1349.67 1123.52L1351.66 1123.59ZM1298.05 1334.29L1296.29 1333.33L1296.29 1333.33L1298.05 1334.29ZM1148.9 1486.28L1149.87 1488.02L1149.88 1488.02L1148.9 1486.28ZM1144.01 1488.97L1144.96 1490.73L1144.96 1490.73L1144.01 1488.97ZM1143.99 1489.01L1143.2 1487.17L1143.2 1487.17L1143.99 1489.01ZM1143.76 1489.1L1142.97 1487.27L1142.89 1487.3L1142.81 1487.34L1143.76 1489.1ZM1143.17 1489.42L1144.11 1491.18L1144.11 1491.18L1143.17 1489.42ZM1143.15 1489.42L1143.83 1487.54L1143.82 1487.54L1143.81 1487.54L1143.15 1489.42ZM1143.13 1489.39L1144.09 1487.63L1144.09 1487.63L1143.13 1489.39ZM1143.11 1489.38L1143.9 1491.22L1143.9 1491.22L1143.11 1489.38ZM967.12 1537.98L966.831 1536L966.829 1536L967.12 1537.98ZM966.871 1538.26L967.008 1540.25L967.008 1540.25L966.871 1538.26ZM685.83 1472.78L684.778 1474.49L684.778 1474.49L685.83 1472.78ZM572.192 1369.66L570.61 1370.88L570.61 1370.88L572.192 1369.66ZM503.344 1363.92L504.822 1362.58L504.822 1362.58L503.344 1363.92ZM505.239 1576.42L504.223 1578.14L504.227 1578.15L505.239 1576.42ZM277.966 1332.45L276.186 1333.36L276.189 1333.37L277.966 1332.45ZM243.165 664.221L241.282 663.546L241.28 663.552L243.165 664.221ZM375.267 441.7L376.733 443.061L376.733 443.061L375.267 441.7ZM491.071 345.512L492.136 347.205L492.136 347.205L491.071 345.512ZM503.359 548.355L504.84 549.699L504.84 549.699L503.359 548.355ZM429.955 656.178L431.737 657.086L431.737 657.086L429.955 656.178ZM430.665 1258.06L428.887 1258.97L428.887 1258.97L430.665 1258.06ZM1744.37 1743.1L1743.84 1741.17L1743.84 1741.17L1744.37 1743.1ZM1737.83 1575.83L1736.96 1574.03L1736.96 1574.03L1737.83 1575.83ZM1784.6 1544.57L1785.95 1546.04L1785.95 1546.04L1784.6 1544.57ZM1820.11 1245.73L1818.39 1246.75L1818.4 1246.76L1820.11 1245.73ZM1736.63 1159.34L1735.53 1161.01L1735.53 1161.01L1736.63 1159.34ZM1734.89 869.511L1733.45 868.123L1733.45 868.123L1734.89 869.511ZM1762.58 834.998L1760.92 833.876L1760.92 833.884L1760.91 833.891L1762.58 834.998ZM1734.17 539.698L1732.75 541.106L1732.76 541.114L1734.17 539.698ZM1745.49 355.789L1746.28 353.95L1746.28 353.95L1745.49 355.789ZM1773.23 369.033L1772.3 370.799L1772.31 370.805L1773.23 369.033ZM1920.25 508.539L1918.5 509.503L1918.5 509.509L1920.25 508.539ZM1935.16 856.242L1933.41 855.281L1933.41 855.289L1933.4 855.297L1935.16 856.242ZM1848.52 952.551L1847.42 950.879L1847.41 950.886L1848.52 952.551ZM1738.87 1003.24L1738.32 1001.32L1738.32 1001.32L1738.87 1003.24ZM1740.53 1019.74L1740.72 1017.75L1740.72 1017.75L1740.53 1019.74ZM1866.98 1065.86L1865.92 1067.55L1865.92 1067.55L1866.98 1065.86ZM1979.91 1187.66L1981.64 1186.66L1981.64 1186.66L1979.91 1187.66ZM1975.65 1577.85L1973.91 1576.86L1973.91 1576.86L1975.65 1577.85ZM1818.69 1715.94L1817.83 1714.13L1817.83 1714.13L1818.69 1715.94ZM1143 49C1147.42 49 1151 52.5817 1151 57H1155C1155 50.3726 1149.63 45 1143 45V49ZM977 49H1143V45H977V49ZM969 57C969 52.5817 972.582 49 977 49V45C970.373 45 965 50.3726 965 57H969ZM969 200.963V57H965V200.963H969ZM956.208 213.018C963.115 213.384 969 207.92 969 200.963H965C965 205.587 961.078 209.271 956.42 209.023L956.208 213.018ZM917.364 212C930.465 212 943.413 212.339 956.208 213.018L956.42 209.023C943.553 208.341 930.534 208 917.364 208V212ZM661.785 263.674C739.156 229.234 824.34 212 917.364 212V208C823.834 208 738.09 225.33 660.158 260.019L661.785 263.674ZM558.252 323.186C590.404 299.923 624.914 280.086 661.785 263.674L660.158 260.019C623.039 276.542 588.288 296.517 555.908 319.945L558.252 323.186ZM555 329.597C555 327.052 556.206 324.666 558.252 323.186L555.908 319.945C552.806 322.189 551 325.788 551 329.597H555ZM555 536.493V329.597H551V536.493H555ZM570.627 541.453C568.203 544.603 564.327 545.399 560.95 544.324C557.584 543.253 555 540.422 555 536.493H551C551 542.455 555.006 546.631 559.738 548.136C564.459 549.638 570.189 548.58 573.797 543.893L570.627 541.453ZM681.211 439.843C639.257 466.31 602.396 500.186 570.627 541.453L573.797 543.893C605.293 502.98 641.809 469.43 683.346 443.226L681.211 439.843ZM917.364 372.773C830.825 372.773 752.091 395.127 681.211 439.843L683.346 443.226C753.564 398.927 831.554 376.773 917.364 376.773V372.773ZM967.026 374.994C950.912 373.513 934.357 372.773 917.364 372.773V376.773C934.241 376.773 950.673 377.508 966.66 378.977L967.026 374.994ZM969 377.157C969 376.036 968.146 375.096 967.026 374.994L966.661 378.977C965.718 378.89 965 378.099 965 377.157H969ZM969 377.275V377.157H965V377.275H969ZM967.565 375.368C968.408 375.611 969 376.383 969 377.275H965C965 378.181 965.602 378.965 966.457 379.212L967.565 375.368ZM968.99 377.67C969.135 376.878 968.769 375.714 967.563 375.368L966.459 379.212C965.272 378.871 964.913 377.724 965.055 376.948L968.99 377.67ZM967.278 379.304C968.268 379.17 968.852 378.398 968.988 377.682L965.058 376.936C965.191 376.233 965.766 375.473 966.74 375.34L967.278 379.304ZM967.632 379.145C967.487 379.238 967.37 379.277 967.324 379.291C967.273 379.307 967.253 379.307 967.277 379.304L966.74 375.34C966.426 375.383 965.935 375.481 965.472 375.777L967.632 379.145ZM968.478 377.893C968.393 378.342 968.127 378.828 967.629 379.146L965.475 375.776C964.935 376.121 964.643 376.65 964.548 377.147L968.478 377.893ZM968.465 377.121C968.521 377.37 968.527 377.631 968.479 377.887L964.547 377.152C964.494 377.437 964.501 377.727 964.564 378.006L968.465 377.121ZM968.476 377.17L968.466 377.127L964.562 378L964.572 378.043L968.476 377.17ZM965.319 376.389C966.291 375.247 968.147 375.707 968.475 377.168L964.572 378.044C964.967 379.801 967.198 380.353 968.366 378.981L965.319 376.389ZM965.381 376.317L965.32 376.389L968.366 378.981L968.427 378.91L965.381 376.317ZM967.701 375.621C966.879 375.383 965.963 375.633 965.38 376.318L968.427 378.909C967.962 379.456 967.237 379.651 966.589 379.463L967.701 375.621ZM1200.62 473.272C1116.41 425.706 1065.53 403.972 967.702 375.621L966.588 379.463C1064.12 407.727 1114.72 429.341 1198.66 476.755L1200.62 473.272ZM1199.52 473.035C1199.91 473 1200.3 473.088 1200.63 473.273L1198.65 476.754C1199.02 476.96 1199.44 477.057 1199.88 477.019L1199.52 473.035ZM1198.68 476.532C1197.14 475.563 1197.71 473.196 1199.52 473.035L1199.88 477.019C1201.88 476.84 1202.52 474.219 1200.81 473.146L1198.68 476.532ZM1198.39 476.349L1198.68 476.533L1200.81 473.145L1200.51 472.961L1198.39 476.349ZM1199.57 472.25C1197.33 472.25 1196.51 475.168 1198.39 476.349L1200.51 472.961C1202.02 473.908 1201.36 476.25 1199.57 476.25V472.25ZM1199.9 472.25H1199.57V476.25H1199.9V472.25ZM1201.43 472.828C1201 472.456 1200.46 472.25 1199.9 472.25V476.25C1199.49 476.25 1199.09 476.1 1198.78 475.828L1201.43 472.828ZM1272.02 554.786C1251.73 523.778 1228.2 496.456 1201.43 472.829L1198.78 475.828C1225.27 499.209 1248.57 526.256 1268.67 556.976L1272.02 554.786ZM1331.74 676.905C1316.36 631.693 1296.45 590.974 1272 554.762L1268.69 557C1292.92 592.892 1312.67 633.286 1327.95 678.193L1331.74 676.905ZM1339.39 682.432C1335.93 682.432 1332.86 680.204 1331.74 676.905L1327.95 678.193C1329.61 683.086 1334.19 686.432 1339.39 686.432V682.432ZM1501.9 682.432H1339.39V686.432H1501.9V682.432ZM1509.66 673.011C1510.67 677.876 1506.92 682.432 1501.9 682.432V686.432C1509.41 686.432 1515.11 679.598 1513.58 672.198L1509.66 673.011ZM1439.8 492.997C1472.75 547.313 1496.04 607.312 1509.66 673.011L1513.58 672.198C1499.86 606.079 1476.42 545.649 1443.22 490.923L1439.8 492.997ZM1439.23 492.051C1439.42 492.364 1439.61 492.678 1439.8 492.991L1443.23 490.929C1443.04 490.613 1442.84 490.298 1442.65 489.982L1439.23 492.051ZM1438.54 490.905C1438.77 491.287 1439 491.669 1439.23 492.05L1442.65 489.982C1442.42 489.597 1442.19 489.213 1441.96 488.83L1438.54 490.905ZM1448.87 472.25C1439.32 472.25 1433.63 482.833 1438.54 490.906L1441.96 488.829C1438.62 483.329 1442.55 476.25 1448.87 476.25V472.25ZM1475.52 472.25H1448.87V476.25H1475.52V472.25ZM1668.16 522.563C1623.13 488.928 1558.83 472.25 1475.52 472.25V476.25C1558.37 476.25 1621.7 492.849 1665.77 525.768L1668.16 522.563ZM1683 515.833C1683 519.344 1680.85 522.111 1677.82 523.482C1674.77 524.86 1671.05 524.721 1668.16 522.563L1665.77 525.768C1669.97 528.907 1675.27 529.026 1679.47 527.127C1683.68 525.221 1687 521.173 1687 515.833H1683ZM1683 358.647V515.833H1687V358.647H1683ZM1677.89 351.25C1680.97 352.376 1683 355.331 1683 358.647H1687C1687 353.693 1683.96 349.212 1679.27 347.494L1677.89 351.25ZM1475.52 320C1553.64 320 1621.08 330.435 1677.89 351.25L1679.27 347.494C1621.91 326.479 1553.98 316 1475.52 316V320ZM1281.15 320H1475.52V316H1281.15V320ZM1274.3 317.866C1276.31 319.247 1278.7 320 1281.15 320V316C1279.52 316 1277.92 315.499 1276.57 314.569L1274.3 317.866ZM1158.7 256.767C1200.28 273.116 1238.81 293.483 1274.3 317.866L1276.57 314.569C1240.82 290.008 1202.02 269.501 1160.16 253.045L1158.7 256.767ZM1151 245.523C1151 250.51 1154.08 254.952 1158.7 256.767L1160.16 253.045C1157.05 251.822 1155 248.839 1155 245.523H1151ZM1151 57V245.523H1155V57H1151ZM558.269 1590.23C556.213 1588.75 555 1586.35 555 1583.8H551C551 1587.62 552.817 1591.23 555.932 1593.47L558.269 1590.23ZM590.298 1611.71C579.349 1604.88 568.673 1597.71 558.269 1590.23L555.932 1593.47C566.408 1601.01 577.157 1608.22 588.179 1615.11L590.298 1611.71ZM928.727 1702.32C800.266 1702.32 687.478 1672.1 590.294 1611.71L588.183 1615.11C686.075 1675.93 799.613 1706.32 928.727 1706.32V1702.32ZM956.449 1701.84C947.295 1702.16 938.055 1702.32 928.727 1702.32V1706.32C938.1 1706.32 947.386 1706.16 956.586 1705.84L956.449 1701.84ZM969 1713.9C969 1707.04 963.269 1701.61 956.449 1701.84L956.586 1705.84C961.181 1705.68 965 1709.34 965 1713.9H969ZM969 1772.55V1713.9H965V1772.55H969ZM969 1864V1772.55H965V1864H969ZM977 1872C972.582 1872 969 1868.42 969 1864H965C965 1870.63 970.373 1876 977 1876V1872ZM1143 1872H977V1876H1143V1872ZM1151 1864C1151 1868.42 1147.42 1872 1143 1872V1876C1149.63 1876 1155 1870.63 1155 1864H1151ZM1151 1782.55V1864H1155V1782.55H1151ZM1163 1770.55C1156.37 1770.55 1151 1775.92 1151 1782.55H1155C1155 1778.13 1158.58 1774.55 1163 1774.55V1770.55ZM1492.57 1770.55H1163V1774.55H1492.57V1770.55ZM1676.95 1751.76C1623.46 1764.28 1562 1770.55 1492.57 1770.55V1774.55C1562.23 1774.55 1624 1768.26 1677.86 1755.65L1676.95 1751.76ZM1683 1744.06C1683 1747.74 1680.5 1750.93 1676.95 1751.76L1677.86 1755.65C1683.25 1754.39 1687 1749.56 1687 1744.06H1683ZM1683 1599.18V1744.06H1687V1599.18H1683ZM1671.39 1591.51C1676.95 1589.37 1683 1593.39 1683 1599.18H1687C1687 1590.41 1677.97 1584.69 1669.95 1587.78L1671.39 1591.51ZM1492.57 1618.3C1565.4 1618.3 1625.04 1609.4 1671.39 1591.51L1669.95 1587.78C1624.22 1605.43 1565.12 1614.3 1492.57 1614.3V1618.3ZM1297.59 1618.3H1492.57V1614.3H1297.59V1618.3ZM1290.57 1595.21C1285.65 1598.71 1284.45 1604.51 1285.89 1609.33C1287.33 1614.15 1291.52 1618.3 1297.59 1618.3V1614.3C1293.59 1614.3 1290.75 1611.63 1289.72 1608.19C1288.69 1604.73 1289.59 1600.82 1292.89 1598.47L1290.57 1595.21ZM1444.04 1424.92C1404.65 1493.76 1353.49 1550.51 1290.57 1595.21L1292.89 1598.47C1356.3 1553.43 1407.84 1496.23 1447.51 1426.9L1444.04 1424.92ZM1520.48 1113.41C1520.48 1232.91 1494.97 1336.72 1444.04 1424.91L1447.5 1426.91C1498.84 1338.02 1524.48 1233.49 1524.48 1113.41H1520.48ZM1524.88 1109.23C1522.49 1109.1 1520.48 1111.01 1520.48 1113.41H1524.48C1524.48 1113.3 1524.57 1113.22 1524.67 1113.23L1524.88 1109.23ZM1666.83 1147.21C1626 1124.72 1578.67 1112.07 1524.88 1109.23L1524.67 1113.23C1577.95 1116.04 1624.67 1128.55 1664.9 1150.72L1666.83 1147.21ZM1670.34 1149.14C1669.17 1148.49 1668 1147.85 1666.82 1147.21L1664.91 1150.73C1666.08 1151.36 1667.24 1151.99 1668.4 1152.64L1670.34 1149.14ZM1683 1141.99C1683 1148.26 1675.98 1152.28 1670.34 1149.14L1668.4 1152.64C1676.53 1157.17 1687 1151.5 1687 1141.99H1683ZM1683 899.7V1141.99H1687V899.7H1683ZM1668.36 893.315C1674.08 888.596 1683 892.654 1683 899.7H1687C1687 888.9 1673.86 883.6 1665.81 890.228L1668.36 893.315ZM1614.18 927.755C1634.14 918.101 1652.21 906.622 1668.36 893.315L1665.81 890.228C1649.92 903.321 1632.13 914.63 1612.44 924.154L1614.18 927.755ZM1475.92 959.159C1526.8 958.391 1572.9 947.933 1614.19 927.751L1612.43 924.158C1571.73 944.054 1526.22 954.399 1475.86 955.159L1475.92 959.159ZM1200.08 959.159H1475.89V955.159H1200.08V959.159ZM1198 957.08C1198 958.229 1198.93 959.159 1200.08 959.159V955.159C1201.14 955.159 1202 956.018 1202 957.08H1198ZM1198.39 958.24C1198.15 957.919 1198 957.515 1198 957.08H1202C1202 956.608 1201.84 956.17 1201.58 955.823L1198.39 958.24ZM1199.92 959C1199.3 959 1198.74 958.7 1198.39 958.24L1201.58 955.823C1201.2 955.325 1200.6 955 1199.92 955V959ZM977 959H1199.92V955H977V959ZM969 967C969 962.582 972.582 959 977 959V955C970.373 955 965 960.373 965 967H969ZM969 1104V967H965V1104H969ZM977 1112C972.582 1112 969 1108.42 969 1104H965C965 1110.63 970.373 1116 977 1116V1112ZM1199.7 1112H977V1116H1199.7V1112ZM1198 1113.7C1198 1112.76 1198.76 1112 1199.7 1112V1116C1200.97 1116 1202 1114.97 1202 1113.7H1198ZM1200.3 1111.41C1199.03 1111.41 1198 1112.44 1198 1113.7H1202C1202 1114.65 1201.24 1115.41 1200.3 1115.41V1111.41ZM1341.75 1111.41H1200.3V1115.41H1341.75V1111.41ZM1353.66 1123.66C1353.89 1116.92 1348.45 1111.41 1341.75 1111.41V1115.41C1346.23 1115.41 1349.81 1119.08 1349.67 1123.52L1353.66 1123.66ZM1299.8 1335.25C1333.02 1274.49 1350.96 1203.94 1353.66 1123.66L1349.67 1123.52C1346.98 1203.28 1329.17 1273.2 1296.29 1333.33L1299.8 1335.25ZM1149.88 1488.02C1214.13 1451.85 1264.11 1400.91 1299.8 1335.24L1296.29 1333.33C1260.95 1398.35 1211.5 1448.74 1147.92 1484.54L1149.88 1488.02ZM1144.96 1490.73C1146.61 1489.84 1148.24 1488.94 1149.87 1488.02L1147.92 1484.53C1146.31 1485.44 1144.69 1486.33 1143.06 1487.21L1144.96 1490.73ZM1146 1488.99C1146 1489.71 1145.6 1490.38 1144.96 1490.73L1143.06 1487.21C1142.41 1487.56 1142 1488.25 1142 1488.99H1146ZM1144.78 1490.84C1145.53 1490.52 1146 1489.78 1146 1488.99H1142C1142 1488.21 1142.46 1487.48 1143.2 1487.17L1144.78 1490.84ZM1144.55 1490.94L1144.78 1490.84L1143.2 1487.17L1142.97 1487.27L1144.55 1490.94ZM1144.11 1491.18C1144.31 1491.08 1144.51 1490.97 1144.71 1490.86L1142.81 1487.34C1142.61 1487.45 1142.42 1487.56 1142.22 1487.66L1144.11 1491.18ZM1142.47 1491.3C1142.97 1491.49 1143.57 1491.48 1144.11 1491.18L1142.22 1487.66C1142.75 1487.37 1143.35 1487.37 1143.83 1487.54L1142.47 1491.3ZM1141.14 1489.4C1141.14 1490.32 1141.74 1491.05 1142.49 1491.31L1143.81 1487.54C1144.55 1487.8 1145.14 1488.51 1145.14 1489.4H1141.14ZM1142.16 1491.14C1141.6 1490.83 1141.14 1490.2 1141.14 1489.4H1145.14C1145.14 1488.59 1144.67 1487.95 1144.09 1487.63L1142.16 1491.14ZM1143.9 1491.22C1143.29 1491.48 1142.65 1491.41 1142.16 1491.14L1144.09 1487.63C1143.59 1487.36 1142.94 1487.28 1142.32 1487.55L1143.9 1491.22ZM967.409 1539.96C1040.61 1529.27 1079.97 1518.7 1143.9 1491.22L1142.32 1487.55C1078.75 1514.87 1039.73 1525.36 966.831 1536L967.409 1539.96ZM969 1538.12C969 1539.07 968.294 1539.83 967.411 1539.96L966.829 1536C965.81 1536.15 965 1537.03 965 1538.12H969ZM967.008 1540.25C968.131 1540.18 969 1539.24 969 1538.12H965C965 1537.14 965.756 1536.33 966.734 1536.26L967.008 1540.25ZM928.727 1541.55C941.726 1541.55 954.487 1541.11 967.008 1540.25L966.734 1536.26C954.307 1537.12 941.638 1537.55 928.727 1537.55V1541.55ZM684.778 1474.49C757.084 1519.2 838.418 1541.55 928.727 1541.55V1537.55C839.112 1537.55 758.515 1515.38 686.881 1471.08L684.778 1474.49ZM570.61 1370.88C603.238 1413.05 641.294 1447.59 684.778 1474.49L686.881 1471.08C643.823 1444.46 606.121 1410.24 573.774 1368.43L570.61 1370.88ZM555 1375.86C555 1371.93 557.578 1369.1 560.938 1368.03C564.309 1366.95 568.181 1367.74 570.61 1370.88L573.774 1368.43C570.159 1363.76 564.435 1362.71 559.721 1364.22C554.996 1365.73 551 1369.9 551 1375.86H555ZM555 1583.8V1375.86H551V1583.8H555ZM508 1370.74C508 1367.71 506.85 1364.8 504.822 1362.58L501.865 1365.27C503.235 1366.77 504 1368.72 504 1370.74H508ZM508 1575.98V1370.74H504V1575.98H508ZM504.227 1578.15C505.9 1579.13 508 1577.92 508 1575.98H504C504 1574.83 505.252 1574.11 506.25 1574.7L504.227 1578.15ZM276.189 1333.37C330.803 1439.14 406.816 1520.75 504.223 1578.14L506.254 1574.7C409.532 1517.71 334.03 1436.67 279.743 1331.54L276.189 1333.37ZM195 957.117C195 1102.14 222.035 1227.57 276.186 1333.36L279.746 1331.54C225.942 1226.43 199 1101.64 199 957.117H195ZM241.28 663.552C210.415 750.486 195 848.35 195 957.117H199C199 848.725 214.362 751.325 245.05 664.89L241.28 663.552ZM373.801 440.34C316.78 501.774 272.613 576.187 241.282 663.546L245.047 664.896C276.216 577.991 320.117 504.058 376.733 443.061L373.801 440.34ZM490.006 343.819C447.367 370.639 408.631 402.814 373.801 440.34L376.733 443.061C411.329 405.787 449.796 373.836 492.136 347.205L490.006 343.819ZM508 353.908C508 344.656 497.928 338.837 490.006 343.819L492.136 347.205C497.303 343.955 504 347.696 504 353.908H508ZM508 541.558V353.908H504V541.558H508ZM504.84 549.699C506.857 547.475 508 544.58 508 541.558H504C504 543.567 503.24 545.51 501.878 547.012L504.84 549.699ZM431.737 657.086C452.515 616.308 476.886 580.517 504.84 549.699L501.878 547.012C473.663 578.116 449.097 614.207 428.173 655.27L431.737 657.086ZM369.455 957.117C369.455 838.486 390.249 738.504 431.737 657.086L428.173 655.27C386.327 737.391 365.455 838.035 365.455 957.117H369.455ZM432.443 1257.14C390.485 1175.72 369.455 1075.74 369.455 957.117H365.455C365.455 1076.2 386.564 1176.85 428.887 1258.97L432.443 1257.14ZM504.822 1362.58C477.144 1332.2 453.016 1297.06 432.443 1257.14L428.887 1258.97C449.606 1299.18 473.93 1334.61 501.865 1365.27L504.822 1362.58ZM1730 1733.53C1730 1741.32 1737.32 1747.09 1744.9 1745.03L1743.84 1741.17C1738.88 1742.52 1734 1738.75 1734 1733.53H1730ZM1730 1585.01V1733.53H1734V1585.01H1730ZM1736.96 1574.03C1732.77 1576.07 1730 1580.29 1730 1585.01H1734C1734 1581.88 1735.84 1579.02 1738.71 1577.63L1736.96 1574.03ZM1783.24 1543.09C1770.28 1555.01 1754.86 1565.32 1736.96 1574.03L1738.71 1577.63C1756.91 1568.77 1772.67 1558.25 1785.95 1546.04L1783.24 1543.09ZM1855.75 1381.69C1855.75 1444.84 1831.62 1498.61 1783.24 1543.1L1785.95 1546.04C1835.11 1500.83 1859.75 1446.01 1859.75 1381.69H1855.75ZM1818.4 1246.76C1843.3 1287.99 1855.75 1332.95 1855.75 1381.69H1859.75C1859.75 1332.23 1847.11 1286.55 1821.82 1244.69L1818.4 1246.76ZM1735.53 1161.01C1770.31 1183.9 1797.92 1212.48 1818.39 1246.75L1821.82 1244.7C1801.04 1209.89 1772.99 1180.88 1737.73 1157.67L1735.53 1161.01ZM1730 1150.84C1730 1154.97 1732.12 1158.76 1735.53 1161.01L1737.73 1157.67C1735.41 1156.14 1734 1153.58 1734 1150.84H1730ZM1730 876.597V1150.84H1734V876.597H1730ZM1733.45 868.123C1731.27 870.389 1730 873.414 1730 876.597H1734C1734 874.485 1734.84 872.445 1736.33 870.899L1733.45 868.123ZM1760.91 833.891C1752.72 846.216 1743.57 857.626 1733.45 868.123L1736.33 870.899C1746.62 860.226 1755.92 848.627 1764.25 836.104L1760.91 833.891ZM1798.93 701.865C1798.93 752.501 1786.24 796.478 1760.92 833.876L1764.24 836.119C1790.05 797.981 1802.93 753.203 1802.93 701.865H1798.93ZM1732.76 541.114C1776.88 585.11 1798.93 638.654 1798.93 701.865H1802.93C1802.93 637.608 1780.47 583.04 1735.58 538.281L1732.76 541.114ZM1730 534.494C1730 536.993 1731.02 539.359 1732.75 541.106L1735.59 538.289C1734.57 537.264 1734 535.901 1734 534.494H1730ZM1730 364.874V534.494H1734V364.874H1730ZM1746.28 353.95C1738.45 350.603 1730 356.482 1730 364.874H1734C1734 359.232 1739.63 355.456 1744.7 357.628L1746.28 353.95ZM1774.17 367.266C1765.2 362.503 1755.9 358.065 1746.28 353.95L1744.7 357.628C1754.23 361.7 1763.42 366.091 1772.3 370.799L1774.17 367.266ZM1922 507.575C1889.6 448.652 1840.28 401.886 1774.16 367.261L1772.31 370.805C1837.81 405.107 1886.51 451.345 1918.5 509.503L1922 507.575ZM1970.55 701.865C1970.55 630.733 1954.37 565.954 1922 507.569L1918.5 509.509C1950.52 567.261 1966.55 631.365 1966.55 701.865H1970.55ZM1936.92 857.204C1959.38 816.224 1970.55 764.407 1970.55 701.865H1966.55C1966.55 763.958 1955.46 815.059 1933.41 855.281L1936.92 857.204ZM1849.61 954.223C1885.9 930.422 1915 898.061 1936.93 857.188L1933.4 855.297C1911.77 895.625 1883.11 927.469 1847.42 950.879L1849.61 954.223ZM1739.43 1005.16C1778.95 993.757 1815.69 976.776 1849.62 954.217L1847.41 950.886C1813.82 973.216 1777.45 990.026 1738.32 1001.32L1739.43 1005.16ZM1734.75 1011.31C1734.75 1008.47 1736.66 1005.96 1739.43 1005.16L1738.32 1001.32C1733.87 1002.6 1730.75 1006.65 1730.75 1011.31H1734.75ZM1740.72 1017.75C1737.34 1017.42 1734.75 1014.63 1734.75 1011.31H1730.75C1730.75 1016.77 1734.98 1021.21 1740.34 1021.73L1740.72 1017.75ZM1868.05 1064.16C1825.47 1037.35 1783.03 1021.85 1740.72 1017.75L1740.34 1021.73C1781.91 1025.76 1823.77 1041.01 1865.92 1067.55L1868.05 1064.16ZM1981.64 1186.66C1951.2 1133.55 1913.34 1092.69 1868.05 1064.16L1865.92 1067.55C1910.58 1095.68 1948.01 1136.02 1978.17 1188.65L1981.64 1186.66ZM2027.36 1381.69C2027.36 1304.95 2012.16 1239.91 1981.64 1186.66L1978.17 1188.65C2008.26 1241.16 2023.36 1305.47 2023.36 1381.69H2027.36ZM1977.38 1578.84C2010.72 1520.45 2027.36 1454.71 2027.36 1381.69H2023.36C2023.36 1454.08 2006.87 1519.12 1973.91 1576.86L1977.38 1578.84ZM1819.55 1717.75C1891.34 1683.61 1944 1637.33 1977.38 1578.84L1973.91 1576.86C1941 1634.51 1889.03 1680.29 1817.83 1714.13L1819.55 1717.75ZM1744.9 1745.03C1771.93 1737.65 1796.81 1728.56 1819.55 1717.75L1817.83 1714.13C1795.33 1724.83 1770.67 1733.84 1743.84 1741.17L1744.9 1745.03Z" fill="black" mask="url(#path-1-inside-1_29_279)"/>
<mask id="path-3-inside-2_29_279" fill="white">
<path fill-rule="evenodd" clip-rule="evenodd" d="M1153 57C1153 51.4772 1148.52 47 1143 47H977C971.477 47 967 51.4772 967 57V200.963C967 206.754 962.097 211.327 956.314 211.021C943.483 210.34 930.5 210 917.364 210C824.087 210 738.623 227.282 660.972 261.847C623.977 278.314 589.346 298.22 557.08 321.566C554.506 323.428 553 326.42 553 329.597V536.494C553 546.383 566.18 550.509 572.212 542.673C603.845 501.583 640.533 467.87 682.278 441.534C752.828 397.027 831.189 374.773 917.364 374.773C934.299 374.773 950.793 375.51 966.843 376.985C966.932 376.993 967 377.068 967 377.157V377.275C967 377.282 967.005 377.288 967.011 377.29V377.29C967.028 377.295 967.026 377.32 967.009 377.322C966.807 377.35 966.654 377.396 966.552 377.461C966.518 377.483 966.505 377.524 966.514 377.563L966.524 377.606C966.557 377.754 966.744 377.8 966.843 377.685L966.903 377.613C966.962 377.544 967.058 377.517 967.145 377.542C1064.82 405.85 1115.57 427.523 1199.64 475.014C1199.66 475.024 1199.68 475.029 1199.7 475.027V475.027C1199.8 475.018 1199.83 474.891 1199.74 474.839C1199.65 474.778 1199.55 474.716 1199.45 474.655C1199.26 474.538 1199.35 474.25 1199.57 474.25H1199.9C1199.97 474.25 1200.05 474.278 1200.1 474.328C1226.74 497.833 1250.15 525.017 1270.35 555.881C1294.68 591.933 1314.51 632.489 1329.84 677.549C1331.23 681.645 1335.06 684.432 1339.39 684.432H1501.9C1508.16 684.432 1512.89 678.737 1511.62 672.605C1497.95 606.696 1474.58 546.481 1441.51 491.96C1441.09 491.261 1440.67 490.564 1440.25 489.867C1436.13 483.081 1440.93 474.25 1448.87 474.25H1475.52C1558.6 474.25 1622.42 490.889 1666.96 524.166C1674.05 529.462 1685 524.684 1685 515.833V358.647C1685 354.512 1682.46 350.794 1678.58 349.372C1621.49 328.457 1553.81 318 1475.52 318H1281.15C1279.11 318 1277.12 317.373 1275.43 316.217C1239.82 291.746 1201.15 271.309 1159.43 254.906C1155.57 253.387 1153 249.674 1153 245.523V57ZM553 1583.8C553 1586.99 554.515 1589.99 557.101 1591.85C567.54 1599.36 578.253 1606.55 589.239 1613.41C686.776 1674.02 799.939 1704.32 928.727 1704.32C938.078 1704.32 947.341 1704.16 956.518 1703.84C962.225 1703.65 967 1708.19 967 1713.9V1772.55V1864C967 1869.52 971.477 1874 977 1874H1143C1148.52 1874 1153 1869.52 1153 1864V1782.55C1153 1777.02 1157.48 1772.55 1163 1772.55H1492.57C1562.12 1772.55 1623.73 1766.27 1677.4 1753.71C1681.88 1752.66 1685 1748.65 1685 1744.06V1599.18C1685 1591.9 1677.46 1587.03 1670.67 1589.65C1624.63 1607.41 1565.26 1616.3 1492.57 1616.3H1297.59C1287.52 1616.3 1283.51 1602.68 1291.73 1596.84C1354.89 1551.97 1406.24 1494.99 1445.77 1425.91C1496.91 1337.37 1522.48 1233.2 1522.48 1113.41V1113.41C1522.48 1112.16 1523.53 1111.16 1524.78 1111.23C1578.31 1114.06 1625.34 1126.63 1665.86 1148.97C1667.04 1149.6 1668.21 1150.24 1669.37 1150.89C1676.26 1154.72 1685 1149.88 1685 1141.99V899.7C1685 890.777 1673.97 886.098 1667.08 891.772C1651.06 904.972 1633.14 916.366 1613.31 925.955C1572.32 945.993 1526.51 956.395 1475.89 957.159H1200.08C1200.04 957.159 1200 957.123 1200 957.08V957.08C1200 957.036 1199.96 957 1199.92 957H977C971.477 957 967 961.477 967 967V1104C967 1109.52 971.477 1114 977 1114H1199.7C1199.87 1114 1200 1113.87 1200 1113.7V1113.7C1200 1113.54 1200.13 1113.41 1200.3 1113.41H1341.75C1347.34 1113.41 1351.85 1118 1351.66 1123.59C1348.97 1203.61 1331.1 1273.84 1298.05 1334.29C1262.53 1399.63 1212.82 1450.29 1148.9 1486.28C1147.28 1487.19 1145.65 1488.08 1144.01 1488.97C1144 1488.97 1144 1488.98 1144 1488.99V1488.99C1144 1488.99 1144 1489 1143.99 1489.01L1143.76 1489.1C1143.56 1489.21 1143.37 1489.32 1143.17 1489.42C1143.15 1489.43 1143.14 1489.42 1143.14 1489.4V1489.4C1143.14 1489.39 1143.12 1489.38 1143.11 1489.38C1079.36 1516.78 1040.17 1527.32 967.12 1537.98C967.052 1537.99 967 1538.05 967 1538.12V1538.12C967 1538.19 966.944 1538.25 966.871 1538.26C954.397 1539.12 941.682 1539.55 928.727 1539.55C838.765 1539.55 757.799 1517.29 685.83 1472.78C642.559 1446.02 604.68 1411.65 572.192 1369.66C566.148 1361.84 553 1365.98 553 1375.86V1583.8Z"/>
</mask>
<path fill-rule="evenodd" clip-rule="evenodd" d="M1153 57C1153 51.4772 1148.52 47 1143 47H977C971.477 47 967 51.4772 967 57V200.963C967 206.754 962.097 211.327 956.314 211.021C943.483 210.34 930.5 210 917.364 210C824.087 210 738.623 227.282 660.972 261.847C623.977 278.314 589.346 298.22 557.08 321.566C554.506 323.428 553 326.42 553 329.597V536.494C553 546.383 566.18 550.509 572.212 542.673C603.845 501.583 640.533 467.87 682.278 441.534C752.828 397.027 831.189 374.773 917.364 374.773C934.299 374.773 950.793 375.51 966.843 376.985C966.932 376.993 967 377.068 967 377.157V377.275C967 377.282 967.005 377.288 967.011 377.29V377.29C967.028 377.295 967.026 377.32 967.009 377.322C966.807 377.35 966.654 377.396 966.552 377.461C966.518 377.483 966.505 377.524 966.514 377.563L966.524 377.606C966.557 377.754 966.744 377.8 966.843 377.685L966.903 377.613C966.962 377.544 967.058 377.517 967.145 377.542C1064.82 405.85 1115.57 427.523 1199.64 475.014C1199.66 475.024 1199.68 475.029 1199.7 475.027V475.027C1199.8 475.018 1199.83 474.891 1199.74 474.839C1199.65 474.778 1199.55 474.716 1199.45 474.655C1199.26 474.538 1199.35 474.25 1199.57 474.25H1199.9C1199.97 474.25 1200.05 474.278 1200.1 474.328C1226.74 497.833 1250.15 525.017 1270.35 555.881C1294.68 591.933 1314.51 632.489 1329.84 677.549C1331.23 681.645 1335.06 684.432 1339.39 684.432H1501.9C1508.16 684.432 1512.89 678.737 1511.62 672.605C1497.95 606.696 1474.58 546.481 1441.51 491.96C1441.09 491.261 1440.67 490.564 1440.25 489.867C1436.13 483.081 1440.93 474.25 1448.87 474.25H1475.52C1558.6 474.25 1622.42 490.889 1666.96 524.166C1674.05 529.462 1685 524.684 1685 515.833V358.647C1685 354.512 1682.46 350.794 1678.58 349.372C1621.49 328.457 1553.81 318 1475.52 318H1281.15C1279.11 318 1277.12 317.373 1275.43 316.217C1239.82 291.746 1201.15 271.309 1159.43 254.906C1155.57 253.387 1153 249.674 1153 245.523V57ZM553 1583.8C553 1586.99 554.515 1589.99 557.101 1591.85C567.54 1599.36 578.253 1606.55 589.239 1613.41C686.776 1674.02 799.939 1704.32 928.727 1704.32C938.078 1704.32 947.341 1704.16 956.518 1703.84C962.225 1703.65 967 1708.19 967 1713.9V1772.55V1864C967 1869.52 971.477 1874 977 1874H1143C1148.52 1874 1153 1869.52 1153 1864V1782.55C1153 1777.02 1157.48 1772.55 1163 1772.55H1492.57C1562.12 1772.55 1623.73 1766.27 1677.4 1753.71C1681.88 1752.66 1685 1748.65 1685 1744.06V1599.18C1685 1591.9 1677.46 1587.03 1670.67 1589.65C1624.63 1607.41 1565.26 1616.3 1492.57 1616.3H1297.59C1287.52 1616.3 1283.51 1602.68 1291.73 1596.84C1354.89 1551.97 1406.24 1494.99 1445.77 1425.91C1496.91 1337.37 1522.48 1233.2 1522.48 1113.41V1113.41C1522.48 1112.16 1523.53 1111.16 1524.78 1111.23C1578.31 1114.06 1625.34 1126.63 1665.86 1148.97C1667.04 1149.6 1668.21 1150.24 1669.37 1150.89C1676.26 1154.72 1685 1149.88 1685 1141.99V899.7C1685 890.777 1673.97 886.098 1667.08 891.772C1651.06 904.972 1633.14 916.366 1613.31 925.955C1572.32 945.993 1526.51 956.395 1475.89 957.159H1200.08C1200.04 957.159 1200 957.123 1200 957.08V957.08C1200 957.036 1199.96 957 1199.92 957H977C971.477 957 967 961.477 967 967V1104C967 1109.52 971.477 1114 977 1114H1199.7C1199.87 1114 1200 1113.87 1200 1113.7V1113.7C1200 1113.54 1200.13 1113.41 1200.3 1113.41H1341.75C1347.34 1113.41 1351.85 1118 1351.66 1123.59C1348.97 1203.61 1331.1 1273.84 1298.05 1334.29C1262.53 1399.63 1212.82 1450.29 1148.9 1486.28C1147.28 1487.19 1145.65 1488.08 1144.01 1488.97C1144 1488.97 1144 1488.98 1144 1488.99V1488.99C1144 1488.99 1144 1489 1143.99 1489.01L1143.76 1489.1C1143.56 1489.21 1143.37 1489.32 1143.17 1489.42C1143.15 1489.43 1143.14 1489.42 1143.14 1489.4V1489.4C1143.14 1489.39 1143.12 1489.38 1143.11 1489.38C1079.36 1516.78 1040.17 1527.32 967.12 1537.98C967.052 1537.99 967 1538.05 967 1538.12V1538.12C967 1538.19 966.944 1538.25 966.871 1538.26C954.397 1539.12 941.682 1539.55 928.727 1539.55C838.765 1539.55 757.799 1517.29 685.83 1472.78C642.559 1446.02 604.68 1411.65 572.192 1369.66C566.148 1361.84 553 1365.98 553 1375.86V1583.8Z" fill="#ED6CF0"/>
<path d="M660.972 261.847L660.158 260.019L660.972 261.847ZM682.278 441.534L683.346 443.226L683.346 443.226L682.278 441.534ZM1270.35 555.881L1268.67 556.976L1268.68 556.988L1268.69 557L1270.35 555.881ZM1441.51 491.96L1439.8 492.991L1439.8 492.997L1441.51 491.96ZM589.239 1613.41L588.179 1615.11L588.183 1615.11L589.239 1613.41ZM1445.77 1425.91L1444.04 1424.91L1444.04 1424.92L1445.77 1425.91ZM1665.86 1148.97L1664.9 1150.72L1664.91 1150.72L1664.91 1150.73L1665.86 1148.97ZM1613.31 925.955L1612.44 924.154L1612.43 924.158L1613.31 925.955ZM1475.89 957.159V959.159H1475.9L1475.92 959.159L1475.89 957.159ZM1298.05 1334.29L1296.29 1333.33L1296.29 1333.33L1298.05 1334.29ZM1148.9 1486.28L1149.87 1488.02L1149.88 1488.02L1148.9 1486.28ZM1143.76 1489.1L1142.97 1487.27L1142.89 1487.3L1142.81 1487.34L1143.76 1489.1ZM685.83 1472.78L684.778 1474.49L684.778 1474.49L685.83 1472.78ZM572.192 1369.66L570.61 1370.88L572.192 1369.66ZM966.871 1538.26L967.008 1540.25L966.871 1538.26ZM1524.78 1111.23L1524.67 1113.23L1524.78 1111.23ZM1291.73 1596.84L1292.89 1598.47L1291.73 1596.84ZM1670.67 1589.65L1671.39 1591.51L1670.67 1589.65ZM1677.4 1753.71L1676.95 1751.76L1677.4 1753.71ZM956.518 1703.84L956.586 1705.84L956.518 1703.84ZM557.101 1591.85L555.932 1593.47L557.101 1591.85ZM1678.58 349.372L1679.27 347.494L1678.58 349.372ZM1511.62 672.605L1509.66 673.011L1511.62 672.605ZM1329.84 677.549L1327.95 678.193L1329.84 677.549ZM967.12 1537.98L967.409 1539.96L967.12 1537.98ZM1200.1 474.328L1198.78 475.828L1200.1 474.328ZM1143.11 1489.38L1142.32 1487.55L1143.11 1489.38ZM1199.45 474.655L1198.39 476.349L1199.45 474.655ZM1143.17 1489.42L1144.12 1491.18L1143.17 1489.42ZM1199.74 474.839L1198.68 476.532L1199.74 474.839ZM1199.64 475.014L1198.66 476.755L1199.64 475.014ZM1143.99 1489.01L1143.2 1487.17L1143.99 1489.01ZM966.903 377.613L965.38 376.317L966.903 377.613ZM967.145 377.542L966.588 379.463L967.145 377.542ZM1351.66 1123.59L1349.67 1123.52L1351.66 1123.59ZM966.843 376.985L967.026 374.994L966.843 376.985ZM1144.01 1488.97L1143.06 1487.21L1144.01 1488.97ZM966.524 377.606L968.475 377.169L966.524 377.606ZM966.843 377.685L968.366 378.981L966.843 377.685ZM1666.96 524.166L1668.16 522.563L1666.96 524.166ZM956.314 211.021L956.208 213.018L956.314 211.021ZM1159.43 254.906L1160.16 253.045L1159.43 254.906ZM572.212 542.673L570.627 541.453L572.212 542.673ZM966.552 377.461L967.631 379.145L966.552 377.461ZM966.514 377.563L968.466 377.126L966.514 377.563ZM1667.08 891.772L1668.36 893.315L1667.08 891.772ZM1275.43 316.217L1276.57 314.569L1275.43 316.217ZM557.08 321.566L555.908 319.945L557.08 321.566ZM967.009 377.322L967.278 379.304L967.009 377.322ZM1440.25 489.867L1441.96 488.829L1440.25 489.867ZM1669.37 1150.89L1670.34 1149.14L1669.37 1150.89ZM977 49H1143V45H977V49ZM969 200.963V57H965V200.963H969ZM956.42 209.023C943.553 208.341 930.534 208 917.364 208V212C930.465 212 943.413 212.339 956.208 213.018L956.42 209.023ZM917.364 208C823.834 208 738.09 225.33 660.158 260.019L661.785 263.674C739.156 229.234 824.34 212 917.364 212V208ZM660.158 260.019C623.039 276.542 588.288 296.517 555.908 319.945L558.252 323.186C590.404 299.923 624.914 280.086 661.785 263.674L660.158 260.019ZM551 329.597V536.494H555V329.597H551ZM573.797 543.893C605.293 502.98 641.809 469.43 683.346 443.226L681.211 439.843C639.257 466.31 602.396 500.186 570.627 541.453L573.797 543.893ZM683.346 443.226C753.564 398.927 831.554 376.773 917.364 376.773V372.773C830.825 372.773 752.091 395.127 681.211 439.843L683.346 443.226ZM917.364 376.773C934.241 376.773 950.673 377.508 966.66 378.977L967.026 374.994C950.912 373.513 934.357 372.773 917.364 372.773V376.773ZM965 377.157V377.275H969V377.157H965ZM966.74 375.34C966.426 375.383 965.935 375.481 965.473 375.777L967.631 379.145C967.487 379.238 967.37 379.277 967.324 379.291C967.273 379.306 967.254 379.307 967.278 379.304L966.74 375.34ZM964.563 378.001L964.572 378.044L968.475 377.169L968.466 377.126L964.563 378.001ZM968.366 378.981L968.427 378.91L965.38 376.317L965.319 376.389L968.366 378.981ZM966.588 379.463C1064.12 407.727 1114.72 429.341 1198.66 476.755L1200.62 473.272C1116.41 425.705 1065.53 403.972 967.702 375.621L966.588 379.463ZM1200.81 473.146C1200.71 473.084 1200.61 473.022 1200.51 472.961L1198.39 476.349C1198.49 476.41 1198.58 476.471 1198.68 476.532L1200.81 473.146ZM1199.57 476.25H1199.9V472.25H1199.57V476.25ZM1198.78 475.828C1225.27 499.209 1248.57 526.256 1268.67 556.976L1272.02 554.786C1251.73 523.778 1228.2 496.456 1201.43 472.829L1198.78 475.828ZM1268.69 557C1292.92 592.892 1312.67 633.286 1327.95 678.193L1331.74 676.905C1316.36 631.693 1296.45 590.974 1272 554.762L1268.69 557ZM1339.39 686.432H1501.9V682.432H1339.39V686.432ZM1513.58 672.198C1499.86 606.079 1476.42 545.649 1443.22 490.923L1439.8 492.997C1472.75 547.313 1496.04 607.312 1509.66 673.011L1513.58 672.198ZM1443.23 490.929C1442.8 490.228 1442.38 489.528 1441.96 488.829L1438.54 490.906C1438.96 491.6 1439.38 492.295 1439.8 492.991L1443.23 490.929ZM1448.87 476.25H1475.52V472.25H1448.87V476.25ZM1475.52 476.25C1558.37 476.25 1621.7 492.849 1665.77 525.768L1668.16 522.563C1623.13 488.929 1558.83 472.25 1475.52 472.25V476.25ZM1687 515.833V358.647H1683V515.833H1687ZM1679.27 347.494C1621.91 326.479 1553.98 316 1475.52 316V320C1553.64 320 1621.08 330.435 1677.89 351.25L1679.27 347.494ZM1475.52 316H1281.15V320H1475.52V316ZM1276.57 314.569C1240.82 290.008 1202.02 269.501 1160.16 253.045L1158.7 256.767C1200.28 273.116 1238.81 293.483 1274.3 317.866L1276.57 314.569ZM1151 57V245.523H1155V57H1151ZM590.298 1611.71C579.349 1604.88 568.673 1597.71 558.269 1590.23L555.932 1593.47C566.408 1601.01 577.157 1608.22 588.179 1615.11L590.298 1611.71ZM928.727 1702.32C800.266 1702.32 687.478 1672.1 590.294 1611.71L588.183 1615.11C686.075 1675.93 799.613 1706.32 928.727 1706.32V1702.32ZM956.449 1701.84C947.295 1702.16 938.055 1702.32 928.727 1702.32V1706.32C938.1 1706.32 947.386 1706.16 956.586 1705.84L956.449 1701.84ZM969 1772.55V1713.9H965V1772.55H969ZM969 1864V1772.55H965V1864H969ZM1143 1872H977V1876H1143V1872ZM1151 1782.55V1864H1155V1782.55H1151ZM1492.57 1770.55H1163V1774.55H1492.57V1770.55ZM1676.95 1751.76C1623.46 1764.28 1562 1770.55 1492.57 1770.55V1774.55C1562.23 1774.55 1624 1768.26 1677.86 1755.65L1676.95 1751.76ZM1683 1599.18V1744.06H1687V1599.18H1683ZM1492.57 1618.3C1565.4 1618.3 1625.04 1609.4 1671.39 1591.51L1669.95 1587.78C1624.22 1605.43 1565.12 1614.3 1492.57 1614.3V1618.3ZM1297.59 1618.3H1492.57V1614.3H1297.59V1618.3ZM1444.04 1424.92C1404.65 1493.76 1353.49 1550.51 1290.57 1595.21L1292.89 1598.47C1356.3 1553.43 1407.84 1496.23 1447.51 1426.9L1444.04 1424.92ZM1520.48 1113.41C1520.48 1232.91 1494.97 1336.72 1444.04 1424.91L1447.5 1426.91C1498.84 1338.02 1524.48 1233.49 1524.48 1113.41H1520.48ZM1666.83 1147.21C1626 1124.72 1578.67 1112.07 1524.88 1109.23L1524.67 1113.23C1577.95 1116.04 1624.67 1128.55 1664.9 1150.72L1666.83 1147.21ZM1670.34 1149.14C1669.17 1148.49 1668 1147.85 1666.82 1147.21L1664.91 1150.73C1666.08 1151.36 1667.24 1151.99 1668.4 1152.64L1670.34 1149.14ZM1683 899.7V1141.99H1687V899.7H1683ZM1614.18 927.755C1634.14 918.101 1652.21 906.622 1668.36 893.315L1665.81 890.228C1649.92 903.321 1632.13 914.63 1612.44 924.154L1614.18 927.755ZM1475.92 959.159C1526.8 958.391 1572.9 947.933 1614.19 927.751L1612.43 924.158C1571.73 944.054 1526.22 954.399 1475.86 955.159L1475.92 959.159ZM1200.08 959.159H1475.89V955.159H1200.08V959.159ZM977 959H1199.92V955H977V959ZM969 1104V967H965V1104H969ZM1199.7 1112H977V1116H1199.7V1112ZM1341.75 1111.41H1200.3V1115.41H1341.75V1111.41ZM1299.8 1335.25C1333.02 1274.49 1350.96 1203.94 1353.66 1123.66L1349.67 1123.52C1346.98 1203.28 1329.17 1273.2 1296.29 1333.33L1299.8 1335.25ZM1149.88 1488.02C1214.13 1451.85 1264.11 1400.91 1299.8 1335.24L1296.29 1333.33C1260.95 1398.35 1211.5 1448.74 1147.92 1484.54L1149.88 1488.02ZM1144.96 1490.73C1146.61 1489.84 1148.24 1488.94 1149.87 1488.02L1147.92 1484.53C1146.31 1485.44 1144.69 1486.33 1143.06 1487.21L1144.96 1490.73ZM1144.55 1490.94L1144.78 1490.84L1143.2 1487.17L1142.97 1487.27L1144.55 1490.94ZM1144.12 1491.18C1144.31 1491.08 1144.51 1490.97 1144.71 1490.86L1142.81 1487.34C1142.61 1487.45 1142.42 1487.56 1142.22 1487.66L1144.12 1491.18ZM967.409 1539.96C1040.61 1529.27 1079.97 1518.7 1143.9 1491.22L1142.32 1487.55C1078.75 1514.87 1039.73 1525.36 966.831 1536L967.409 1539.96ZM928.727 1541.55C941.726 1541.55 954.487 1541.11 967.008 1540.25L966.734 1536.26C954.307 1537.12 941.638 1537.55 928.727 1537.55V1541.55ZM684.778 1474.49C757.084 1519.2 838.418 1541.55 928.727 1541.55V1537.55C839.112 1537.55 758.515 1515.38 686.881 1471.08L684.778 1474.49ZM570.61 1370.88C603.238 1413.05 641.294 1447.59 684.778 1474.49L686.881 1471.08C643.823 1444.46 606.121 1410.24 573.774 1368.43L570.61 1370.88ZM555 1583.8V1375.86H551V1583.8H555ZM573.774 1368.43C570.159 1363.76 564.435 1362.71 559.721 1364.22C554.996 1365.73 551 1369.9 551 1375.86H555C555 1371.93 557.578 1369.1 560.938 1368.03C564.309 1366.95 568.181 1367.74 570.61 1370.88L573.774 1368.43ZM965 1538.12C965 1537.14 965.756 1536.33 966.734 1536.26L967.008 1540.25C968.131 1540.18 969 1539.24 969 1538.12H965ZM1199.7 1116C1200.97 1116 1202 1114.97 1202 1113.7H1198C1198 1112.76 1198.76 1112 1199.7 1112V1116ZM965 1104C965 1110.63 970.373 1116 977 1116V1112C972.582 1112 969 1108.42 969 1104H965ZM1200.08 955.159C1201.14 955.159 1202 956.019 1202 957.08H1198C1198 958.228 1198.93 959.159 1200.08 959.159V955.159ZM1524.48 1113.41C1524.48 1113.3 1524.57 1113.22 1524.67 1113.23L1524.88 1109.23C1522.49 1109.1 1520.48 1111.01 1520.48 1113.41H1524.48ZM1297.59 1614.3C1293.59 1614.3 1290.75 1611.63 1289.72 1608.19C1288.69 1604.73 1289.59 1600.82 1292.89 1598.47L1290.57 1595.21C1285.65 1598.71 1284.45 1604.51 1285.89 1609.33C1287.33 1614.15 1291.52 1618.3 1297.59 1618.3V1614.3ZM1687 1599.18C1687 1590.41 1677.97 1584.69 1669.95 1587.78L1671.39 1591.51C1676.95 1589.37 1683 1593.39 1683 1599.18H1687ZM1677.86 1755.65C1683.25 1754.39 1687 1749.56 1687 1744.06H1683C1683 1747.74 1680.5 1750.93 1676.95 1751.76L1677.86 1755.65ZM1155 1782.55C1155 1778.13 1158.58 1774.55 1163 1774.55V1770.55C1156.37 1770.55 1151 1775.92 1151 1782.55H1155ZM1143 1876C1149.63 1876 1155 1870.63 1155 1864H1151C1151 1868.42 1147.42 1872 1143 1872V1876ZM965 1864C965 1870.63 970.373 1876 977 1876V1872C972.582 1872 969 1868.42 969 1864H965ZM956.586 1705.84C961.181 1705.68 965 1709.34 965 1713.9H969C969 1707.04 963.269 1701.61 956.449 1701.84L956.586 1705.84ZM558.269 1590.23C556.213 1588.75 555 1586.35 555 1583.8H551C551 1587.62 552.817 1591.23 555.932 1593.47L558.269 1590.23ZM1687 358.647C1687 353.693 1683.96 349.212 1679.27 347.494L1677.89 351.25C1680.97 352.376 1683 355.331 1683 358.647H1687ZM1501.9 686.432C1509.4 686.432 1515.11 679.598 1513.58 672.198L1509.66 673.011C1510.67 677.876 1506.92 682.432 1501.9 682.432V686.432ZM1327.95 678.193C1329.61 683.086 1334.19 686.432 1339.39 686.432V682.432C1335.93 682.432 1332.86 680.204 1331.74 676.905L1327.95 678.193ZM966.831 1536C965.81 1536.15 965 1537.03 965 1538.12H969C969 1539.07 968.294 1539.83 967.409 1539.96L966.831 1536ZM1199.9 476.25C1199.49 476.25 1199.09 476.1 1198.78 475.828L1201.43 472.829C1201 472.456 1200.46 472.25 1199.9 472.25V476.25ZM1145.14 1489.4C1145.14 1487.89 1143.59 1487 1142.32 1487.55L1143.9 1491.22C1142.65 1491.76 1141.14 1490.89 1141.14 1489.4H1145.14ZM1200.51 472.961C1202.02 473.908 1201.36 476.25 1199.57 476.25V472.25C1197.33 472.25 1196.51 475.168 1198.39 476.349L1200.51 472.961ZM1142.22 1487.66C1143.54 1486.95 1145.14 1487.91 1145.14 1489.4H1141.14C1141.14 1490.93 1142.77 1491.91 1144.12 1491.18L1142.22 1487.66ZM1199.88 477.019C1201.88 476.84 1202.51 474.218 1200.81 473.146L1198.68 476.532C1197.14 475.564 1197.71 473.196 1199.52 473.035L1199.88 477.019ZM1198.66 476.755C1199.02 476.96 1199.44 477.057 1199.88 477.019L1199.52 473.035C1199.91 473 1200.3 473.087 1200.62 473.272L1198.66 476.755ZM1142 1488.99C1142 1488.2 1142.47 1487.48 1143.2 1487.17L1144.78 1490.84C1145.52 1490.52 1146 1489.79 1146 1488.99H1142ZM968.427 378.91C967.962 379.455 967.237 379.651 966.588 379.463L967.702 375.621C966.879 375.383 965.962 375.633 965.38 376.317L968.427 378.91ZM1341.75 1115.41C1346.23 1115.41 1349.81 1119.08 1349.67 1123.52L1353.66 1123.66C1353.89 1116.92 1348.45 1111.41 1341.75 1111.41V1115.41ZM965 377.275C965 378.174 965.595 378.964 966.459 379.212L967.564 375.368C968.414 375.612 969 376.39 969 377.275H965ZM1202 1113.7C1202 1114.65 1201.24 1115.41 1200.3 1115.41V1111.41C1199.03 1111.41 1198 1112.44 1198 1113.7H1202ZM966.66 378.977C965.718 378.89 965 378.1 965 377.157H969C969 376.036 968.146 375.096 967.026 374.994L966.66 378.977ZM1143.06 1487.21C1142.41 1487.56 1142 1488.24 1142 1488.99H1146C1146 1489.71 1145.6 1490.38 1144.96 1490.73L1143.06 1487.21ZM964.572 378.044C964.966 379.801 967.198 380.353 968.366 378.981L965.319 376.389C966.291 375.248 968.148 375.707 968.475 377.169L964.572 378.044ZM1665.77 525.768C1669.97 528.907 1675.27 529.026 1679.47 527.127C1683.68 525.221 1687 521.173 1687 515.833H1683C1683 519.344 1680.85 522.111 1677.82 523.482C1674.77 524.86 1671.05 524.721 1668.16 522.563L1665.77 525.768ZM965 200.963C965 205.587 961.078 209.271 956.42 209.023L956.208 213.018C963.115 213.384 969 207.92 969 200.963H965ZM1160.16 253.045C1157.05 251.822 1155 248.839 1155 245.523H1151C1151 250.51 1154.08 254.952 1158.7 256.767L1160.16 253.045ZM977 955C970.373 955 965 960.373 965 967H969C969 962.582 972.582 959 977 959V955ZM551 536.494C551 542.455 555.006 546.631 559.738 548.136C564.459 549.638 570.189 548.58 573.797 543.893L570.627 541.453C568.203 544.603 564.327 545.399 560.95 544.324C557.584 543.253 555 540.422 555 536.494H551ZM965.473 375.777C964.595 376.34 964.408 377.312 964.563 378.001L968.466 377.126C968.603 377.737 968.442 378.625 967.631 379.145L965.473 375.777ZM1687 899.7C1687 888.9 1673.86 883.6 1665.81 890.228L1668.36 893.315C1674.08 888.596 1683 892.654 1683 899.7H1687ZM1143 49C1147.42 49 1151 52.5817 1151 57H1155C1155 50.3726 1149.63 45 1143 45V49ZM1281.15 316C1279.52 316 1277.92 315.499 1276.57 314.569L1274.3 317.866C1276.31 319.247 1278.7 320 1281.15 320V316ZM1202 957.08C1202 955.931 1201.07 955 1199.92 955V959C1198.86 959 1198 958.14 1198 957.08H1202ZM555.908 319.945C552.806 322.189 551 325.788 551 329.597H555C555 327.052 556.206 324.666 558.252 323.186L555.908 319.945ZM966.459 379.212C965.386 378.904 964.967 377.903 965.03 377.143C965.092 376.389 965.656 375.487 966.74 375.34L967.278 379.304C968.379 379.155 968.953 378.24 969.016 377.471C969.08 376.697 968.654 375.681 967.564 375.368L966.459 379.212ZM1441.96 488.829C1438.62 483.329 1442.55 476.25 1448.87 476.25V472.25C1439.32 472.25 1433.63 482.833 1438.54 490.906L1441.96 488.829ZM1668.4 1152.64C1676.53 1157.17 1687 1151.5 1687 1141.99H1683C1683 1148.26 1675.98 1152.28 1670.34 1149.14L1668.4 1152.64ZM977 45C970.373 45 965 50.3726 965 57H969C969 52.5817 972.582 49 977 49V45Z" fill="black" mask="url(#path-3-inside-2_29_279)"/>
</svg>
