<svg width="3000" height="3000" viewBox="0 0 3000 3000" fill="none" xmlns="http://www.w3.org/2000/svg">
<g clip-path="url(#clip0_29_235)">
<path fill-rule="evenodd" clip-rule="evenodd" d="M1500 3000C2328.43 3000 3000 2328.43 3000 1500C3000 671.573 2328.43 0 1500 0C671.573 0 0 671.573 0 1500C0 2328.43 671.573 3000 1500 3000ZM1500 2766C2199.19 2766 2766 2199.19 2766 1500C2766 800.807 2199.19 234 1500 234C800.807 234 234 800.807 234 1500C234 2199.19 800.807 2766 1500 2766Z" fill="url(#paint0_linear_29_235)"/>
<mask id="path-2-inside-1_29_235" fill="white">
<path fill-rule="evenodd" clip-rule="evenodd" d="M1542 597C1542 591.477 1537.52 587 1532 587H1366C1360.48 587 1356 591.477 1356 597V740.963C1356 746.754 1351.1 751.327 1345.31 751.021C1332.48 750.34 1319.5 750 1306.36 750C1213.09 750 1127.62 767.282 1049.97 801.847C1012.98 818.314 978.346 838.22 946.08 861.566C943.506 863.428 942 866.42 942 869.597V1076.49C942 1086.38 955.18 1090.51 961.212 1082.67C992.845 1041.58 1029.53 1007.87 1071.28 981.534C1141.83 937.027 1220.19 914.773 1306.36 914.773C1323.3 914.773 1339.79 915.51 1355.84 916.985C1355.93 916.993 1356 917.068 1356 917.157V917.275C1356 917.282 1356 917.288 1356.01 917.29V917.29C1356.03 917.295 1356.03 917.32 1356.01 917.322C1355.81 917.35 1355.65 917.396 1355.55 917.461C1355.52 917.483 1355.51 917.524 1355.51 917.563L1355.52 917.606C1355.56 917.754 1355.74 917.8 1355.84 917.685L1355.9 917.613C1355.96 917.544 1356.06 917.517 1356.15 917.542C1453.82 945.85 1504.57 967.523 1588.64 1015.01C1588.66 1015.02 1588.68 1015.03 1588.7 1015.03V1015.03C1588.8 1015.02 1588.83 1014.89 1588.74 1014.84C1588.65 1014.78 1588.55 1014.72 1588.45 1014.65C1588.26 1014.54 1588.35 1014.25 1588.57 1014.25H1588.9C1588.97 1014.25 1589.05 1014.28 1589.1 1014.33C1615.74 1037.83 1639.15 1065.02 1659.35 1095.88C1683.68 1131.93 1703.51 1172.49 1718.84 1217.55C1720.23 1221.64 1724.06 1224.43 1728.39 1224.43H1890.9C1897.16 1224.43 1901.89 1218.74 1900.62 1212.6C1886.95 1146.7 1863.58 1086.48 1830.51 1031.96C1830.09 1031.26 1829.67 1030.56 1829.25 1029.87C1825.13 1023.08 1829.93 1014.25 1837.87 1014.25H1864.52C1947.6 1014.25 2011.42 1030.89 2055.96 1064.17C2063.05 1069.46 2074 1064.68 2074 1055.83V898.647C2074 894.512 2071.46 890.794 2067.58 889.372C2010.49 868.457 1942.81 858 1864.52 858H1670.15C1668.11 858 1666.12 857.373 1664.43 856.217C1628.82 831.746 1590.15 811.309 1548.43 794.906C1544.57 793.387 1542 789.674 1542 785.523V597ZM942 2123.8C942 2126.99 943.515 2129.99 946.101 2131.85C956.54 2139.36 967.253 2146.55 978.239 2153.41C1075.78 2214.02 1188.94 2244.32 1317.73 2244.32C1327.08 2244.32 1336.34 2244.16 1345.52 2243.84C1351.23 2243.65 1356 2248.19 1356 2253.9V2312.55V2404C1356 2409.52 1360.48 2414 1366 2414H1532C1537.52 2414 1542 2409.52 1542 2404V2322.55C1542 2317.02 1546.48 2312.55 1552 2312.55H1881.57C1951.12 2312.55 2012.73 2306.27 2066.4 2293.71C2070.88 2292.66 2074 2288.65 2074 2284.06V2139.18C2074 2131.9 2066.46 2127.03 2059.67 2129.65C2013.63 2147.41 1954.26 2156.3 1881.57 2156.3H1686.59C1676.52 2156.3 1672.51 2142.68 1680.73 2136.84C1743.89 2091.97 1795.24 2034.99 1834.77 1965.91C1885.91 1877.37 1911.48 1773.2 1911.48 1653.41V1653.41C1911.48 1652.16 1912.53 1651.16 1913.78 1651.23C1967.31 1654.06 2014.34 1666.63 2054.86 1688.97C2056.04 1689.6 2057.21 1690.24 2058.37 1690.89C2065.26 1694.72 2074 1689.88 2074 1681.99V1439.7C2074 1430.78 2062.97 1426.1 2056.08 1431.77C2040.06 1444.97 2022.14 1456.37 2002.31 1465.95C1961.32 1485.99 1915.51 1496.39 1864.89 1497.16H1589.08C1589.04 1497.16 1589 1497.12 1589 1497.08V1497.08C1589 1497.04 1588.96 1497 1588.92 1497H1366C1360.48 1497 1356 1501.48 1356 1507V1644C1356 1649.52 1360.48 1654 1366 1654H1588.7C1588.87 1654 1589 1653.87 1589 1653.7V1653.7C1589 1653.54 1589.13 1653.41 1589.3 1653.41H1730.75C1736.34 1653.41 1740.85 1658 1740.66 1663.59C1737.97 1743.61 1720.1 1813.84 1687.05 1874.29C1651.53 1939.63 1601.82 1990.29 1537.9 2026.28C1536.28 2027.19 1534.65 2028.08 1533.01 2028.97C1533 2028.97 1533 2028.98 1533 2028.99V2028.99C1533 2028.99 1533 2029 1532.99 2029.01L1532.76 2029.1C1532.56 2029.21 1532.37 2029.32 1532.17 2029.42C1532.15 2029.43 1532.14 2029.42 1532.14 2029.4V2029.4C1532.14 2029.39 1532.12 2029.38 1532.11 2029.38C1468.36 2056.78 1429.17 2067.32 1356.12 2077.98C1356.05 2077.99 1356 2078.05 1356 2078.12V2078.12C1356 2078.19 1355.94 2078.25 1355.87 2078.26C1343.4 2079.12 1330.68 2079.55 1317.73 2079.55C1227.77 2079.55 1146.8 2057.29 1074.83 2012.78C1031.56 1986.02 993.68 1951.65 961.192 1909.66C955.148 1901.84 942 1905.98 942 1915.86V2123.8Z"/>
</mask>
<path fill-rule="evenodd" clip-rule="evenodd" d="M1542 597C1542 591.477 1537.52 587 1532 587H1366C1360.48 587 1356 591.477 1356 597V740.963C1356 746.754 1351.1 751.327 1345.31 751.021C1332.48 750.34 1319.5 750 1306.36 750C1213.09 750 1127.62 767.282 1049.97 801.847C1012.98 818.314 978.346 838.22 946.08 861.566C943.506 863.428 942 866.42 942 869.597V1076.49C942 1086.38 955.18 1090.51 961.212 1082.67C992.845 1041.58 1029.53 1007.87 1071.28 981.534C1141.83 937.027 1220.19 914.773 1306.36 914.773C1323.3 914.773 1339.79 915.51 1355.84 916.985C1355.93 916.993 1356 917.068 1356 917.157V917.275C1356 917.282 1356 917.288 1356.01 917.29V917.29C1356.03 917.295 1356.03 917.32 1356.01 917.322C1355.81 917.35 1355.65 917.396 1355.55 917.461C1355.52 917.483 1355.51 917.524 1355.51 917.563L1355.52 917.606C1355.56 917.754 1355.74 917.8 1355.84 917.685L1355.9 917.613C1355.96 917.544 1356.06 917.517 1356.15 917.542C1453.82 945.85 1504.57 967.523 1588.64 1015.01C1588.66 1015.02 1588.68 1015.03 1588.7 1015.03V1015.03C1588.8 1015.02 1588.83 1014.89 1588.74 1014.84C1588.65 1014.78 1588.55 1014.72 1588.45 1014.65C1588.26 1014.54 1588.35 1014.25 1588.57 1014.25H1588.9C1588.97 1014.25 1589.05 1014.28 1589.1 1014.33C1615.74 1037.83 1639.15 1065.02 1659.35 1095.88C1683.68 1131.93 1703.51 1172.49 1718.84 1217.55C1720.23 1221.64 1724.06 1224.43 1728.39 1224.43H1890.9C1897.16 1224.43 1901.89 1218.74 1900.62 1212.6C1886.95 1146.7 1863.58 1086.48 1830.51 1031.96C1830.09 1031.26 1829.67 1030.56 1829.25 1029.87C1825.13 1023.08 1829.93 1014.25 1837.87 1014.25H1864.52C1947.6 1014.25 2011.42 1030.89 2055.96 1064.17C2063.05 1069.46 2074 1064.68 2074 1055.83V898.647C2074 894.512 2071.46 890.794 2067.58 889.372C2010.49 868.457 1942.81 858 1864.52 858H1670.15C1668.11 858 1666.12 857.373 1664.43 856.217C1628.82 831.746 1590.15 811.309 1548.43 794.906C1544.57 793.387 1542 789.674 1542 785.523V597ZM942 2123.8C942 2126.99 943.515 2129.99 946.101 2131.85C956.54 2139.36 967.253 2146.55 978.239 2153.41C1075.78 2214.02 1188.94 2244.32 1317.73 2244.32C1327.08 2244.32 1336.34 2244.16 1345.52 2243.84C1351.23 2243.65 1356 2248.19 1356 2253.9V2312.55V2404C1356 2409.52 1360.48 2414 1366 2414H1532C1537.52 2414 1542 2409.52 1542 2404V2322.55C1542 2317.02 1546.48 2312.55 1552 2312.55H1881.57C1951.12 2312.55 2012.73 2306.27 2066.4 2293.71C2070.88 2292.66 2074 2288.65 2074 2284.06V2139.18C2074 2131.9 2066.46 2127.03 2059.67 2129.65C2013.63 2147.41 1954.26 2156.3 1881.57 2156.3H1686.59C1676.52 2156.3 1672.51 2142.68 1680.73 2136.84C1743.89 2091.97 1795.24 2034.99 1834.77 1965.91C1885.91 1877.37 1911.48 1773.2 1911.48 1653.41V1653.41C1911.48 1652.16 1912.53 1651.16 1913.78 1651.23C1967.31 1654.06 2014.34 1666.63 2054.86 1688.97C2056.04 1689.6 2057.21 1690.24 2058.37 1690.89C2065.26 1694.72 2074 1689.88 2074 1681.99V1439.7C2074 1430.78 2062.97 1426.1 2056.08 1431.77C2040.06 1444.97 2022.14 1456.37 2002.31 1465.95C1961.32 1485.99 1915.51 1496.39 1864.89 1497.16H1589.08C1589.04 1497.16 1589 1497.12 1589 1497.08V1497.08C1589 1497.04 1588.96 1497 1588.92 1497H1366C1360.48 1497 1356 1501.48 1356 1507V1644C1356 1649.52 1360.48 1654 1366 1654H1588.7C1588.87 1654 1589 1653.87 1589 1653.7V1653.7C1589 1653.54 1589.13 1653.41 1589.3 1653.41H1730.75C1736.34 1653.41 1740.85 1658 1740.66 1663.59C1737.97 1743.61 1720.1 1813.84 1687.05 1874.29C1651.53 1939.63 1601.82 1990.29 1537.9 2026.28C1536.28 2027.19 1534.65 2028.08 1533.01 2028.97C1533 2028.97 1533 2028.98 1533 2028.99V2028.99C1533 2028.99 1533 2029 1532.99 2029.01L1532.76 2029.1C1532.56 2029.21 1532.37 2029.32 1532.17 2029.42C1532.15 2029.43 1532.14 2029.42 1532.14 2029.4V2029.4C1532.14 2029.39 1532.12 2029.38 1532.11 2029.38C1468.36 2056.78 1429.17 2067.32 1356.12 2077.98C1356.05 2077.99 1356 2078.05 1356 2078.12V2078.12C1356 2078.19 1355.94 2078.25 1355.87 2078.26C1343.4 2079.12 1330.68 2079.55 1317.73 2079.55C1227.77 2079.55 1146.8 2057.29 1074.83 2012.78C1031.56 1986.02 993.68 1951.65 961.192 1909.66C955.148 1901.84 942 1905.98 942 1915.86V2123.8Z" fill="url(#paint1_linear_29_235)"/>
<path d="M1049.97 801.847L1049.16 800.019L1049.97 801.847ZM1071.28 981.534L1072.35 983.226L1072.35 983.226L1071.28 981.534ZM1659.35 1095.88L1657.67 1096.98L1657.68 1096.99L1657.69 1097L1659.35 1095.88ZM1830.51 1031.96L1828.8 1032.99L1828.8 1033L1830.51 1031.96ZM978.239 2153.41L977.179 2155.11L977.183 2155.11L978.239 2153.41ZM1834.77 1965.91L1833.04 1964.91L1833.04 1964.92L1834.77 1965.91ZM2054.86 1688.97L2053.9 1690.72L2053.91 1690.72L2053.91 1690.73L2054.86 1688.97ZM2002.31 1465.95L2001.44 1464.15L2001.43 1464.16L2002.31 1465.95ZM1864.89 1497.16V1499.16H1864.9L1864.92 1499.16L1864.89 1497.16ZM1687.05 1874.29L1685.29 1873.33L1685.29 1873.33L1687.05 1874.29ZM1537.9 2026.28L1538.87 2028.02L1538.88 2028.02L1537.9 2026.28ZM1532.76 2029.1L1531.97 2027.27L1531.89 2027.3L1531.81 2027.34L1532.76 2029.1ZM1074.83 2012.78L1073.78 2014.49L1073.78 2014.49L1074.83 2012.78ZM961.192 1909.66L959.61 1910.88L961.192 1909.66ZM1355.87 2078.26L1356.01 2080.25L1355.87 2078.26ZM1913.78 1651.23L1913.67 1653.23L1913.78 1651.23ZM1680.73 2136.84L1681.89 2138.47L1680.73 2136.84ZM2059.67 2129.65L2060.39 2131.51L2059.67 2129.65ZM2066.4 2293.71L2065.95 2291.76L2066.4 2293.71ZM1345.52 2243.84L1345.59 2245.84L1345.52 2243.84ZM946.101 2131.85L944.932 2133.47L946.101 2131.85ZM2067.58 889.372L2068.27 887.494L2067.58 889.372ZM1900.62 1212.6L1898.66 1213.01L1900.62 1212.6ZM1718.84 1217.55L1716.95 1218.19L1718.84 1217.55ZM1356.12 2077.98L1356.41 2079.96L1356.12 2077.98ZM1589.1 1014.33L1587.78 1015.83L1589.1 1014.33ZM1532.11 2029.38L1531.32 2027.55L1532.11 2029.38ZM1588.45 1014.65L1587.39 1016.35L1588.45 1014.65ZM1532.17 2029.42L1533.12 2031.18L1532.17 2029.42ZM1588.74 1014.84L1587.68 1016.53L1588.74 1014.84ZM1588.64 1015.01L1587.66 1016.76L1588.64 1015.01ZM1532.99 2029.01L1532.2 2027.17L1532.99 2029.01ZM1355.9 917.613L1354.38 916.317L1355.9 917.613ZM1356.15 917.542L1355.59 919.463L1356.15 917.542ZM1740.66 1663.59L1738.67 1663.52L1740.66 1663.59ZM1355.84 916.985L1356.03 914.994L1355.84 916.985ZM1533.01 2028.97L1532.06 2027.21L1533.01 2028.97ZM1355.52 917.606L1357.48 917.169L1355.52 917.606ZM1355.84 917.685L1357.37 918.981L1355.84 917.685ZM2055.96 1064.17L2057.16 1062.56L2055.96 1064.17ZM1345.31 751.021L1345.21 753.018L1345.31 751.021ZM1548.43 794.906L1549.16 793.045L1548.43 794.906ZM961.212 1082.67L959.627 1081.45L961.212 1082.67ZM1355.55 917.461L1356.63 919.145L1355.55 917.461ZM1355.51 917.563L1357.47 917.126L1355.51 917.563ZM2056.08 1431.77L2057.36 1433.32L2056.08 1431.77ZM1664.43 856.217L1665.57 854.569L1664.43 856.217ZM946.08 861.566L944.908 859.945L946.08 861.566ZM1356.01 917.322L1356.28 919.304L1356.01 917.322ZM1829.25 1029.87L1830.96 1028.83L1829.25 1029.87ZM2058.37 1690.89L2059.34 1689.14L2058.37 1690.89ZM1366 589H1532V585H1366V589ZM1358 740.963V597H1354V740.963H1358ZM1345.42 749.023C1332.55 748.341 1319.53 748 1306.36 748V752C1319.47 752 1332.41 752.339 1345.21 753.018L1345.42 749.023ZM1306.36 748C1212.83 748 1127.09 765.33 1049.16 800.019L1050.78 803.674C1128.16 769.234 1213.34 752 1306.36 752V748ZM1049.16 800.019C1012.04 816.542 977.288 836.517 944.908 859.945L947.252 863.186C979.404 839.923 1013.91 820.086 1050.78 803.674L1049.16 800.019ZM940 869.597V1076.49H944V869.597H940ZM962.797 1083.89C994.293 1042.98 1030.81 1009.43 1072.35 983.226L1070.21 979.843C1028.26 1006.31 991.396 1040.19 959.627 1081.45L962.797 1083.89ZM1072.35 983.226C1142.56 938.927 1220.55 916.773 1306.36 916.773V912.773C1219.82 912.773 1141.09 935.127 1070.21 979.843L1072.35 983.226ZM1306.36 916.773C1323.24 916.773 1339.67 917.508 1355.66 918.977L1356.03 914.994C1339.91 913.513 1323.36 912.773 1306.36 912.773V916.773ZM1354 917.157V917.275H1358V917.157H1354ZM1355.74 915.34C1355.43 915.383 1354.93 915.481 1354.47 915.777L1356.63 919.145C1356.49 919.238 1356.37 919.277 1356.32 919.291C1356.27 919.306 1356.25 919.307 1356.28 919.304L1355.74 915.34ZM1353.56 918.001L1353.57 918.044L1357.48 917.169L1357.47 917.126L1353.56 918.001ZM1357.37 918.981L1357.43 918.91L1354.38 916.317L1354.32 916.389L1357.37 918.981ZM1355.59 919.463C1453.12 947.727 1503.72 969.341 1587.66 1016.76L1589.62 1013.27C1505.41 965.705 1454.53 943.972 1356.7 915.621L1355.59 919.463ZM1589.81 1013.15C1589.71 1013.08 1589.61 1013.02 1589.51 1012.96L1587.39 1016.35C1587.49 1016.41 1587.58 1016.47 1587.68 1016.53L1589.81 1013.15ZM1588.57 1016.25H1588.9V1012.25H1588.57V1016.25ZM1587.78 1015.83C1614.27 1039.21 1637.57 1066.26 1657.67 1096.98L1661.02 1094.79C1640.73 1063.78 1617.2 1036.46 1590.43 1012.83L1587.78 1015.83ZM1657.69 1097C1681.92 1132.89 1701.67 1173.29 1716.95 1218.19L1720.74 1216.91C1705.36 1171.69 1685.45 1130.97 1661 1094.76L1657.69 1097ZM1728.39 1226.43H1890.9V1222.43H1728.39V1226.43ZM1902.58 1212.2C1888.86 1146.08 1865.42 1085.65 1832.22 1030.92L1828.8 1033C1861.75 1087.31 1885.04 1147.31 1898.66 1213.01L1902.58 1212.2ZM1832.23 1030.93C1831.8 1030.23 1831.38 1029.53 1830.96 1028.83L1827.54 1030.91C1827.96 1031.6 1828.38 1032.29 1828.8 1032.99L1832.23 1030.93ZM1837.87 1016.25H1864.52V1012.25H1837.87V1016.25ZM1864.52 1016.25C1947.37 1016.25 2010.7 1032.85 2054.77 1065.77L2057.16 1062.56C2012.13 1028.93 1947.83 1012.25 1864.52 1012.25V1016.25ZM2076 1055.83V898.647H2072V1055.83H2076ZM2068.27 887.494C2010.91 866.479 1942.98 856 1864.52 856V860C1942.64 860 2010.08 870.435 2066.89 891.25L2068.27 887.494ZM1864.52 856H1670.15V860H1864.52V856ZM1665.57 854.569C1629.82 830.008 1591.02 809.501 1549.16 793.045L1547.7 796.767C1589.28 813.116 1627.81 833.483 1663.3 857.866L1665.57 854.569ZM1540 597V785.523H1544V597H1540ZM979.298 2151.71C968.349 2144.88 957.673 2137.71 947.269 2130.23L944.932 2133.47C955.408 2141.01 966.157 2148.22 977.179 2155.11L979.298 2151.71ZM1317.73 2242.32C1189.27 2242.32 1076.48 2212.1 979.294 2151.71L977.183 2155.11C1075.08 2215.93 1188.61 2246.32 1317.73 2246.32V2242.32ZM1345.45 2241.84C1336.3 2242.16 1327.06 2242.32 1317.73 2242.32V2246.32C1327.1 2246.32 1336.39 2246.16 1345.59 2245.84L1345.45 2241.84ZM1358 2312.55V2253.9H1354V2312.55H1358ZM1358 2404V2312.55H1354V2404H1358ZM1532 2412H1366V2416H1532V2412ZM1540 2322.55V2404H1544V2322.55H1540ZM1881.57 2310.55H1552V2314.55H1881.57V2310.55ZM2065.95 2291.76C2012.46 2304.28 1951 2310.55 1881.57 2310.55V2314.55C1951.23 2314.55 2013 2308.26 2066.86 2295.65L2065.95 2291.76ZM2072 2139.18V2284.06H2076V2139.18H2072ZM1881.57 2158.3C1954.4 2158.3 2014.04 2149.4 2060.39 2131.51L2058.95 2127.78C2013.22 2145.43 1954.12 2154.3 1881.57 2154.3V2158.3ZM1686.59 2158.3H1881.57V2154.3H1686.59V2158.3ZM1833.04 1964.92C1793.65 2033.76 1742.49 2090.51 1679.57 2135.21L1681.89 2138.47C1745.3 2093.43 1796.84 2036.23 1836.51 1966.9L1833.04 1964.92ZM1909.48 1653.41C1909.48 1772.91 1883.97 1876.72 1833.04 1964.91L1836.5 1966.91C1887.84 1878.02 1913.48 1773.49 1913.48 1653.41H1909.48ZM2055.83 1687.21C2015 1664.72 1967.67 1652.07 1913.88 1649.23L1913.67 1653.23C1966.95 1656.04 2013.67 1668.55 2053.9 1690.72L2055.83 1687.21ZM2059.34 1689.14C2058.17 1688.49 2057 1687.85 2055.82 1687.21L2053.91 1690.73C2055.08 1691.36 2056.24 1691.99 2057.4 1692.64L2059.34 1689.14ZM2072 1439.7V1681.99H2076V1439.7H2072ZM2003.18 1467.76C2023.14 1458.1 2041.21 1446.62 2057.36 1433.32L2054.81 1430.23C2038.92 1443.32 2021.13 1454.63 2001.44 1464.15L2003.18 1467.76ZM1864.92 1499.16C1915.8 1498.39 1961.9 1487.93 2003.19 1467.75L2001.43 1464.16C1960.73 1484.05 1915.22 1494.4 1864.86 1495.16L1864.92 1499.16ZM1589.08 1499.16H1864.89V1495.16H1589.08V1499.16ZM1366 1499H1588.92V1495H1366V1499ZM1358 1644V1507H1354V1644H1358ZM1588.7 1652H1366V1656H1588.7V1652ZM1730.75 1651.41H1589.3V1655.41H1730.75V1651.41ZM1688.8 1875.25C1722.02 1814.49 1739.96 1743.94 1742.66 1663.66L1738.67 1663.52C1735.98 1743.28 1718.17 1813.2 1685.29 1873.33L1688.8 1875.25ZM1538.88 2028.02C1603.13 1991.85 1653.11 1940.91 1688.8 1875.24L1685.29 1873.33C1649.95 1938.35 1600.5 1988.74 1536.92 2024.54L1538.88 2028.02ZM1533.96 2030.73C1535.61 2029.84 1537.24 2028.94 1538.87 2028.02L1536.92 2024.53C1535.31 2025.44 1533.69 2026.33 1532.06 2027.21L1533.96 2030.73ZM1533.55 2030.94L1533.78 2030.84L1532.2 2027.17L1531.97 2027.27L1533.55 2030.94ZM1533.12 2031.18C1533.31 2031.08 1533.51 2030.97 1533.71 2030.86L1531.81 2027.34C1531.61 2027.45 1531.42 2027.56 1531.22 2027.66L1533.12 2031.18ZM1356.41 2079.96C1429.61 2069.27 1468.97 2058.7 1532.9 2031.22L1531.32 2027.55C1467.75 2054.87 1428.73 2065.36 1355.83 2076L1356.41 2079.96ZM1317.73 2081.55C1330.73 2081.55 1343.49 2081.11 1356.01 2080.25L1355.73 2076.26C1343.31 2077.12 1330.64 2077.55 1317.73 2077.55V2081.55ZM1073.78 2014.49C1146.08 2059.2 1227.42 2081.55 1317.73 2081.55V2077.55C1228.11 2077.55 1147.51 2055.38 1075.88 2011.08L1073.78 2014.49ZM959.61 1910.88C992.238 1953.05 1030.29 1987.59 1073.78 2014.49L1075.88 2011.08C1032.82 1984.46 995.121 1950.24 962.774 1908.43L959.61 1910.88ZM944 2123.8V1915.86H940V2123.8H944ZM962.774 1908.43C959.159 1903.76 953.435 1902.71 948.721 1904.22C943.996 1905.73 940 1909.9 940 1915.86H944C944 1911.93 946.578 1909.1 949.938 1908.03C953.309 1906.95 957.181 1907.74 959.61 1910.88L962.774 1908.43ZM1354 2078.12C1354 2077.14 1354.76 2076.33 1355.73 2076.26L1356.01 2080.25C1357.13 2080.18 1358 2079.24 1358 2078.12H1354ZM1588.7 1656C1589.97 1656 1591 1654.97 1591 1653.7H1587C1587 1652.76 1587.76 1652 1588.7 1652V1656ZM1354 1644C1354 1650.63 1359.37 1656 1366 1656V1652C1361.58 1652 1358 1648.42 1358 1644H1354ZM1589.08 1495.16C1590.14 1495.16 1591 1496.02 1591 1497.08H1587C1587 1498.23 1587.93 1499.16 1589.08 1499.16V1495.16ZM1913.48 1653.41C1913.48 1653.3 1913.57 1653.22 1913.67 1653.23L1913.88 1649.23C1911.49 1649.1 1909.48 1651.01 1909.48 1653.41H1913.48ZM1686.59 2154.3C1682.59 2154.3 1679.75 2151.63 1678.72 2148.19C1677.69 2144.73 1678.59 2140.82 1681.89 2138.47L1679.57 2135.21C1674.65 2138.71 1673.45 2144.51 1674.89 2149.33C1676.33 2154.15 1680.52 2158.3 1686.59 2158.3V2154.3ZM2076 2139.18C2076 2130.41 2066.97 2124.69 2058.95 2127.78L2060.39 2131.51C2065.95 2129.37 2072 2133.39 2072 2139.18H2076ZM2066.86 2295.65C2072.25 2294.39 2076 2289.56 2076 2284.06H2072C2072 2287.74 2069.5 2290.93 2065.95 2291.76L2066.86 2295.65ZM1544 2322.55C1544 2318.13 1547.58 2314.55 1552 2314.55V2310.55C1545.37 2310.55 1540 2315.92 1540 2322.55H1544ZM1532 2416C1538.63 2416 1544 2410.63 1544 2404H1540C1540 2408.42 1536.42 2412 1532 2412V2416ZM1354 2404C1354 2410.63 1359.37 2416 1366 2416V2412C1361.58 2412 1358 2408.42 1358 2404H1354ZM1345.59 2245.84C1350.18 2245.68 1354 2249.34 1354 2253.9H1358C1358 2247.04 1352.27 2241.61 1345.45 2241.84L1345.59 2245.84ZM947.269 2130.23C945.213 2128.75 944 2126.35 944 2123.8H940C940 2127.62 941.817 2131.23 944.932 2133.47L947.269 2130.23ZM2076 898.647C2076 893.693 2072.96 889.212 2068.27 887.494L2066.89 891.25C2069.97 892.376 2072 895.331 2072 898.647H2076ZM1890.9 1226.43C1898.4 1226.43 1904.11 1219.6 1902.58 1212.2L1898.66 1213.01C1899.67 1217.88 1895.92 1222.43 1890.9 1222.43V1226.43ZM1716.95 1218.19C1718.61 1223.09 1723.19 1226.43 1728.39 1226.43V1222.43C1724.93 1222.43 1721.86 1220.2 1720.74 1216.91L1716.95 1218.19ZM1355.83 2076C1354.81 2076.15 1354 2077.03 1354 2078.12H1358C1358 2079.07 1357.29 2079.83 1356.41 2079.96L1355.83 2076ZM1588.9 1016.25C1588.49 1016.25 1588.09 1016.1 1587.78 1015.83L1590.43 1012.83C1590 1012.46 1589.46 1012.25 1588.9 1012.25V1016.25ZM1534.14 2029.4C1534.14 2027.89 1532.59 2027 1531.32 2027.55L1532.9 2031.22C1531.65 2031.76 1530.14 2030.89 1530.14 2029.4H1534.14ZM1589.51 1012.96C1591.02 1013.91 1590.36 1016.25 1588.57 1016.25V1012.25C1586.33 1012.25 1585.51 1015.17 1587.39 1016.35L1589.51 1012.96ZM1531.22 2027.66C1532.54 2026.95 1534.14 2027.91 1534.14 2029.4H1530.14C1530.14 2030.93 1531.77 2031.91 1533.12 2031.18L1531.22 2027.66ZM1588.88 1017.02C1590.88 1016.84 1591.51 1014.22 1589.81 1013.15L1587.68 1016.53C1586.14 1015.56 1586.71 1013.2 1588.52 1013.03L1588.88 1017.02ZM1587.66 1016.76C1588.02 1016.96 1588.44 1017.06 1588.88 1017.02L1588.52 1013.03C1588.91 1013 1589.3 1013.09 1589.62 1013.27L1587.66 1016.76ZM1531 2028.99C1531 2028.2 1531.47 2027.48 1532.2 2027.17L1533.78 2030.84C1534.52 2030.52 1535 2029.79 1535 2028.99H1531ZM1357.43 918.91C1356.96 919.455 1356.24 919.651 1355.59 919.463L1356.7 915.621C1355.88 915.383 1354.96 915.633 1354.38 916.317L1357.43 918.91ZM1730.75 1655.41C1735.23 1655.41 1738.81 1659.08 1738.67 1663.52L1742.66 1663.66C1742.89 1656.92 1737.45 1651.41 1730.75 1651.41V1655.41ZM1354 917.275C1354 918.174 1354.6 918.964 1355.46 919.212L1356.56 915.368C1357.41 915.612 1358 916.39 1358 917.275H1354ZM1591 1653.7C1591 1654.65 1590.24 1655.41 1589.3 1655.41V1651.41C1588.03 1651.41 1587 1652.44 1587 1653.7H1591ZM1355.66 918.977C1354.72 918.89 1354 918.1 1354 917.157H1358C1358 916.036 1357.15 915.096 1356.03 914.994L1355.66 918.977ZM1532.06 2027.21C1531.41 2027.56 1531 2028.24 1531 2028.99H1535C1535 2029.71 1534.6 2030.38 1533.96 2030.73L1532.06 2027.21ZM1353.57 918.044C1353.97 919.801 1356.2 920.353 1357.37 918.981L1354.32 916.389C1355.29 915.248 1357.15 915.707 1357.48 917.169L1353.57 918.044ZM2054.77 1065.77C2058.97 1068.91 2064.27 1069.03 2068.47 1067.13C2072.68 1065.22 2076 1061.17 2076 1055.83H2072C2072 1059.34 2069.85 1062.11 2066.82 1063.48C2063.77 1064.86 2060.05 1064.72 2057.16 1062.56L2054.77 1065.77ZM1354 740.963C1354 745.587 1350.08 749.271 1345.42 749.023L1345.21 753.018C1352.12 753.384 1358 747.92 1358 740.963H1354ZM1549.16 793.045C1546.05 791.822 1544 788.839 1544 785.523H1540C1540 790.51 1543.08 794.952 1547.7 796.767L1549.16 793.045ZM1366 1495C1359.37 1495 1354 1500.37 1354 1507H1358C1358 1502.58 1361.58 1499 1366 1499V1495ZM940 1076.49C940 1082.45 944.006 1086.63 948.738 1088.14C953.459 1089.64 959.189 1088.58 962.797 1083.89L959.627 1081.45C957.203 1084.6 953.327 1085.4 949.95 1084.32C946.584 1083.25 944 1080.42 944 1076.49H940ZM1354.47 915.777C1353.59 916.34 1353.41 917.312 1353.56 918.001L1357.47 917.126C1357.6 917.737 1357.44 918.625 1356.63 919.145L1354.47 915.777ZM2076 1439.7C2076 1428.9 2062.86 1423.6 2054.81 1430.23L2057.36 1433.32C2063.08 1428.6 2072 1432.65 2072 1439.7H2076ZM1532 589C1536.42 589 1540 592.582 1540 597H1544C1544 590.373 1538.63 585 1532 585V589ZM1670.15 856C1668.52 856 1666.92 855.499 1665.57 854.569L1663.3 857.866C1665.31 859.247 1667.7 860 1670.15 860V856ZM1591 1497.08C1591 1495.93 1590.07 1495 1588.92 1495V1499C1587.86 1499 1587 1498.14 1587 1497.08H1591ZM944.908 859.945C941.806 862.189 940 865.788 940 869.597H944C944 867.052 945.206 864.666 947.252 863.186L944.908 859.945ZM1355.46 919.212C1354.39 918.904 1353.97 917.903 1354.03 917.143C1354.09 916.389 1354.66 915.487 1355.74 915.34L1356.28 919.304C1357.38 919.155 1357.95 918.24 1358.02 917.471C1358.08 916.697 1357.65 915.681 1356.56 915.368L1355.46 919.212ZM1830.96 1028.83C1827.62 1023.33 1831.55 1016.25 1837.87 1016.25V1012.25C1828.32 1012.25 1822.63 1022.83 1827.54 1030.91L1830.96 1028.83ZM2057.4 1692.64C2065.53 1697.17 2076 1691.5 2076 1681.99H2072C2072 1688.26 2064.98 1692.28 2059.34 1689.14L2057.4 1692.64ZM1366 585C1359.37 585 1354 590.373 1354 597H1358C1358 592.582 1361.58 589 1366 589V585Z" fill="black" mask="url(#path-2-inside-1_29_235)"/>
<mask id="path-4-inside-2_29_235" fill="white">
<path fill-rule="evenodd" clip-rule="evenodd" d="M924.344 1907.49C926.043 1909.35 927 1911.78 927 1914.3V2119.55C927 2119.94 926.576 2120.18 926.239 2119.99V2119.99C829.174 2062.79 753.417 1981.47 698.966 1876.02C644.989 1770.57 618 1645.45 618 1500.68C618 1392.1 633.388 1294.47 664.165 1207.79C695.415 1120.65 739.449 1046.48 796.267 985.265C830.98 947.865 869.582 915.802 912.071 889.077C918.616 884.96 927 889.741 927 897.472V1085.12C927 1087.64 926.049 1090.06 924.359 1091.92C896.274 1122.88 871.806 1158.82 850.955 1199.74C809.288 1281.51 788.455 1381.83 788.455 1500.68C788.455 1619.54 809.525 1719.85 851.665 1801.62C872.311 1841.68 896.537 1876.97 924.344 1907.49Z"/>
</mask>
<path fill-rule="evenodd" clip-rule="evenodd" d="M924.344 1907.49C926.043 1909.35 927 1911.78 927 1914.3V2119.55C927 2119.94 926.576 2120.18 926.239 2119.99V2119.99C829.174 2062.79 753.417 1981.47 698.966 1876.02C644.989 1770.57 618 1645.45 618 1500.68C618 1392.1 633.388 1294.47 664.165 1207.79C695.415 1120.65 739.449 1046.48 796.267 985.265C830.98 947.865 869.582 915.802 912.071 889.077C918.616 884.96 927 889.741 927 897.472V1085.12C927 1087.64 926.049 1090.06 924.359 1091.92C896.274 1122.88 871.806 1158.82 850.955 1199.74C809.288 1281.51 788.455 1381.83 788.455 1500.68C788.455 1619.54 809.525 1719.85 851.665 1801.62C872.311 1841.68 896.537 1876.97 924.344 1907.49Z" fill="url(#paint2_linear_29_235)"/>
<path d="M698.966 1876.02L697.186 1876.93L697.189 1876.93L698.966 1876.02ZM664.165 1207.79L662.282 1207.11L662.28 1207.12L664.165 1207.79ZM796.267 985.265L797.733 986.625L797.733 986.625L796.267 985.265ZM850.955 1199.74L852.737 1200.65L852.737 1200.65L850.955 1199.74ZM851.665 1801.62L849.887 1802.54L849.887 1802.54L851.665 1801.62ZM924.359 1091.92L925.84 1093.26L924.359 1091.92ZM924.344 1907.49L925.822 1906.14L924.344 1907.49ZM925 1914.3V2119.55H929V1914.3H925ZM927.254 2118.26C830.532 2061.27 755.03 1980.24 700.743 1875.1L697.189 1876.93C751.803 1982.7 827.816 2064.31 925.223 2121.71L927.254 2118.26ZM700.746 1875.11C646.942 1769.99 620 1645.21 620 1500.68H616C616 1645.7 643.035 1771.14 697.186 1876.93L700.746 1875.11ZM620 1500.68C620 1392.29 635.362 1294.89 666.05 1208.45L662.28 1207.12C631.415 1294.05 616 1391.91 616 1500.68H620ZM666.047 1208.46C697.216 1121.56 741.117 1047.62 797.733 986.625L794.801 983.904C737.78 1045.34 693.613 1119.75 662.282 1207.11L666.047 1208.46ZM797.733 986.625C832.329 949.351 870.796 917.401 913.136 890.77L911.006 887.384C868.367 914.204 829.631 946.379 794.801 983.904L797.733 986.625ZM925 897.472V1085.12H929V897.472H925ZM922.878 1090.58C894.663 1121.68 870.097 1157.77 849.173 1198.83L852.737 1200.65C873.515 1159.87 897.886 1124.08 925.84 1093.26L922.878 1090.58ZM849.173 1198.83C807.327 1280.96 786.455 1381.6 786.455 1500.68H790.455C790.455 1382.05 811.249 1282.07 852.737 1200.65L849.173 1198.83ZM786.455 1500.68C786.455 1619.77 807.564 1720.41 849.887 1802.54L853.443 1800.7C811.485 1719.29 790.455 1619.31 790.455 1500.68H786.455ZM849.887 1802.54C870.606 1842.74 894.93 1878.18 922.865 1908.84L925.822 1906.14C898.144 1875.77 874.016 1840.62 853.443 1800.7L849.887 1802.54ZM925 1085.12C925 1087.13 924.24 1089.07 922.878 1090.58L925.84 1093.26C927.857 1091.04 929 1088.14 929 1085.12H925ZM913.136 890.77C918.303 887.519 925 891.26 925 897.472H929C929 888.221 918.928 882.401 911.006 887.384L913.136 890.77ZM925 2119.55C925 2118.4 926.252 2117.68 927.251 2118.26L925.227 2121.71C926.9 2122.69 929 2121.48 929 2119.55H925ZM929 1914.3C929 1911.27 927.85 1908.37 925.822 1906.14L922.865 1908.84C924.235 1910.34 925 1912.29 925 1914.3H929Z" fill="black" mask="url(#path-4-inside-2_29_235)"/>
<mask id="path-6-inside-3_29_235" fill="white">
<path fill-rule="evenodd" clip-rule="evenodd" d="M2089 2277.22C2089 2283.72 2095.1 2288.49 2101.37 2286.78C2128.3 2279.43 2153.07 2270.38 2175.69 2259.62C2247.18 2225.63 2299.5 2179.6 2332.65 2121.53C2365.79 2063.47 2382.36 1998.08 2382.36 1925.38C2382.36 1848.9 2367.21 1784.22 2336.91 1731.34C2306.61 1678.47 2268.96 1637.87 2223.98 1609.54C2181.62 1582.86 2139.47 1567.49 2097.53 1563.43C2093.16 1563 2089.75 1559.39 2089.75 1555V1555C2089.75 1551.24 2092.27 1547.96 2095.87 1546.92C2135.2 1535.58 2171.75 1518.68 2205.52 1496.24C2241.5 1472.63 2270.38 1440.53 2292.16 1399.93C2314.42 1359.33 2325.55 1307.87 2325.55 1245.55C2325.55 1174.73 2309.45 1110.29 2277.25 1052.22C2245.05 993.682 2196.05 947.18 2130.23 912.717C2121.31 907.981 2112.06 903.566 2102.49 899.473C2096.04 896.714 2089 901.541 2089 908.558V1078.18C2089 1080.13 2089.79 1082 2091.17 1083.38V1083.38C2135.68 1127.76 2157.93 1181.82 2157.93 1245.55C2157.93 1296.54 2145.15 1340.91 2119.58 1378.68C2111.32 1391.11 2102.1 1402.61 2091.89 1413.19C2090.06 1415.1 2089 1417.63 2089 1420.28V1694.53C2089 1697.96 2090.77 1701.14 2093.63 1703.02C2128.65 1726.08 2156.48 1754.87 2177.11 1789.41C2202.2 1830.96 2214.75 1876.28 2214.75 1925.38C2214.75 1989.11 2190.37 2043.4 2141.6 2088.25C2128.47 2100.31 2112.88 2110.73 2094.83 2119.51C2091.3 2121.23 2089 2124.77 2089 2128.7V2277.22Z"/>
</mask>
<path fill-rule="evenodd" clip-rule="evenodd" d="M2089 2277.22C2089 2283.72 2095.1 2288.49 2101.37 2286.78C2128.3 2279.43 2153.07 2270.38 2175.69 2259.62C2247.18 2225.63 2299.5 2179.6 2332.65 2121.53C2365.79 2063.47 2382.36 1998.08 2382.36 1925.38C2382.36 1848.9 2367.21 1784.22 2336.91 1731.34C2306.61 1678.47 2268.96 1637.87 2223.98 1609.54C2181.62 1582.86 2139.47 1567.49 2097.53 1563.43C2093.16 1563 2089.75 1559.39 2089.75 1555V1555C2089.75 1551.24 2092.27 1547.96 2095.87 1546.92C2135.2 1535.58 2171.75 1518.68 2205.52 1496.24C2241.5 1472.63 2270.38 1440.53 2292.16 1399.93C2314.42 1359.33 2325.55 1307.87 2325.55 1245.55C2325.55 1174.73 2309.45 1110.29 2277.25 1052.22C2245.05 993.682 2196.05 947.18 2130.23 912.717C2121.31 907.981 2112.06 903.566 2102.49 899.473C2096.04 896.714 2089 901.541 2089 908.558V1078.18C2089 1080.13 2089.79 1082 2091.17 1083.38V1083.38C2135.68 1127.76 2157.93 1181.82 2157.93 1245.55C2157.93 1296.54 2145.15 1340.91 2119.58 1378.68C2111.32 1391.11 2102.1 1402.61 2091.89 1413.19C2090.06 1415.1 2089 1417.63 2089 1420.28V1694.53C2089 1697.96 2090.77 1701.14 2093.63 1703.02C2128.65 1726.08 2156.48 1754.87 2177.11 1789.41C2202.2 1830.96 2214.75 1876.28 2214.75 1925.38C2214.75 1989.11 2190.37 2043.4 2141.6 2088.25C2128.47 2100.31 2112.88 2110.73 2094.83 2119.51C2091.3 2121.23 2089 2124.77 2089 2128.7V2277.22Z" fill="url(#paint3_linear_29_235)"/>
<path d="M2175.69 2259.62L2174.83 2257.82L2174.83 2257.82L2175.69 2259.62ZM2332.65 2121.53L2330.91 2120.54L2330.91 2120.54L2332.65 2121.53ZM2336.91 1731.34L2338.64 1730.35L2338.64 1730.35L2336.91 1731.34ZM2223.98 1609.54L2222.92 1611.23L2222.92 1611.23L2223.98 1609.54ZM2205.52 1496.24L2204.42 1494.56L2204.41 1494.57L2205.52 1496.24ZM2292.16 1399.93L2290.41 1398.97L2290.41 1398.97L2290.4 1398.98L2292.16 1399.93ZM2277.25 1052.22L2275.5 1053.19L2275.5 1053.19L2277.25 1052.22ZM2130.23 912.717L2129.3 914.483L2129.31 914.489L2130.23 912.717ZM2119.58 1378.68L2117.92 1377.56L2117.92 1377.57L2117.91 1377.57L2119.58 1378.68ZM2177.11 1789.41L2175.39 1790.44L2175.4 1790.44L2177.11 1789.41ZM2141.6 2088.25L2142.95 2089.72L2142.95 2089.72L2141.6 2088.25ZM2093.63 1703.02L2092.53 1704.69L2093.63 1703.02ZM2091.89 1413.19L2090.45 1411.81L2091.89 1413.19ZM2095.87 1546.92L2095.32 1545L2095.87 1546.92ZM2097.53 1563.43L2097.34 1565.42L2097.53 1563.43ZM2094.83 2119.51L2095.71 2121.31L2094.83 2119.51ZM2101.37 2286.78L2101.9 2288.71L2101.37 2286.78ZM2174.83 2257.82C2152.33 2268.51 2127.67 2277.53 2100.84 2284.85L2101.9 2288.71C2128.93 2281.33 2153.81 2272.24 2176.55 2261.43L2174.83 2257.82ZM2330.91 2120.54C2298 2178.2 2246.03 2223.97 2174.83 2257.82L2176.55 2261.43C2248.34 2227.3 2301 2181.01 2334.38 2122.53L2330.91 2120.54ZM2380.36 1925.38C2380.36 1997.76 2363.87 2062.8 2330.91 2120.54L2334.38 2122.53C2367.72 2064.13 2384.36 1998.4 2384.36 1925.38H2380.36ZM2335.17 1732.34C2365.26 1784.84 2380.36 1849.16 2380.36 1925.38H2384.36C2384.36 1848.63 2369.16 1783.59 2338.64 1730.35L2335.17 1732.34ZM2222.92 1611.23C2267.58 1639.36 2305.01 1679.7 2335.17 1732.34L2338.64 1730.35C2308.2 1677.23 2270.34 1636.37 2225.05 1607.85L2222.92 1611.23ZM2097.34 1565.42C2138.91 1569.45 2180.77 1584.69 2222.92 1611.23L2225.05 1607.85C2182.47 1581.04 2140.03 1565.54 2097.72 1561.44L2097.34 1565.42ZM2204.41 1494.57C2170.82 1516.9 2134.45 1533.71 2095.32 1545L2096.43 1548.84C2135.95 1537.44 2172.69 1520.46 2206.62 1497.9L2204.41 1494.57ZM2290.4 1398.98C2268.77 1439.31 2240.11 1471.15 2204.42 1494.56L2206.61 1497.91C2242.9 1474.11 2272 1441.75 2293.93 1400.87L2290.4 1398.98ZM2323.55 1245.55C2323.55 1307.64 2312.46 1358.74 2290.41 1398.97L2293.92 1400.89C2316.38 1359.91 2327.55 1308.09 2327.55 1245.55H2323.55ZM2275.5 1053.19C2307.52 1110.94 2323.55 1175.05 2323.55 1245.55H2327.55C2327.55 1174.42 2311.37 1109.64 2279 1051.25L2275.5 1053.19ZM2129.31 914.489C2194.81 948.791 2243.51 995.029 2275.5 1053.19L2279 1051.26C2246.6 992.336 2197.28 945.57 2131.16 910.945L2129.31 914.489ZM2101.7 901.312C2111.23 905.384 2120.42 909.775 2129.3 914.483L2131.17 910.95C2122.2 906.188 2112.9 901.749 2103.28 897.634L2101.7 901.312ZM2091 1078.18V908.558H2087V1078.18H2091ZM2159.93 1245.55C2159.93 1181.29 2137.47 1126.72 2092.58 1081.97L2089.76 1084.8C2133.88 1128.79 2155.93 1182.34 2155.93 1245.55H2159.93ZM2121.24 1379.8C2147.05 1341.67 2159.93 1296.89 2159.93 1245.55H2155.93C2155.93 1296.19 2143.24 1340.16 2117.92 1377.56L2121.24 1379.8ZM2093.33 1414.58C2103.62 1403.91 2112.92 1392.31 2121.25 1379.79L2117.91 1377.57C2109.72 1389.9 2100.57 1401.31 2090.45 1411.81L2093.33 1414.58ZM2091 1694.53V1420.28H2087V1694.53H2091ZM2092.53 1704.69C2127.31 1727.59 2154.92 1756.17 2175.39 1790.44L2178.82 1788.39C2158.04 1753.58 2129.99 1724.56 2094.73 1701.35L2092.53 1704.69ZM2175.4 1790.44C2200.3 1831.67 2212.75 1876.64 2212.75 1925.38H2216.75C2216.75 1875.92 2204.11 1830.24 2178.82 1788.38L2175.4 1790.44ZM2212.75 1925.38C2212.75 1988.53 2188.62 2042.29 2140.24 2086.78L2142.95 2089.72C2192.11 2044.51 2216.75 1989.69 2216.75 1925.38H2212.75ZM2140.24 2086.78C2127.28 2098.69 2111.86 2109.01 2093.96 2117.72L2095.71 2121.31C2113.91 2112.46 2129.67 2101.93 2142.95 2089.72L2140.24 2086.78ZM2091 2277.22V2128.7H2087V2277.22H2091ZM2087 1694.53C2087 1698.65 2089.12 1702.45 2092.53 1704.69L2094.73 1701.35C2092.41 1699.82 2091 1697.26 2091 1694.53H2087ZM2087 1078.18C2087 1080.68 2088.02 1083.04 2089.75 1084.79L2092.59 1081.97C2091.57 1080.95 2091 1079.58 2091 1078.18H2087ZM2103.28 897.634C2095.45 894.287 2087 900.166 2087 908.558H2091C2091 902.916 2096.63 899.14 2101.7 901.312L2103.28 897.634ZM2090.45 1411.81C2088.27 1414.07 2087 1417.1 2087 1420.28H2091C2091 1418.17 2091.84 1416.13 2093.33 1414.58L2090.45 1411.81ZM2091.75 1555C2091.75 1552.15 2093.66 1549.64 2096.43 1548.84L2095.32 1545C2090.87 1546.28 2087.75 1550.33 2087.75 1555H2091.75ZM2097.72 1561.44C2094.34 1561.11 2091.75 1558.31 2091.75 1555H2087.75C2087.75 1560.46 2091.98 1564.9 2097.34 1565.42L2097.72 1561.44ZM2093.96 2117.72C2089.77 2119.75 2087 2123.98 2087 2128.7H2091C2091 2125.57 2092.84 2122.71 2095.71 2121.31L2093.96 2117.72ZM2100.84 2284.85C2095.88 2286.21 2091 2282.43 2091 2277.22H2087C2087 2285 2094.32 2290.78 2101.9 2288.71L2100.84 2284.85Z" fill="black" mask="url(#path-6-inside-3_29_235)"/>
</g>
<defs>
<linearGradient id="paint0_linear_29_235" x1="1500" y1="0" x2="1500" y2="3000" gradientUnits="userSpaceOnUse">
<stop stop-color="#BF21D9"/>
<stop offset="1" stop-color="#651173"/>
</linearGradient>
<linearGradient id="paint1_linear_29_235" x1="1508" y1="587" x2="1508" y2="2414" gradientUnits="userSpaceOnUse">
<stop stop-color="#932D95"/>
<stop offset="1" stop-color="#2E0E2F"/>
</linearGradient>
<linearGradient id="paint2_linear_29_235" x1="772.5" y1="887.564" x2="772.5" y2="2120.06" gradientUnits="userSpaceOnUse">
<stop stop-color="#D921B0"/>
<stop offset="1" stop-color="#73115D"/>
</linearGradient>
<linearGradient id="paint3_linear_29_235" x1="2235.68" y1="898.684" x2="2235.68" y2="2287.13" gradientUnits="userSpaceOnUse">
<stop stop-color="#D921B0"/>
<stop offset="1" stop-color="#73115D"/>
</linearGradient>
<clipPath id="clip0_29_235">
<rect width="3000" height="3000" fill="white"/>
</clipPath>
</defs>
</svg>
