<svg width="3000" height="3000" viewBox="0 0 3000 3000" fill="none" xmlns="http://www.w3.org/2000/svg">
<g clip-path="url(#clip0_28_141)">
<rect width="3000" height="3000" fill="white"/>
<path fill-rule="evenodd" clip-rule="evenodd" d="M1500 3000C2328.43 3000 3000 2328.43 3000 1500C3000 671.573 2328.43 0 1500 0C671.573 0 0 671.573 0 1500C0 2328.43 671.573 3000 1500 3000ZM1500 2859C2250.55 2859 2859 2250.55 2859 1500C2859 749.445 2250.55 141 1500 141C749.445 141 141 749.445 141 1500C141 2250.55 749.445 2859 1500 2859Z" fill="#721C79"/>
<path fill-rule="evenodd" clip-rule="evenodd" d="M1542 597C1542 591.477 1537.52 587 1532 587H1366C1360.48 587 1356 591.477 1356 597V740.963C1356 746.754 1351.1 751.327 1345.31 751.021C1332.48 750.34 1319.5 750 1306.36 750C1213.09 750 1127.62 767.282 1049.97 801.847C1012.98 818.314 978.346 838.22 946.08 861.566C943.506 863.428 942 866.42 942 869.597V1076.49C942 1086.38 955.18 1090.51 961.212 1082.67C992.845 1041.58 1029.53 1007.87 1071.28 981.534C1141.83 937.027 1220.19 914.773 1306.36 914.773C1323.3 914.773 1339.79 915.51 1355.84 916.985C1355.93 916.993 1356 917.068 1356 917.157V917.275C1356 917.282 1356 917.288 1356.01 917.29V917.29C1356.03 917.295 1356.03 917.32 1356.01 917.322C1355.81 917.35 1355.65 917.396 1355.55 917.461C1355.52 917.483 1355.51 917.524 1355.51 917.563L1355.52 917.606C1355.56 917.754 1355.74 917.8 1355.84 917.685L1355.9 917.613C1355.96 917.544 1356.06 917.517 1356.15 917.542C1453.82 945.85 1504.57 967.523 1588.64 1015.01C1588.66 1015.02 1588.68 1015.03 1588.7 1015.03V1015.03C1588.8 1015.02 1588.83 1014.89 1588.74 1014.84C1588.65 1014.78 1588.55 1014.72 1588.45 1014.65C1588.26 1014.54 1588.35 1014.25 1588.57 1014.25H1588.9C1588.97 1014.25 1589.05 1014.28 1589.1 1014.33C1615.74 1037.83 1639.15 1065.02 1659.35 1095.88C1683.68 1131.93 1703.51 1172.49 1718.84 1217.55C1720.23 1221.64 1724.06 1224.43 1728.39 1224.43H1890.9C1897.16 1224.43 1901.89 1218.74 1900.62 1212.6C1886.95 1146.7 1863.58 1086.48 1830.51 1031.96C1830.09 1031.26 1829.67 1030.56 1829.25 1029.87C1825.13 1023.08 1829.93 1014.25 1837.87 1014.25H1864.52C1947.6 1014.25 2011.42 1030.89 2055.96 1064.17C2063.05 1069.46 2074 1064.68 2074 1055.83V898.647C2074 894.512 2071.46 890.794 2067.58 889.372C2010.49 868.457 1942.81 858 1864.52 858H1670.15C1668.11 858 1666.12 857.373 1664.43 856.217C1628.82 831.746 1590.15 811.309 1548.43 794.906C1544.57 793.387 1542 789.674 1542 785.523V597ZM942 2123.8C942 2126.99 943.515 2129.99 946.101 2131.85C956.54 2139.36 967.253 2146.55 978.239 2153.41C1075.78 2214.02 1188.94 2244.32 1317.73 2244.32C1327.08 2244.32 1336.34 2244.16 1345.52 2243.84C1351.23 2243.65 1356 2248.19 1356 2253.9V2312.55V2404C1356 2409.52 1360.48 2414 1366 2414H1532C1537.52 2414 1542 2409.52 1542 2404V2322.55C1542 2317.02 1546.48 2312.55 1552 2312.55H1881.57C1951.12 2312.55 2012.73 2306.27 2066.4 2293.71C2070.88 2292.66 2074 2288.65 2074 2284.06V2139.18C2074 2131.9 2066.46 2127.03 2059.67 2129.65C2013.63 2147.41 1954.26 2156.3 1881.57 2156.3H1686.59C1676.52 2156.3 1672.51 2142.68 1680.73 2136.84C1743.89 2091.97 1795.24 2034.99 1834.77 1965.91C1885.91 1877.37 1911.48 1773.2 1911.48 1653.41V1653.41C1911.48 1652.16 1912.53 1651.16 1913.77 1651.23C1967.31 1654.06 2014.34 1666.63 2054.86 1688.97C2056.04 1689.6 2057.21 1690.24 2058.37 1690.89C2065.26 1694.72 2074 1689.88 2074 1681.99V1439.7C2074 1430.78 2062.97 1426.1 2056.08 1431.77C2040.06 1444.97 2022.14 1456.37 2002.31 1465.95C1961.32 1485.99 1915.51 1496.39 1864.89 1497.16H1589.08C1589.04 1497.16 1589 1497.12 1589 1497.08V1497.08C1589 1497.04 1588.96 1497 1588.92 1497H1366C1360.48 1497 1356 1501.48 1356 1507V1644C1356 1649.52 1360.48 1654 1366 1654H1588.7C1588.87 1654 1589 1653.87 1589 1653.7V1653.7C1589 1653.54 1589.13 1653.41 1589.3 1653.41H1730.75C1736.34 1653.41 1740.85 1658 1740.66 1663.59C1737.97 1743.61 1720.1 1813.84 1687.05 1874.29C1651.53 1939.63 1601.82 1990.29 1537.9 2026.28C1536.28 2027.19 1534.65 2028.08 1533.01 2028.97C1533 2028.97 1533 2028.98 1533 2028.99V2028.99C1533 2028.99 1533 2029 1532.99 2029.01L1532.76 2029.1C1532.56 2029.21 1532.37 2029.32 1532.17 2029.42C1532.15 2029.43 1532.14 2029.42 1532.14 2029.4V2029.4C1532.14 2029.39 1532.12 2029.38 1532.11 2029.38C1468.36 2056.78 1429.17 2067.32 1356.12 2077.98C1356.05 2077.99 1356 2078.05 1356 2078.12V2078.12C1356 2078.19 1355.94 2078.25 1355.87 2078.26C1343.4 2079.12 1330.68 2079.55 1317.73 2079.55C1227.77 2079.55 1146.8 2057.29 1074.83 2012.78C1031.56 1986.02 993.68 1951.65 961.192 1909.66C955.148 1901.84 942 1905.98 942 1915.86V2123.8Z" fill="url(#paint0_linear_28_141)"/>
<path fill-rule="evenodd" clip-rule="evenodd" d="M924.344 1907.49C926.043 1909.35 927 1911.78 927 1914.3V2119.55C927 2119.94 926.576 2120.18 926.239 2119.99V2119.99C829.174 2062.79 753.417 1981.47 698.966 1876.02C644.989 1770.57 618 1645.45 618 1500.68C618 1392.1 633.388 1294.47 664.165 1207.79C695.415 1120.65 739.449 1046.48 796.267 985.265C830.98 947.865 869.582 915.802 912.071 889.077C918.616 884.96 927 889.741 927 897.472V1085.12C927 1087.64 926.049 1090.06 924.359 1091.92C896.274 1122.88 871.806 1158.82 850.955 1199.74C809.288 1281.51 788.455 1381.83 788.455 1500.68C788.455 1619.54 809.525 1719.85 851.665 1801.62C872.311 1841.68 896.537 1876.97 924.344 1907.49Z" fill="url(#paint1_linear_28_141)"/>
<path fill-rule="evenodd" clip-rule="evenodd" d="M2089 2277.22C2089 2283.72 2095.1 2288.49 2101.37 2286.78C2128.3 2279.43 2153.07 2270.38 2175.69 2259.62C2247.18 2225.63 2299.5 2179.6 2332.65 2121.53C2365.79 2063.47 2382.36 1998.08 2382.36 1925.38C2382.36 1848.9 2367.21 1784.22 2336.91 1731.34C2306.61 1678.47 2268.96 1637.87 2223.98 1609.54C2181.62 1582.86 2139.47 1567.49 2097.53 1563.43C2093.16 1563 2089.75 1559.39 2089.75 1555V1555C2089.75 1551.24 2092.27 1547.96 2095.87 1546.92C2135.2 1535.58 2171.75 1518.68 2205.52 1496.24C2241.5 1472.63 2270.38 1440.53 2292.16 1399.93C2314.42 1359.33 2325.55 1307.87 2325.55 1245.55C2325.55 1174.73 2309.45 1110.29 2277.25 1052.22C2245.05 993.682 2196.05 947.18 2130.23 912.717C2121.31 907.981 2112.06 903.566 2102.49 899.473C2096.04 896.714 2089 901.541 2089 908.558V1078.18C2089 1080.13 2089.79 1082 2091.17 1083.38V1083.38C2135.68 1127.76 2157.93 1181.82 2157.93 1245.55C2157.93 1296.54 2145.15 1340.91 2119.58 1378.68C2111.32 1391.11 2102.1 1402.61 2091.89 1413.19C2090.06 1415.1 2089 1417.63 2089 1420.28V1694.53C2089 1697.96 2090.77 1701.14 2093.63 1703.02C2128.65 1726.08 2156.48 1754.87 2177.11 1789.41C2202.2 1830.96 2214.75 1876.28 2214.75 1925.38C2214.75 1989.11 2190.37 2043.4 2141.6 2088.25C2128.47 2100.31 2112.88 2110.73 2094.83 2119.51C2091.3 2121.23 2089 2124.77 2089 2128.7V2277.22Z" fill="url(#paint2_linear_28_141)"/>
</g>
<defs>
<linearGradient id="paint0_linear_28_141" x1="1508" y1="587" x2="1508" y2="2414" gradientUnits="userSpaceOnUse">
<stop stop-color="#932D95"/>
<stop offset="1" stop-color="#2E0E2F"/>
</linearGradient>
<linearGradient id="paint1_linear_28_141" x1="772.5" y1="887.564" x2="772.5" y2="2120.06" gradientUnits="userSpaceOnUse">
<stop stop-color="#D921B0"/>
<stop offset="1" stop-color="#73115D"/>
</linearGradient>
<linearGradient id="paint2_linear_28_141" x1="2235.68" y1="898.684" x2="2235.68" y2="2287.13" gradientUnits="userSpaceOnUse">
<stop stop-color="#D921B0"/>
<stop offset="1" stop-color="#73115D"/>
</linearGradient>
<clipPath id="clip0_28_141">
<rect width="3000" height="3000" fill="white"/>
</clipPath>
</defs>
</svg>
